<?xml version="1.0" encoding="utf-8"?>
<svg version="1.1" xmlns:xlink="http://www.w3.org/1999/xlink" width="25px" height="15px" xmlns="http://www.w3.org/2000/svg">
  <g transform="matrix(1 0 0 1 -487 -1157 )">
    <path d="M 9.92196209587514 4.27380952380952  L 9.92196209587514 10.2619047619048  L 16.6666666666667 7.28571428571429  L 9.92196209587514 4.27380952380952  Z M 3.76254180602007 0.214285714285714  C 6.09438870308436 0.0714285714285712  9.00687476774433 0  12.5 0  C 14.0607580824972 0  15.5680973615756 0.0178571428571428  17.0220178372352 0.0535714285714284  C 18.4759383128948 0.089285714285714  19.5419918246005 0.126984126984126  20.2201783723523 0.166666666666666  L 21.2374581939799 0.214285714285714  C 21.2467484206615 0.214285714285714  21.3257153474545 0.220238095238094  21.474358974359 0.232142857142856  C 21.6230026012635 0.24404761904762  21.7298402081011 0.255952380952382  21.7948717948718 0.267857142857144  C 21.8599033816425 0.279761904761905  21.9690635451505 0.297619047619048  22.1223522853958 0.321428571428572  C 22.275641025641 0.345238095238096  22.4080267558528 0.376984126984125  22.5195094760312 0.416666666666667  C 22.6309921962096 0.456349206349205  22.761055369751 0.507936507936506  22.9096989966555 0.571428571428571  C 23.05834262356 0.634920634920633  23.2023411371237 0.712301587301587  23.3416945373467 0.803571428571429  C 23.4810479375697 0.894841269841268  23.6157562244519 1  23.7458193979933 1.11904761904762  C 23.8015607580825 1.16666666666667  23.8735600148644 1.24007936507936  23.9618171683389 1.33928571428571  C 24.0500743218135 1.43849206349206  24.1847826086957 1.67063492063492  24.3659420289855 2.03571428571429  C 24.5471014492754 2.40079365079365  24.6701969528057 2.8015873015873  24.7352285395764 3.23809523809524  C 24.8095503530286 3.74603174603175  24.8676142697882 4.28769841269841  24.9094202898551 4.86309523809524  C 24.951226309922 5.43849206349206  24.9767744332962 5.88888888888889  24.9860646599777 6.21428571428571  L 24.9860646599777 6.69047619047619  L 24.9860646599777 8.30952380952381  C 24.9953548866592 9.46031746031746  24.9117428465255 10.6111111111111  24.7352285395764 11.7619047619048  C 24.6701969528057 12.1984126984127  24.5540691192865 12.593253968254  24.386845039019 12.9464285714286  C 24.2196209587514 13.2996031746032  24.0709773318469 13.5436507936508  23.9409141583055 13.6785714285714  L 23.7458193979933 13.8809523809524  C 23.6157562244519 14  23.4810479375697 14.1051587301587  23.3416945373467 14.1964285714286  C 23.2023411371237 14.2876984126984  23.05834262356 14.3630952380952  22.9096989966555 14.422619047619  C 22.761055369751 14.4821428571429  22.6309921962096 14.531746031746  22.5195094760312 14.5714285714286  C 22.4080267558528 14.6111111111111  22.275641025641 14.6428571428571  22.1223522853958 14.6666666666667  C 21.9690635451505 14.6904761904762  21.8575808249721 14.7083333333333  21.7879041248606 14.7202380952381  C 21.7182274247492 14.7321428571429  21.6113898179116 14.7440476190476  21.4673913043478 14.7559523809524  C 21.3233927907841 14.7678571428571  21.2467484206615 14.7738095238095  21.2374581939799 14.7738095238095  C 18.9056112969156 14.9246031746032  15.9931252322557 15  12.5 15  C 10.5769230769231 14.984126984127  8.90700483091788 14.9583333333333  7.49024526198439 14.922619047619  C 6.07348569305091 14.8869047619048  5.14214046822743 14.8571428571429  4.69620958751393 14.8333333333333  L 4.0133779264214 14.7857142857143  L 3.51170568561873 14.7380952380952  C 3.17725752508361 14.6984126984127  2.92409884801189 14.6587301587302  2.75222965440357 14.6190476190476  C 2.58036046079524 14.5793650793651  2.3434596804162 14.4960317460317  2.04152731326644 14.3690476190476  C 1.73959494611669 14.2420634920635  1.47714604236343 14.0793650793651  1.25418060200669 13.8809523809524  C 1.1984392419175 13.8333333333333  1.12643998513564 13.7599206349206  1.03818283166109 13.6607142857143  C 0.949925678186548 13.5615079365079  0.815217391304348 13.3293650793651  0.634057971014493 12.9642857142857  C 0.452898550724638 12.5992063492063  0.329803047194352 12.1984126984127  0.264771460423634 11.7619047619048  C 0.190449646971386 11.2539682539683  0.132385730211817 10.7123015873016  0.0905797101449275 10.1369047619048  C 0.0487736900780379 9.56150793650793  0.0232255667038276 9.11111111111111  0.0139353400222965 8.78571428571428  L 0.0139353400222965 8.30952380952381  L 0.0139353400222965 6.69047619047619  C 0.00464511334076551 5.53968253968254  0.0882571534745448 4.38888888888889  0.264771460423634 3.23809523809524  C 0.329803047194352 2.8015873015873  0.445930880713489 2.40674603174603  0.613154960981048 2.05357142857143  C 0.780379041248606 1.70039682539682  0.929022668153103 1.45634920634921  1.05908584169454 1.32142857142857  L 1.25418060200669 1.11904761904762  C 1.38424377554812 1  1.51895206243032 0.894841269841268  1.65830546265329 0.803571428571429  C 1.79765886287625 0.712301587301587  1.94165737643999 0.634920634920633  2.09030100334448 0.571428571428571  C 2.23894463024898 0.507936507936506  2.36900780379041 0.456349206349205  2.48049052396878 0.416666666666667  C 2.59197324414716 0.376984126984125  2.72435897435897 0.345238095238096  2.87764771460424 0.321428571428572  C 3.0309364548495 0.297619047619048  3.14009661835749 0.279761904761905  3.2051282051282 0.267857142857144  C 3.27015979189892 0.255952380952382  3.37699739873653 0.24404761904762  3.52564102564103 0.232142857142856  C 3.67428465254552 0.220238095238094  3.75325157933854 0.214285714285714  3.76254180602007 0.214285714285714  Z " fill-rule="nonzero" fill="#000000" stroke="none" fill-opacity="0.298039215686275" transform="matrix(1 0 0 1 487 1157 )" />
  </g>
</svg>