<?xml version="1.0" encoding="utf-8"?>
<svg version="1.1" xmlns:xlink="http://www.w3.org/1999/xlink" width="31px" height="19px" xmlns="http://www.w3.org/2000/svg">
  <g transform="matrix(1 0 0 1 -47 -1184 )">
    <path d="M 12.3032329988852 5.41349206349206  L 12.3032329988852 12.9984126984127  L 20.6666666666667 9.22857142857143  L 12.3032329988852 5.41349206349206  Z M 4.66555183946488 0.27142857142857  C 7.5570419918246 0.0904761904761902  11.168524712003 0  15.5 0  C 17.4353400222965 0  19.3044407283538 0.0226190476190475  21.1073021181717 0.0678571428571426  C 22.9101635079896 0.113095238095238  24.2320698625046 0.16084656084656  25.0730211817168 0.21111111111111  L 26.3344481605351 0.27142857142857  C 26.3459680416202 0.27142857142857  26.4438870308436 0.278968253968253  26.6282051282051 0.294047619047618  C 26.8125232255667 0.309126984126985  26.9450018580453 0.32420634920635  27.025641025641 0.339285714285715  C 27.1062801932367 0.35436507936508  27.2416387959866 0.376984126984128  27.4317168338907 0.407142857142858  C 27.6217948717949 0.437301587301588  27.7859531772575 0.477513227513225  27.9241917502787 0.527777777777778  C 28.0624303232999 0.578042328042327  28.2237086584913 0.64338624338624  28.4080267558528 0.723809523809523  C 28.5923448532144 0.804232804232802  28.7709030100335 0.902248677248677  28.9437012263099 1.01785714285714  C 29.1164994425864 1.13346560846561  29.2835377183203 1.26666666666667  29.4448160535117 1.41746031746032  C 29.5139353400223 1.47777777777778  29.6032144184318 1.57076719576719  29.7126532887402 1.69642857142857  C 29.8220921590487 1.82208994708995  29.9891304347826 2.11613756613757  30.213768115942 2.57857142857143  C 30.4384057971015 3.04100529100529  30.591044221479 3.54867724867725  30.6716833890747 4.1015873015873  C 30.7638424377555 4.74497354497354  30.8358416945374 5.43108465608466  30.8876811594203 6.15992063492063  C 30.9395206243032 6.88875661375661  30.9712002972873 7.45925925925926  30.9827201783724 7.87142857142857  L 30.9827201783724 8.47460317460317  L 30.9827201783724 10.5253968253968  C 30.9942400594575 11.9830687830688  30.8905611296916 13.4407407407407  30.6716833890747 14.8984126984127  C 30.591044221479 15.4513227513228  30.4470457079153 15.951455026455  30.2396878483835 16.3988095238095  C 30.0323299888517 16.846164021164  29.8480118914902 17.155291005291  29.6867335562988 17.3261904761905  L 29.4448160535117 17.5825396825397  C 29.2835377183203 17.7333333333333  29.1164994425864 17.8665343915344  28.9437012263099 17.9821428571429  C 28.7709030100335 18.0977513227513  28.5923448532144 18.193253968254  28.4080267558528 18.2686507936508  C 28.2237086584913 18.3440476190476  28.0624303232999 18.4068783068783  27.9241917502787 18.4571428571429  C 27.7859531772575 18.5074074074074  27.6217948717949 18.547619047619  27.4317168338907 18.5777777777778  C 27.2416387959866 18.6079365079365  27.1034002229654 18.6305555555556  27.0170011148272 18.6456349206349  C 26.930602006689 18.6607142857143  26.7981233742103 18.6757936507937  26.6195652173913 18.690873015873  C 26.4410070605723 18.7059523809524  26.3459680416202 18.7134920634921  26.3344481605351 18.7134920634921  C 23.4429580081754 18.9044973544974  19.831475287997 19  15.5 19  C 13.1153846153846 18.9798941798942  11.0446859903382 18.9472222222222  9.28790412486065 18.9019841269841  C 7.53112225938313 18.856746031746  6.37625418060201 18.8190476190476  5.82329988851728 18.7888888888889  L 4.97658862876254 18.7285714285714  L 4.35451505016722 18.668253968254  C 3.93979933110368 18.6179894179894  3.62588257153475 18.5677248677249  3.41276477146042 18.5174603174603  C 3.1996469713861 18.4671957671958  2.90589000371609 18.3616402116402  2.53149386845039 18.2007936507937  C 2.15709773318469 18.0399470899471  1.83166109253066 17.8338624338624  1.55518394648829 17.5825396825397  C 1.4860646599777 17.5222222222222  1.39678558156819 17.4292328042328  1.28734671125975 17.3035714285714  C 1.17790784095132 17.1779100529101  1.01086956521739 16.8838624338624  0.786231884057971 16.4214285714286  C 0.561594202898551 15.9589947089947  0.408955778520996 15.4513227513228  0.328316610925307 14.8984126984127  C 0.236157562244519 14.2550264550265  0.164158305462653 13.5689153439153  0.11231884057971 12.8400793650794  C 0.060479375696767 12.1112433862434  0.0287997027127462 11.5407407407407  0.0172798216276477 11.1285714285714  L 0.0172798216276477 10.5253968253968  L 0.0172798216276477 8.47460317460317  C 0.00575994054254924 7.01693121693122  0.109438870308436 5.55925925925926  0.328316610925307 4.1015873015873  C 0.408955778520996 3.54867724867725  0.552954292084727 3.04854497354497  0.760312151616499 2.60119047619048  C 0.967670011148272 2.15383597883598  1.15198810850985 1.84470899470899  1.31326644370123 1.67380952380952  L 1.55518394648829 1.41746031746032  C 1.71646228167967 1.26666666666667  1.8835005574136 1.13346560846561  2.05629877369008 1.01785714285714  C 2.22909698996656 0.902248677248677  2.40765514678558 0.804232804232802  2.59197324414716 0.723809523809523  C 2.77629134150873 0.64338624338624  2.93756967670011 0.578042328042327  3.07580824972129 0.527777777777778  C 3.21404682274247 0.477513227513225  3.37820512820513 0.437301587301588  3.56828316610925 0.407142857142858  C 3.75836120401338 0.376984126984128  3.89371980676329 0.35436507936508  3.97435897435897 0.339285714285715  C 4.05499814195466 0.32420634920635  4.1874767744333 0.309126984126985  4.37179487179487 0.294047619047618  C 4.55611296915645 0.278968253968253  4.65403195837979 0.27142857142857  4.66555183946488 0.27142857142857  Z " fill-rule="nonzero" fill="#1890ff" stroke="none" transform="matrix(1 0 0 1 47 1184 )" />
  </g>
</svg>