<?xml version="1.0" encoding="utf-8"?>
<svg version="1.1" xmlns:xlink="http://www.w3.org/1999/xlink" width="155px" height="99px" xmlns="http://www.w3.org/2000/svg">
  <g transform="matrix(1 0 0 1 -67 -1265 )">
    <path d="M 67 1265  L 222 1265  L 222 1364  L 67 1364  L 67 1265  " fill-rule="nonzero" fill="#cccccc" stroke="none" />
    <path d="M 74 1272  L 215 1272  L 215 1357  L 74 1357  L 74 1272  " fill-rule="nonzero" fill="#ffffff" stroke="none" />
    <path d="M 155.025 1294.7  C 150.867 1294.7  147.6 1291.433  147.6 1287.275  C 147.6 1283.117  150.867 1279.85  155.025 1279.85  C 159.183 1279.85  162.45 1283.117  162.45 1287.275  C 162.45 1291.433  159.183 1294.7  155.025 1294.7  " fill-rule="nonzero" fill="#cccccc" stroke="none" />
    <path d="M 77 1355  L 77 1311  L 111 1291  L 158.6 1324.34193548387  L 185.8 1303  L 213 1324.34193548387  L 213 1355  L 77 1355  " fill-rule="nonzero" fill="#169bd5" stroke="none" />
  </g>
</svg>