<?xml version="1.0" encoding="utf-8"?>
<svg version="1.1" xmlns:xlink="http://www.w3.org/1999/xlink" width="100px" height="100px" xmlns="http://www.w3.org/2000/svg">
  <g transform="matrix(1 0 0 1 -1688 -407 )">
    <path d="M 30.4166666666667 20.3125  C 32.3611111111111 22.7430555555555  33.3333333333333 25.6944444444444  33.3333333333333 29.1666666666667  C 33.3333333333333 32.6388888888889  32.3611111111111 35.5902777777778  30.4166666666667 38.0208333333333  C 28.4722222222222 40.4513888888889  26.1111111111111 41.6666666666667  23.3333333333333 41.6666666666667  C 20.5555555555556 41.6666666666667  18.1944444444444 40.4513888888889  16.25 38.0208333333333  C 14.3055555555556 35.5902777777778  13.3333333333333 32.6388888888889  13.3333333333333 29.1666666666667  C 13.3333333333333 25.6944444444444  14.3055555555556 22.7430555555555  16.25 20.3125  C 18.1944444444444 17.8819444444444  20.5555555555556 16.6666666666667  23.3333333333333 16.6666666666667  C 26.1111111111111 16.6666666666667  28.4722222222222 17.8819444444444  30.4166666666667 20.3125  Z M 65 27.0833333333333  L 86 54.1666666666667  L 86 83  L 14 83  L 14 70.8333333333333  L 30 50  L 38.3333333333333 60.4166666666667  L 65 27.0833333333333  Z M 92.8385416666667 8.95182291666666  C 92.5086805555556 8.53949652777777  92.1180555555556 8.33333333333334  91.6666666666667 9  L 8.33333333333333 9  C 7.88194444444445 8.33333333333334  7.49131944444445 8.53949652777777  7.16145833333333 8.95182291666666  C 6.83159722222222 9.36414930555555  6.66666666666667 9.85243055555555  7 10.4166666666667  L 7 89.5833333333333  C 6.66666666666667 90.1475694444445  6.83159722222222 90.6358506944445  7.16145833333333 91.0481770833333  C 7.49131944444445 91.4605034722222  7.88194444444445 91.6666666666667  8.33333333333333 91  L 91.6666666666667 91  C 92.1180555555556 91.6666666666667  92.5086805555556 91.4605034722222  92.8385416666667 91.0481770833333  C 93.1684027777778 90.6358506944445  93.3333333333333 90.1475694444445  93 89.5833333333333  L 93 10.4166666666667  C 93.3333333333333 9.85243055555555  93.1684027777778 9.36414930555555  92.8385416666667 8.95182291666666  Z M 97.5520833333333 3.05989583333334  C 99.1840277777778 5.09982638888888  100 7.55208333333334  100 10.4166666666667  L 100 89.5833333333333  C 100 92.4479166666667  99.1840277777778 94.9001736111111  97.5520833333333 96.9401041666667  C 95.9201388888889 98.9800347222222  93.9583333333333 100  91.6666666666667 100  L 8.33333333333333 100  C 6.04166666666667 100  4.07986111111111 98.9800347222222  2.44791666666667 96.9401041666667  C 0.815972222222222 94.9001736111111  0 92.4479166666667  0 89.5833333333333  L 0 10.4166666666667  C 0 7.55208333333334  0.815972222222222 5.09982638888888  2.44791666666667 3.05989583333334  C 4.07986111111111 1.01996527777777  6.04166666666667 0  8.33333333333333 0  L 91.6666666666667 0  C 93.9583333333333 0  95.9201388888889 1.01996527777777  97.5520833333333 3.05989583333334  Z " fill-rule="nonzero" fill="#02a7f0" stroke="none" transform="matrix(1 0 0 1 1688 407 )" />
  </g>
</svg>