<?xml version="1.0" encoding="utf-8"?>
<svg version="1.1" xmlns:xlink="http://www.w3.org/1999/xlink" width="17px" height="20px" xmlns="http://www.w3.org/2000/svg">
  <g transform="matrix(1 0 0 1 -902 -401 )">
    <path d="M 6.07315340909091 16.5494791666667  C 6.14559659090909 16.4713541666667  6.18181818181818 16.3715277777778  6.18181818181818 16.25  L 6.18181818181818 7.08333333333333  C 6.18181818181818 6.96180555555556  6.14559659090909 6.86197916666667  6.07315340909091 6.78385416666667  C 6.00071022727273 6.70572916666667  5.90814393939394 6.66666666666667  5.79545454545455 6.66666666666667  L 5.02272727272727 6.66666666666667  C 4.91003787878788 6.66666666666667  4.81747159090909 6.70572916666667  4.74502840909091 6.78385416666667  C 4.67258522727273 6.86197916666667  4.63636363636364 6.96180555555556  4.63636363636364 7.08333333333333  L 4.63636363636364 16.25  C 4.63636363636364 16.3715277777778  4.67258522727273 16.4713541666667  4.74502840909091 16.5494791666667  C 4.81747159090909 16.6276041666667  4.91003787878788 16.6666666666667  5.02272727272727 16.6666666666667  L 5.79545454545455 16.6666666666667  C 5.90814393939394 16.6666666666667  6.00071022727273 16.6276041666667  6.07315340909091 16.5494791666667  Z M 9.1640625 16.5494791666667  C 9.23650568181818 16.4713541666667  9.27272727272727 16.3715277777778  9.27272727272727 16.25  L 9.27272727272727 7.08333333333333  C 9.27272727272727 6.96180555555556  9.23650568181818 6.86197916666667  9.1640625 6.78385416666667  C 9.09161931818182 6.70572916666667  8.99905303030303 6.66666666666667  8.88636363636364 6.66666666666667  L 8.11363636363636 6.66666666666667  C 8.00094696969697 6.66666666666667  7.90838068181818 6.70572916666667  7.8359375 6.78385416666667  C 7.76349431818182 6.86197916666667  7.72727272727273 6.96180555555556  7.72727272727273 7.08333333333333  L 7.72727272727273 16.25  C 7.72727272727273 16.3715277777778  7.76349431818182 16.4713541666667  7.8359375 16.5494791666667  C 7.90838068181818 16.6276041666667  8.00094696969697 16.6666666666667  8.11363636363636 16.6666666666667  L 8.88636363636364 16.6666666666667  C 8.99905303030303 16.6666666666667  9.09161931818182 16.6276041666667  9.1640625 16.5494791666667  Z M 12.2549715909091 16.5494791666667  C 12.3274147727273 16.4713541666667  12.3636363636364 16.3715277777778  12.3636363636364 16.25  L 12.3636363636364 7.08333333333333  C 12.3636363636364 6.96180555555556  12.3274147727273 6.86197916666667  12.2549715909091 6.78385416666667  C 12.1825284090909 6.70572916666667  12.0899621212121 6.66666666666667  11.9772727272727 6.66666666666667  L 11.2045454545455 6.66666666666667  C 11.0918560606061 6.66666666666667  10.9992897727273 6.70572916666667  10.9268465909091 6.78385416666667  C 10.8544034090909 6.86197916666667  10.8181818181818 6.96180555555556  10.8181818181818 7.08333333333333  L 10.8181818181818 16.25  C 10.8181818181818 16.3715277777778  10.8544034090909 16.4713541666667  10.9268465909091 16.5494791666667  C 10.9992897727273 16.6276041666667  11.0918560606061 16.6666666666667  11.2045454545455 16.6666666666667  L 11.9772727272727 16.6666666666667  C 12.0899621212121 16.6666666666667  12.1825284090909 16.6276041666667  12.2549715909091 16.5494791666667  Z M 6.38707386363636 1.80989583333333  L 5.79545454545455 3.33333333333333  L 11.2045454545455 3.33333333333333  L 10.625 1.80989583333333  C 10.5686553030303 1.73177083333333  10.5002367424242 1.68402777777778  10.4197443181818 1.66666666666667  L 6.59232954545455 1.66666666666667  C 6.51183712121212 1.68402777777778  6.44341856060606 1.73177083333333  6.38707386363636 1.80989583333333  Z M 16.8913352272727 3.45052083333333  C 16.9637784090909 3.52864583333333  17 3.62847222222222  17 3.75  L 17 4.58333333333333  C 17 4.70486111111111  16.9637784090909 4.8046875  16.8913352272727 4.8828125  C 16.8188920454545 4.9609375  16.7263257575758 5  16.6136363636364 5  L 15.4545454545455 5  L 15.4545454545455 17.34375  C 15.4545454545455 18.0642361111111  15.2653882575758 18.6870659722222  14.8870738636364 19.2122395833333  C 14.508759469697 19.7374131944444  14.0539772727273 20  13.5227272727273 20  L 3.47727272727273 20  C 2.94602272727273 20  2.49124053030303 19.74609375  2.11292613636364 19.23828125  C 1.73461174242424 18.73046875  1.54545454545455 18.1163194444444  1.54545454545455 17.3958333333333  L 1.54545454545455 5  L 0.386363636363636 5  C 0.273674242424242 5  0.181107954545455 4.9609375  0.108664772727273 4.8828125  C 0.0362215909090909 4.8046875  0 4.70486111111111  0 4.58333333333333  L 0 3.75  C 0 3.62847222222222  0.0362215909090909 3.52864583333333  0.108664772727273 3.45052083333333  C 0.181107954545455 3.37239583333333  0.273674242424242 3.33333333333333  0.386363636363636 3.33333333333333  L 4.1171875 3.33333333333333  L 4.96235795454546 1.15885416666667  C 5.08309659090909 0.837673611111109  5.30042613636364 0.564236111111109  5.61434659090909 0.338541666666667  C 5.92826704545455 0.112847222222221  6.24621212121212 0  6.56818181818182 0  L 10.4318181818182 0  C 10.7537878787879 0  11.0717329545455 0.112847222222221  11.3856534090909 0.338541666666667  C 11.6995738636364 0.564236111111109  11.9169034090909 0.837673611111109  12.0376420454545 1.15885416666667  L 12.8828125 3.33333333333333  L 16.6136363636364 3.33333333333333  C 16.7263257575758 3.33333333333333  16.8188920454545 3.37239583333333  16.8913352272727 3.45052083333333  Z " fill-rule="nonzero" fill="#02a7f0" stroke="none" transform="matrix(1 0 0 1 902 401 )" />
  </g>
</svg>