<?xml version="1.0" encoding="utf-8"?>
<svg version="1.1" xmlns:xlink="http://www.w3.org/1999/xlink" width="30px" height="25px" xmlns="http://www.w3.org/2000/svg">
  <g transform="matrix(1 0 0 1 -235 -519 )">
    <path d="M 28 20.8197787898504  L 29.2453884851873 20.8197787898504  C 29.6143096702068 20.8197787898504  29.8490776970375 20.9200824116244  29.9496925656792 21.1206896551724  C 30.0503074343209 21.3212968987204  29.9888205701509 21.5625677727174  29.7652319731694 21.8445022771633  L 27.6523197316937 24.4795055302537  C 27.4287311347121 24.7614400346996  27.1548351034097 24.9024072869226  26.8306316377865 24.9024072869226  C 26.5064281721632 24.9024072869226  26.2325321408608 24.7614400346996  26.0089435438793 24.4795055302537  L 23.8960313024036 21.8445022771633  C 23.672442705422 21.5625677727174  23.6109558412521 21.3212968987204  23.7115707098938 21.1206896551724  C 23.8121855785355 20.9200824116244  24.0469536053661 20.8197787898504  24.4158747903857 20.8197787898504  L 25.757406372275 20.8197787898504  L 25.757406372275 4.16395575797007  L 24.4158747903857 4.16395575797007  C 24.0469536053661 4.16395575797007  23.8121855785355 4.06365213619605  23.7115707098938 3.86304489264802  C 23.6109558412521 3.66243764909998  23.672442705422 3.42116677510301  23.8960313024036 3.13923227065712  L 26.0089435438793 0.504229017566687  C 26.2325321408608 0.222294513120797  26.5064281721632 0.0813272608978538  26.8306316377865 0.0813272608978538  C 27.1548351034097 0.0813272608978538  27.4287311347121 0.222294513120797  27.6523197316937 0.504229017566687  L 29.7652319731694 3.13923227065712  C 29.9888205701509 3.42116677510301  30.0503074343209 3.66243764909998  29.9496925656792 3.86304489264802  C 29.8490776970375 4.06365213619605  29.6143096702068 4.16395575797007  29.2453884851873 4.16395575797007  L 28 4.16395575797007  L 28 20.8197787898504  Z M 0 0.0325309043591404  L 1.35830072666294 0.0162654521795702  L 2.26383454443823 0.455432661027977  C 2.39798770262717 0.509650834959877  3.57741755170486 0.536759921925831  5.80212409167132 0.536759921925831  C 6.29401900503074 0.536759921925831  7.03186137506987 0.525916287139447  8.01565120178871 0.504229017566687  C 8.99944102850755 0.482541747993925  9.73728339854667 0.471698113207547  10.2291783119061 0.471698113207547  C 10.6316377864729 0.471698113207547  11.2325321408608 0.47440902190414  12.0318613750699 0.479830839297332  C 12.8311906092789 0.485252656690521  13.4320849636669 0.487963565387117  13.8345444382336 0.487963565387117  L 18.7479038569033 0.487963565387117  C 18.8149804359978 0.487963565387117  18.9323644494131 0.49067447408371  19.1000558971492 0.496096291476902  C 19.2677473448854 0.501518108870092  19.3823365008385 0.501518108870092  19.4438233650084 0.496096291476902  C 19.5053102291783 0.49067447408371  19.5947456679709 0.47440902190414  19.7121296813863 0.447299934938192  C 19.8295136948016 0.420190847972238  19.927333705981 0.371394491433527  20.0055897149245 0.300910865322057  C 20.0838457238681 0.230427239210582  20.1676914477362 0.135545434829754  20.2571268865288 0.0162654521795702  L 20.9614309670207 0  C 21.006148686417 0  21.0844046953605 0.00271090869659318  21.1961989938513 0.0081327260897851  C 21.3079932923421 0.0135545434829742  21.3862493012856 0.0162654521795702  21.4309670206819 0.0162654521795702  C 21.4533258803801 1.23075254825417  21.4645053102292 3.05248319236608  21.4645053102292 5.48145738451529  C 21.4645053102292 6.34894816742572  21.4365567356065 6.93992626328345  21.3806595863611 7.25439167208848  C 20.9446618222471 7.40620255909781  20.5645612073784 7.50379527217523  20.2403577417552 7.54716981132076  C 19.9608719955282 7.07004988072001  19.6590273896031 6.37605725439167  19.3348239239799 5.46519193233572  C 19.3012856344326 5.3675992192583  19.2397987702627 5.10735198438517  19.1503633314701 4.68445022771633  C 19.0609278926775 4.26154847104749  18.9798770262717 3.86304489264802  18.9072107322527 3.48893949251789  C 18.8345444382337 3.11483409238777  18.7926215762996 2.92235957492951  18.7814421464505 2.91151594014314  C 18.7143655673561 2.82476686185209  18.6472889882616 2.75699414443722  18.5802124091671 2.7081977878985  C 18.5131358300727 2.65940143135979  18.4264952487423 2.62687052700065  18.3202906651761 2.61060507482108  C 18.2140860816098 2.59433962264151  18.1414197875908 2.58078507915853  18.1022917831191 2.56994144437215  C 18.0631637786473 2.55909780958577  17.9625489100056 2.55638690088918  17.800447177194 2.56180871828237  C 17.6383454443823 2.56723053567556  17.5461151481274 2.56994144437215  17.5237562884293 2.56994144437215  C 17.333705980995 2.56994144437215  16.9619899385131 2.56723053567556  16.4086081609838 2.56180871828237  C 15.8552263834544 2.55638690088918  15.4387926215763 2.55367599219258  15.1593068753494 2.55367599219258  C 14.8798211291224 2.55367599219258  14.5220793739519 2.56451962697896  14.0860816098379 2.58620689655172  C 13.6500838457239 2.60789416612448  13.2532140860816 2.64042507048362  12.8954723309111 2.68379960962915  C 12.7948574622694 3.56213402732596  12.7501397428731 4.29950119279983  12.7613191727222 4.89590110605075  C 12.7613191727222 5.9152027759705  12.7724986025713 8.0188679245283  12.7948574622694 11.2068965517241  C 12.8172163219676 14.39492517892  12.8283957518167 16.8618520928215  12.8283957518167 18.6076772934288  C 12.8283957518167 18.7811754500108  12.8144214645053 19.1688353936239  12.7864728898826 19.7706571242681  C 12.7585243152599 20.3724788549122  12.7585243152599 20.8685751463891  12.7864728898826 21.2589459986988  C 12.8144214645053 21.6493168510085  12.884292901062 22.0234222511386  12.9960871995528 22.3812621990891  C 13.4432643935159 22.6089785296031  14.1363890441587 22.8394057688137  15.0754611514813 23.0725439167209  C 16.0145332588038 23.3056820646281  16.6852990497485 23.5090002168727  17.0877585243153 23.6824983734548  C 17.1436556735606 24.11624376491  17.1716042481833 24.3873346345695  17.1716042481833 24.4957709824333  C 17.1716042481833 24.6475818694426  17.1548351034097 24.8048145738452  17.1212968138625 24.9674690956409  L 16.5511458915595 24.9837345478204  C 15.7015092230296 25.0054218173932  14.4829513694802 24.9620472782477  12.8954723309111 24.8536109303839  C 11.3079932923421 24.7451745825201  10.1509223029625 24.6909564085882  9.4242593627725 24.6909564085882  C 8.86528787031862 24.6909564085882  8.02124091671325 24.7397527651269  6.8921185019564 24.8373454782043  C 5.76299608719955 24.9349381912817  4.91335941866965 24.9837345478204  4.34320849636669 24.9837345478204  C 4.30967020681945 24.430709173715  4.29290106204584 24.1487746692691  4.29290106204584 24.1379310344828  L 4.29290106204584 23.9915419648666  C 4.48295136948016 23.6987638256344  4.8267188373393 23.4656256777272  5.32420346562325 23.2921275211451  C 5.82168809390721 23.118629364563  6.37227501397429 22.9613966601605  6.97596422582448 22.8204294079375  C 7.57965343767468 22.6794621557146  8.01565120178871 22.5330730860985  8.28395751816657 22.3812621990891  C 8.49636668529905 21.9258295380612  8.60257126886529 19.8492734764693  8.60257126886529 16.1515940143136  C 8.60257126886529 15.0563869008892  8.58580212409167 13.4135762307526  8.55226383454444 11.2231620039037  C 8.51872554499721 9.03274777705487  8.50195640022359 7.38993710691824  8.50195640022359 6.29472999349382  L 8.50195640022359 4.39167208848406  C 8.50195640022359 4.3699848189113  8.50475125768586 4.28594664931685  8.5103409726104 4.13955757970071  C 8.51593068753493 3.99316851008458  8.5187255449972 3.85762307525482  8.5187255449972 3.73292127521145  C 8.5187255449972 3.60821947516808  8.51313583007267 3.46996313164173  8.50195640022359 3.3181522446324  C 8.49077697037451 3.16634135762307  8.47400782560089 3.03621774018651  8.45164896590274 2.92778139232271  C 8.42929010620458 2.8193450444589  8.40134153158189 2.74343960095424  8.36780324203466 2.70006506180872  C 8.2448295136948 2.56994144437215  7.33929569591951 2.50487963565387  5.65120178870878 2.50487963565387  C 5.28228060368921 2.50487963565387  4.7624371157071 2.56994144437215  4.09167132476244 2.70006506180872  C 3.42090553381778 2.83018867924528  2.97372833985467 2.97115593146823  2.75013974287311 3.12296681847755  C 2.53773057574064 3.2639340707005  2.34768026830632 3.65701583170679  2.17998882057015 4.30221210149642  C 2.01229737283399 4.94740837128605  1.83622135271101 5.54923010193016  1.65176076020123 6.10767729342876  C 1.46730016769145 6.66612448492735  1.22973728339855 6.95619171546302  0.939072107322527 6.97787898503579  C 0.469536053661263 6.69594448058989  0.156512017887088 6.45738451528952  0 6.26219908913468  L 0 0.0325309043591404  Z " fill-rule="nonzero" fill="#02a7f0" stroke="none" transform="matrix(1 0 0 1 235 519 )" />
  </g>
</svg>