<?xml version="1.0" encoding="utf-8"?>
<svg version="1.1" xmlns:xlink="http://www.w3.org/1999/xlink" width="30px" height="30px" xmlns="http://www.w3.org/2000/svg">
  <g transform="matrix(1 0 0 1 -323 -519 )">
    <path d="M 9.125 6.09375  C 9.70833333333333 6.82291666666666  10 7.70833333333333  10 8.75  C 10 9.79166666666666  9.70833333333333 10.6770833333333  9.125 11.40625  C 8.54166666666667 12.1354166666667  7.83333333333333 12.5  7 12.5  C 6.16666666666667 12.5  5.45833333333333 12.1354166666667  4.875 11.40625  C 4.29166666666667 10.6770833333333  4 9.79166666666666  4 8.75  C 4 7.70833333333333  4.29166666666667 6.82291666666666  4.875 6.09375  C 5.45833333333333 5.36458333333333  6.16666666666667 5  7 5  C 7.83333333333333 5  8.54166666666667 5.36458333333333  9.125 6.09375  Z M 19.5 8.125  L 26 16.25  L 26 25  L 4 25  L 4 21.25  L 9 15  L 11.5 18.125  L 19.5 8.125  Z M 27.8515625 2.685546875  C 27.7526041666667 2.56184895833333  27.6354166666667 2.5  27.5 3  L 2.5 3  C 2.36458333333333 2.5  2.24739583333333 2.56184895833333  2.1484375 2.685546875  C 2.04947916666667 2.80924479166666  2 2.95572916666666  2 3.125  L 2 26.875  C 2 27.0442708333333  2.04947916666667 27.1907552083333  2.1484375 27.314453125  C 2.24739583333333 27.4381510416667  2.36458333333333 27.5  2.5 27  L 27.5 27  C 27.6354166666667 27.5  27.7526041666667 27.4381510416667  27.8515625 27.314453125  C 27.9505208333333 27.1907552083333  28 27.0442708333333  28 26.875  L 28 3.125  C 28 2.95572916666666  27.9505208333333 2.80924479166666  27.8515625 2.685546875  Z M 29.265625 0.917968750000001  C 29.7552083333333 1.52994791666667  30 2.265625  30 3.125  L 30 26.875  C 30 27.734375  29.7552083333333 28.4700520833333  29.265625 29.08203125  C 28.7760416666667 29.6940104166667  28.1875 30  27.5 30  L 2.5 30  C 1.8125 30  1.22395833333333 29.6940104166667  0.734375 29.08203125  C 0.244791666666667 28.4700520833333  0 27.734375  0 26.875  L 0 3.125  C 0 2.265625  0.244791666666667 1.52994791666667  0.734375 0.917968750000001  C 1.22395833333333 0.30598958333333  1.8125 0  2.5 0  L 27.5 0  C 28.1875 0  28.7760416666667 0.30598958333333  29.265625 0.917968750000001  Z " fill-rule="nonzero" fill="#02a7f0" stroke="none" transform="matrix(1 0 0 1 323 519 )" />
  </g>
</svg>