<?xml version="1.0" encoding="utf-8"?>
<svg version="1.1" xmlns:xlink="http://www.w3.org/1999/xlink" width="78px" height="74px" xmlns="http://www.w3.org/2000/svg">
  <g transform="matrix(1 0 0 1 -859 -489 )">
    <path d="M 14.1818181818182 53.8181818181818  L 21.2727272727273 53.8181818181818  L 21.2727272727273 60.5454545454545  L 14.1818181818182 60.5454545454545  L 14.1818181818182 53.8181818181818  Z M 14.1818181818182 13.4545454545455  L 21.2727272727273 13.4545454545455  L 21.2727272727273 20.1818181818182  L 14.1818181818182 20.1818181818182  L 14.1818181818182 13.4545454545455  Z M 56.7272727272727 13.4545454545455  L 63.8181818181818 13.4545454545455  L 63.8181818181818 20.1818181818182  L 56.7272727272727 20.1818181818182  L 56.7272727272727 13.4545454545455  Z M 7 47  L 7 67  L 29 67  L 29 47  L 7 47  Z M 7 7  L 7 27  L 29 27  L 29 7  L 7 7  Z M 49 7  L 49 27  L 71 27  L 71 7  L 49 7  Z M 0 40  L 36 40  L 36 74  L 0 74  L 0 40  Z M 56.7272727272727 67.2727272727273  L 63.8181818181818 67.2727272727273  L 63.8181818181818 74  L 56.7272727272727 74  L 56.7272727272727 67.2727272727273  Z M 70.9090909090909 67.2727272727273  L 78 67.2727272727273  L 78 74  L 70.9090909090909 74  L 70.9090909090909 67.2727272727273  Z M 70.9090909090909 40.3636363636364  L 78 40.3636363636364  L 78 60  L 56.7272727272727 60  L 56.7272727272727 53.8181818181818  L 49 53.8181818181818  L 49 74  L 42 74  L 42 40  L 63.8181818181818 40  L 63.8181818181818 47.0909090909091  L 70.9090909090909 47.0909090909091  L 70.9090909090909 40.3636363636364  Z M 0 0  L 36 0  L 36 34  L 0 34  L 0 0  Z M 42 0  L 78 0  L 78 34  L 42 34  L 42 0  Z " fill-rule="nonzero" fill="#02a7f0" stroke="none" transform="matrix(1 0 0 1 859 489 )" />
  </g>
</svg>