<?xml version="1.0" encoding="utf-8"?>
<svg version="1.1" xmlns:xlink="http://www.w3.org/1999/xlink" width="79px" height="75px" xmlns="http://www.w3.org/2000/svg">
  <g transform="matrix(1 0 0 1 -727 -489 )">
    <path d="M 24.0291666666667 15.234375  C 25.5652777777778 17.0572916666667  26.3333333333333 19.2708333333333  26.3333333333333 21.875  C 26.3333333333333 24.4791666666667  25.5652777777778 26.6927083333333  24.0291666666667 28.515625  C 22.4930555555556 30.3385416666667  20.6277777777778 31.25  18.4333333333333 31.25  C 16.2388888888889 31.25  14.3736111111111 30.3385416666667  12.8375 28.515625  C 11.3013888888889 26.6927083333333  10.5333333333333 24.4791666666667  10.5333333333333 21.875  C 10.5333333333333 19.2708333333333  11.3013888888889 17.0572916666667  12.8375 15.234375  C 14.3736111111111 13.4114583333333  16.2388888888889 12.5  18.4333333333333 12.5  C 20.6277777777778 12.5  22.4930555555556 13.4114583333333  24.0291666666667 15.234375  Z M 51.35 20.3125  L 68 40.625  L 68 62  L 10.5333333333333 62  L 10.5333333333333 53.125  L 23.7 37.5  L 30.2833333333333 45.3125  L 51.35 20.3125  Z M 73.3424479166667 6.7138671875  C 73.0818576388889 6.40462239583333  72.7732638888889 6.25  72.4166666666667 7  L 6.58333333333333 7  C 6.22673611111111 6.25  5.91814236111111 6.40462239583333  5.65755208333333 6.7138671875  C 5.39696180555556 7.02311197916666  5.26666666666667 7.38932291666666  6 7.8125  L 6 67.1875  C 5.26666666666667 67.6106770833333  5.39696180555556 67.9768880208333  5.65755208333333 68.2861328125  C 5.91814236111111 68.5953776041667  6.22673611111111 68.75  6.58333333333333 68  L 72.4166666666667 68  C 72.7732638888889 68.75  73.0818576388889 68.5953776041667  73.3424479166667 68.2861328125  C 73.6030381944445 67.9768880208333  73.7333333333333 67.6106770833333  73 67.1875  L 73 7.8125  C 73.7333333333333 7.38932291666666  73.6030381944445 7.02311197916666  73.3424479166667 6.7138671875  Z M 77.0661458333333 2.294921875  C 78.3553819444444 3.82486979166666  79 5.6640625  79 7.8125  L 79 67.1875  C 79 69.3359375  78.3553819444444 71.1751302083333  77.0661458333333 72.705078125  C 75.7769097222222 74.2350260416667  74.2270833333333 75  72.4166666666667 75  L 6.58333333333333 75  C 4.77291666666667 75  3.22309027777778 74.2350260416667  1.93385416666667 72.705078125  C 0.644618055555556 71.1751302083333  0 69.3359375  0 67.1875  L 0 7.8125  C 0 5.6640625  0.644618055555556 3.82486979166666  1.93385416666667 2.294921875  C 3.22309027777778 0.764973958333326  4.77291666666667 0  6.58333333333333 0  L 72.4166666666667 0  C 74.2270833333333 0  75.7769097222222 0.764973958333326  77.0661458333333 2.294921875  Z " fill-rule="nonzero" fill="#02a7f0" stroke="none" transform="matrix(1 0 0 1 727 489 )" />
  </g>
</svg>