<?xml version="1.0" encoding="utf-8"?>
<svg version="1.1" xmlns:xlink="http://www.w3.org/1999/xlink" width="27px" height="25px" xmlns="http://www.w3.org/2000/svg">
  <g transform="matrix(1 0 0 1 -57 -303 )">
    <path d="M 26.5962288686606 10.3055916775033  L 24.1736020806242 12.5  L 26.5962288686606 14.6944083224967  C 26.9473342002601 14.9978326831383  27.0643693107932 15.3771131339402  26.9473342002601 15.8322496749025  C 26.8068920676203 16.2765496315561  26.5026007802341 16.5528825314261  26.0344603381014 16.6612483745124  L 22.7340702210663 17.4414824447334  L 23.6644993498049 20.4648894668401  C 23.8049414824447 20.9091894234937  23.6937581274382 21.2884698742956  23.3309492847854 21.6027308192458  C 22.9915474642393 21.9386649328132  22.5819245773732 22.0416124837451  22.1020806241873 21.9115734720416  L 18.8368010403121 21.0500650195059  L 17.9941482444733 24.1059817945384  C 17.8771131339402 24.5394451668834  17.5786736020806 24.8211963589077  17.0988296488947 24.9512353706112  C 16.9583875162549 24.9729085392284  16.8472041612484 24.9837451235371  16.7652795838752 24.9837451235371  C 16.4024707412224 24.9837451235371  16.1040312093628 24.8645426961422  15.8699609882965 24.6261378413524  L 13.5 22.3829648894668  L 11.1300390117035 24.6261378413524  C 10.8023407022107 24.9512353706112  10.3927178153446 25.0596012136974  9.90117035110533 24.9512353706112  C 9.42132639791938 24.8320329432163  9.12288686605982 24.550281751192  9.00585175552666 24.1059817945384  L 8.16319895968791 21.0500650195059  L 4.89791937581274 21.9115734720416  C 4.41807542262679 22.0416124837451  4.00845253576073 21.9386649328132  3.66905071521456 21.6027308192458  C 3.30624187256177 21.2884698742956  3.19505851755527 20.9091894234937  3.33550065019506 20.4648894668401  L 4.26592977893368 17.4414824447334  L 0.96553966189857 16.6612483745124  C 0.49739921976593 16.5528825314261  0.193107932379714 16.2765496315561  0.052665799739922 15.8322496749025  C -0.064369310793238 15.3771131339402  0.052665799739922 14.9978326831383  0.403771131339402 14.6944083224967  L 2.82639791937581 12.5  L 0.403771131339402 10.3055916775033  C 0.052665799739922 10.0021673168617  -0.064369310793238 9.62288686605982  0.052665799739922 9.16775032509753  C 0.193107932379714 8.72345036844387  0.49739921976593 8.44711746857391  0.96553966189857 8.33875162548765  L 4.26592977893368 7.55851755526658  L 3.33550065019506 4.53511053315995  C 3.19505851755527 4.09081057650628  3.30624187256177 3.71153012570438  3.66905071521456 3.39726918075423  C 4.00845253576073 3.06133506718682  4.41807542262679 2.95838751625488  4.89791937581274 3.08842652795839  L 8.16319895968791 3.94993498049415  L 9.00585175552666 0.894018205461639  C 9.12288686605982 0.449718248807973  9.42132639791938 0.173385348938013  9.90117035110533 0.0650195058517544  C 10.3810143042913 -0.0650195058517544  10.7906371911573 0.0379280450801905  11.1300390117035 0.373862158647595  L 13.5 2.6332899869961  L 15.8699609882965 0.373862158647595  C 16.2093628088427 0.0487646293888172  16.6189856957087 -0.0541829215431333  17.0988296488947 0.0650195058517544  C 17.5786736020806 0.173385348938013  17.8771131339402 0.449718248807973  17.9941482444733 0.894018205461639  L 18.8368010403121 3.94993498049415  L 22.1020806241873 3.08842652795839  C 22.5819245773732 2.95838751625488  22.9915474642393 3.06133506718682  23.3309492847854 3.39726918075423  C 23.6937581274382 3.71153012570438  23.8049414824447 4.09081057650628  23.6644993498049 4.53511053315995  L 22.7340702210663 7.55851755526658  L 26.0344603381014 8.33875162548765  C 26.5026007802341 8.44711746857391  26.8068920676203 8.72345036844387  26.9473342002601 9.16775032509753  C 27.0643693107932 9.62288686605982  26.9473342002601 10.0021673168617  26.5962288686606 10.3055916775033  Z " fill-rule="nonzero" fill="#cccccc" stroke="none" transform="matrix(1 0 0 1 57 303 )" />
  </g>
</svg>