<?xml version="1.0" encoding="utf-8"?>
<svg version="1.1" xmlns:xlink="http://www.w3.org/1999/xlink" width="23px" height="23px" xmlns="http://www.w3.org/2000/svg">
  <g transform="matrix(1 0 0 1 -35 -255 )">
    <path d="M 22.6560468140442 9.48114434330299  L 20.5923276983095 11.5  L 22.6560468140442 13.518855656697  C 22.9551365409623 13.7980060684872  23.0548331166016 14.146944083225  22.9551365409623 14.5656697009103  C 22.8355006501951 14.9744256610316  22.5762895535327 15.228651928912  22.1775032509753 15.3283485045514  L 19.3660598179454 16.0461638491547  L 20.1586475942783 18.8276983094928  C 20.2782834850455 19.2364542696142  20.1835717381881 19.585392284352  19.8745123537061 19.8745123537061  C 19.585392284352 20.1835717381881  19.2364542696142 20.2782834850455  18.8276983094928 20.1586475942783  L 16.0461638491547 19.3660598179454  L 15.3283485045514 22.1775032509753  C 15.228651928912 22.5762895535327  14.9744256610316 22.8355006501951  14.5656697009103 22.9551365409623  C 14.446033810143 22.9750758560902  14.3513220632857 22.9850455136541  14.2815344603381 22.9850455136541  C 13.9724750758561 22.9850455136541  13.7182488079757 22.8753792804508  13.518855656697 22.6560468140442  L 11.5 20.5923276983095  L 9.48114434330299 22.6560468140442  C 9.20199393151279 22.9551365409623  8.85305591677503 23.0548331166016  8.43433029908973 22.9551365409623  C 8.02557433896836 22.845470307759  7.77134807108799 22.5862592110967  7.67165149544863 22.1775032509753  L 6.95383615084525 19.3660598179454  L 4.17230169050715 20.1586475942783  C 3.76354573038578 20.2782834850455  3.41460771564803 20.1835717381881  3.12548764629389 19.8745123537061  C 2.81642826181188 19.585392284352  2.72171651495449 19.2364542696142  2.84135240572172 18.8276983094928  L 3.63394018205462 16.0461638491547  L 0.822496749024707 15.3283485045514  C 0.423710446467274 15.228651928912  0.164499349804941 14.9744256610316  0.0448634590377113 14.5656697009103  C -0.0548331166016472 14.146944083225  0.0448634590377113 13.7980060684872  0.343953185955787 13.518855656697  L 2.40767230169051 11.5  L 0.343953185955787 9.48114434330299  C 0.0448634590377113 9.20199393151279  -0.0548331166016472 8.85305591677503  0.0448634590377113 8.43433029908973  C 0.164499349804941 8.02557433896836  0.423710446467274 7.77134807108799  0.822496749024707 7.67165149544864  L 3.63394018205462 6.95383615084525  L 2.84135240572172 4.17230169050715  C 2.72171651495449 3.76354573038578  2.81642826181188 3.41460771564803  3.12548764629389 3.12548764629389  C 3.41460771564803 2.81642826181188  3.76354573038578 2.72171651495449  4.17230169050715 2.84135240572172  L 6.95383615084525 3.63394018205462  L 7.67165149544863 0.822496749024707  C 7.77134807108799 0.413740788903335  8.02557433896836 0.159514521022972  8.43433029908973 0.0598179453836141  C 8.8430862592111 -0.0598179453836141  9.19202427394885 0.0348938014737753  9.48114434330299 0.343953185955787  L 11.5 2.42262678803641  L 13.518855656697 0.343953185955787  C 13.8079757260511 0.0448634590377118  14.1569137407889 -0.0498482878196826  14.5656697009103 0.0598179453836141  C 14.9744256610316 0.159514521022972  15.228651928912 0.413740788903335  15.3283485045514 0.822496749024707  L 16.0461638491547 3.63394018205462  L 18.8276983094928 2.84135240572172  C 19.2364542696142 2.72171651495449  19.585392284352 2.81642826181188  19.8745123537061 3.12548764629389  C 20.1835717381881 3.41460771564803  20.2782834850455 3.76354573038578  20.1586475942783 4.17230169050715  L 19.3660598179454 6.95383615084525  L 22.1775032509753 7.67165149544864  C 22.5762895535327 7.77134807108799  22.8355006501951 8.02557433896836  22.9551365409623 8.43433029908973  C 23.0548331166016 8.85305591677503  22.9551365409623 9.20199393151279  22.6560468140442 9.48114434330299  Z " fill-rule="nonzero" fill="#cccccc" stroke="none" transform="matrix(1 0 0 1 35 255 )" />
  </g>
</svg>