<?xml version="1.0" encoding="utf-8"?>
<svg version="1.1" xmlns:xlink="http://www.w3.org/1999/xlink" width="42px" height="34px" xmlns="http://www.w3.org/2000/svg">
  <g transform="matrix(1 0 0 1 -1204 -513 )">
    <path d="M 30.2127403846154 11.9048295454545  C 30.5324519230769 11.5989583333333  30.6923076923077 11.2367424242424  30.6923076923077 10.8181818181818  C 30.6923076923077 10.3996212121212  30.5324519230769 10.0374053030303  30.2127403846154 9.73153409090909  C 29.8930288461539 9.42566287878788  29.5144230769231 9.27272727272727  29.0769230769231 9.27272727272727  L 25.8461538461538 9.27272727272727  L 25.8461538461538 6.18181818181818  C 25.8461538461538 5.76325757575757  25.6862980769231 5.40104166666666  25.3665865384615 5.09517045454546  C 25.046875 4.78929924242424  24.6682692307692 4.63636363636364  24.2307692307692 4.63636363636364  C 23.7932692307692 4.63636363636364  23.4146634615385 4.78929924242424  23.0949519230769 5.09517045454546  C 22.7752403846154 5.40104166666666  22.6153846153846 5.76325757575757  22.6153846153846 6.18181818181818  L 22.6153846153846 9.27272727272727  L 19.3846153846154 9.27272727272727  C 18.9471153846154 9.27272727272727  18.5685096153846 9.42566287878788  18.2487980769231 9.73153409090909  C 17.9290865384615 10.0374053030303  17.7692307692308 10.3996212121212  17.7692307692308 10.8181818181818  C 17.7692307692308 11.2367424242424  17.9290865384615 11.5989583333333  18.2487980769231 11.9048295454545  C 18.5685096153846 12.2107007575758  18.9471153846154 12.3636363636364  19.3846153846154 12.3636363636364  L 22.6153846153846 12.3636363636364  L 22.6153846153846 15.4545454545455  C 22.6153846153846 15.8731060606061  22.7752403846154 16.235321969697  23.0949519230769 16.5411931818182  C 23.4146634615385 16.8470643939394  23.7932692307692 17  24.2307692307692 17  C 24.6682692307692 17  25.046875 16.8470643939394  25.3665865384615 16.5411931818182  C 25.6862980769231 16.235321969697  25.8461538461538 15.8731060606061  25.8461538461538 15.4545454545455  L 25.8461538461538 12.3636363636364  L 29.0769230769231 12.3636363636364  C 29.5144230769231 12.3636363636364  29.8930288461539 12.2107007575758  30.2127403846154 11.9048295454545  Z M 15.2073317307692 28.7237215909091  C 15.8383413461538 29.3274147727273  16.1538461538462 30.0558712121212  16.1538461538462 30.9090909090909  C 16.1538461538462 31.7623106060606  15.8383413461538 32.4907670454545  15.2073317307692 33.0944602272727  C 14.5763221153846 33.6981534090909  13.8149038461538 34  12.9230769230769 34  C 12.03125 34  11.2698317307692 33.6981534090909  10.6388221153846 33.0944602272727  C 10.0078125 32.4907670454545  9.69230769230769 31.7623106060606  9.69230769230769 30.9090909090909  C 9.69230769230769 30.0558712121212  10.0078125 29.3274147727273  10.6388221153846 28.7237215909091  C 11.2698317307692 28.1200284090909  12.03125 27.8181818181818  12.9230769230769 27.8181818181818  C 13.8149038461538 27.8181818181818  14.5763221153846 28.1200284090909  15.2073317307692 28.7237215909091  Z M 37.8227163461538 28.7237215909091  C 38.4537259615385 29.3274147727273  38.7692307692308 30.0558712121212  38.7692307692308 30.9090909090909  C 38.7692307692308 31.7623106060606  38.4537259615385 32.4907670454545  37.8227163461538 33.0944602272727  C 37.1917067307692 33.6981534090909  36.4302884615385 34  35.5384615384615 34  C 34.6466346153846 34  33.8852163461538 33.6981534090909  33.2542067307692 33.0944602272727  C 32.6231971153846 32.4907670454545  32.3076923076923 31.7623106060606  32.3076923076923 30.9090909090909  C 32.3076923076923 30.0558712121212  32.6231971153846 29.3274147727273  33.2542067307692 28.7237215909091  C 33.8852163461538 28.1200284090909  34.6466346153846 27.8181818181818  35.5384615384615 27.8181818181818  C 36.4302884615385 27.8181818181818  37.1917067307692 28.1200284090909  37.8227163461538 28.7237215909091  Z M 41.5204326923077 3.54971590909091  C 41.8401442307692 3.85558712121212  42 4.21780303030303  42 4.63636363636364  L 42 17  C 42 17.3863636363636  41.8653846153846 17.7284564393939  41.5961538461538 18.0262784090909  C 41.3269230769231 18.3241003787879  40.9819711538462 18.4971590909091  40.5612980769231 18.5454545454545  L 14.2103365384615 21.4914772727273  C 14.2271634615385 21.6041666666667  14.2650240384615 21.7772253787879  14.3239182692308 22.0106534090909  C 14.3828125 22.2440814393939  14.4332932692308 22.4573863636364  14.4753605769231 22.6505681818182  C 14.5174278846154 22.84375  14.5384615384615 23.0208333333333  14.5384615384615 23.1818181818182  C 14.5384615384615 23.4393939393939  14.3365384615385 23.9545454545455  13.9326923076923 24.7272727272727  L 37.1538461538462 24.7272727272727  C 37.5913461538462 24.7272727272727  37.9699519230769 24.8802083333333  38.2896634615385 25.1860795454545  C 38.609375 25.4919507575758  38.7692307692308 25.8541666666667  38.7692307692308 26.2727272727273  C 38.7692307692308 26.6912878787879  38.609375 27.0535037878788  38.2896634615385 27.359375  C 37.9699519230769 27.6652462121212  37.5913461538462 27.8181818181818  37.1538461538462 27.8181818181818  L 11.3076923076923 27.8181818181818  C 10.8701923076923 27.8181818181818  10.4915865384615 27.6652462121212  10.171875 27.359375  C 9.85216346153846 27.0535037878788  9.69230769230769 26.6912878787879  9.69230769230769 26.2727272727273  C 9.69230769230769 26.0473484848485  9.78485576923077 25.7294034090909  9.96995192307692 25.3188920454545  C 10.1550480769231 24.9083806818182  10.4032451923077 24.4294507575758  10.7145432692308 23.8821022727273  C 11.0258413461538 23.3347537878788  11.1983173076923 23.0288825757576  11.2319711538462 22.9644886363636  L 6.76442307692308 3.09090909090909  L 1.61538461538462 3.09090909090909  C 1.17788461538462 3.09090909090909  0.799278846153846 2.93797348484848  0.479567307692308 2.63210227272727  C 0.159855769230769 2.32623106060606  0 1.96401515151515  0 1.54545454545454  C 0 1.12689393939394  0.159855769230769 0.764678030303026  0.479567307692308 0.45880681818182  C 0.799278846153846 0.152935606060603  1.17788461538462 0  1.61538461538462 0  L 8.07692307692308 0  C 8.34615384615385 0  8.5859375 0.0523200757575735  8.79627403846154 0.156960227272728  C 9.00661057692308 0.261600378787879  9.17487980769231 0.386363636363636  9.30108173076923 0.53125  C 9.42728365384615 0.676136363636364  9.53665865384616 0.873342803030298  9.62920673076923 1.12286931818182  C 9.72175480769231 1.37239583333333  9.78485576923077 1.58570075757575  9.81850961538462 1.76278409090909  C 9.85216346153846 1.93986742424242  9.8984375 2.17732007575757  9.95733173076923 2.47514204545454  C 10.0162259615385 2.77296401515151  10.0540865384615 2.97821969696969  10.0709134615385 3  L 40.3846153846154 3  C 40.8221153846154 3.09090909090909  41.2007211538462 3.24384469696969  41.5204326923077 3.54971590909091  Z " fill-rule="nonzero" fill="#2a82e4" stroke="none" transform="matrix(1 0 0 1 1204 513 )" />
  </g>
</svg>