<?xml version="1.0" encoding="utf-8"?>
<svg version="1.1" xmlns:xlink="http://www.w3.org/1999/xlink" width="25px" height="25px" xmlns="http://www.w3.org/2000/svg">
  <g transform="matrix(1 0 0 1 -1380 -357 )">
    <path d="M 1392.5 357  C 1399.5 357  1405 362.5  1405 369.5  C 1405 376.5  1399.5 382  1392.5 382  C 1385.5 382  1380 376.5  1380 369.5  C 1380 362.5  1385.5 357  1392.5 357  Z " fill-rule="nonzero" fill="#ffffff" stroke="none" />
    <path d="M 1392.5 357.5  C 1399.22 357.5  1404.5 362.78  1404.5 369.5  C 1404.5 376.22  1399.22 381.5  1392.5 381.5  C 1385.78 381.5  1380.5 376.22  1380.5 369.5  C 1380.5 362.78  1385.78 357.5  1392.5 357.5  Z " stroke-width="1" stroke="#797979" fill="none" />
  </g>
</svg>