<?xml version="1.0" encoding="utf-8"?>
<svg version="1.1" xmlns:xlink="http://www.w3.org/1999/xlink" width="480px" height="32px" xmlns="http://www.w3.org/2000/svg">
  <g transform="matrix(1 0 0 1 -21 -126 )">
    <path d="M 22 130  A 3 3 0 0 1 25 127 L 497 127  A 3 3 0 0 1 500 130 L 500 154  A 3 3 0 0 1 497 157 L 25 157  A 3 3 0 0 1 22 154 L 22 130  Z " fill-rule="nonzero" fill="#ffffff" stroke="none" />
    <path d="M 21.5 130  A 3.5 3.5 0 0 1 25 126.5 L 497 126.5  A 3.5 3.5 0 0 1 500.5 130 L 500.5 154  A 3.5 3.5 0 0 1 497 157.5 L 25 157.5  A 3.5 3.5 0 0 1 21.5 154 L 21.5 130  Z " stroke-width="1" stroke-dasharray="9,4" stroke="#d9d9d9" fill="none" stroke-dashoffset="0.5" />
  </g>
</svg>