<?xml version="1.0" encoding="utf-8"?>
<svg version="1.1" xmlns:xlink="http://www.w3.org/1999/xlink" width="88px" height="32px" xmlns="http://www.w3.org/2000/svg">
  <g transform="matrix(1 0 0 1 -219 -78 )">
    <path d="M 220 82  A 3 3 0 0 1 223 79 L 303 79  A 3 3 0 0 1 306 82 L 306 106  A 3 3 0 0 1 303 109 L 223 109  A 3 3 0 0 1 220 106 L 220 82  Z " fill-rule="nonzero" fill="#ffffff" stroke="none" />
    <path d="M 219.5 82  A 3.5 3.5 0 0 1 223 78.5 L 303 78.5  A 3.5 3.5 0 0 1 306.5 82 L 306.5 106  A 3.5 3.5 0 0 1 303 109.5 L 223 109.5  A 3.5 3.5 0 0 1 219.5 106 L 219.5 82  Z " stroke-width="1" stroke-dasharray="3,1" stroke="#d9d9d9" fill="none" stroke-dashoffset="0.5" />
  </g>
</svg>