<?xml version="1.0" encoding="utf-8"?>
<svg version="1.1" xmlns:xlink="http://www.w3.org/1999/xlink" width="14px" height="14px" xmlns="http://www.w3.org/2000/svg">
  <g transform="matrix(1 0 0 1 -1436 -484 )">
    <path d="M 1443 484  C 1446.92 484  1450 487.08  1450 491  C 1450 494.92  1446.92 498  1443 498  C 1439.08 498  1436 494.92  1436 491  C 1436 487.08  1439.08 484  1443 484  Z " fill-rule="nonzero" fill="#ffffff" stroke="none" fill-opacity="0" />
    <path d="M 1443 484.5  C 1446.64 484.5  1449.5 487.36  1449.5 491  C 1449.5 494.64  1446.64 497.5  1443 497.5  C 1439.36 497.5  1436.5 494.64  1436.5 491  C 1436.5 487.36  1439.36 484.5  1443 484.5  Z " stroke-width="1" stroke="#d9d9d9" fill="none" />
  </g>
</svg>