<?xml version="1.0" encoding="utf-8"?>
<svg version="1.1" xmlns:xlink="http://www.w3.org/1999/xlink" width="104px" height="104px" xmlns="http://www.w3.org/2000/svg">
  <g transform="matrix(1 0 0 1 -1231 -1286 )">
    <path d="M 1232 1290  A 3 3 0 0 1 1235 1287 L 1331 1287  A 3 3 0 0 1 1334 1290 L 1334 1386  A 3 3 0 0 1 1331 1389 L 1235 1389  A 3 3 0 0 1 1232 1386 L 1232 1290  Z " fill-rule="nonzero" fill="#ffffff" stroke="none" />
    <path d="M 1231.5 1290  A 3.5 3.5 0 0 1 1235 1286.5 L 1331 1286.5  A 3.5 3.5 0 0 1 1334.5 1290 L 1334.5 1386  A 3.5 3.5 0 0 1 1331 1389.5 L 1235 1389.5  A 3.5 3.5 0 0 1 1231.5 1386 L 1231.5 1290  Z " stroke-width="1" stroke-dasharray="9,4" stroke="#d9d9d9" fill="none" stroke-dashoffset="0.5" />
  </g>
</svg>