<?xml version="1.0" encoding="utf-8"?>
<svg version="1.1" xmlns:xlink="http://www.w3.org/1999/xlink" width="14px" height="14px" xmlns="http://www.w3.org/2000/svg">
  <g transform="matrix(1 0 0 1 -1525 -484 )">
    <path d="M 1532 484  C 1535.92 484  1539 487.08  1539 491  C 1539 494.92  1535.92 498  1532 498  C 1528.08 498  1525 494.92  1525 491  C 1525 487.08  1528.08 484  1532 484  Z " fill-rule="nonzero" fill="#ffffff" stroke="none" fill-opacity="0" />
    <path d="M 1532 484.5  C 1535.64 484.5  1538.5 487.36  1538.5 491  C 1538.5 494.64  1535.64 497.5  1532 497.5  C 1528.36 497.5  1525.5 494.64  1525.5 491  C 1525.5 487.36  1528.36 484.5  1532 484.5  Z " stroke-width="1" stroke="#1890ff" fill="none" />
  </g>
</svg>