<?xml version="1.0" encoding="utf-8"?>
<svg version="1.1" xmlns:xlink="http://www.w3.org/1999/xlink" width="438px" height="192px" xmlns="http://www.w3.org/2000/svg">
  <g transform="matrix(1 0 0 1 -1111 -1542 )">
    <path d="M 1112 1548  A 5 5 0 0 1 1117 1543 L 1543 1543  A 5 5 0 0 1 1548 1548 L 1548 1728  A 5 5 0 0 1 1543 1733 L 1117 1733  A 5 5 0 0 1 1112 1728 L 1112 1548  Z " fill-rule="nonzero" fill="#000000" stroke="none" fill-opacity="0.0196078431372549" />
    <path d="M 1111.5 1548  A 5.5 5.5 0 0 1 1117 1542.5 L 1543 1542.5  A 5.5 5.5 0 0 1 1548.5 1548 L 1548.5 1728  A 5.5 5.5 0 0 1 1543 1733.5 L 1117 1733.5  A 5.5 5.5 0 0 1 1111.5 1728 L 1111.5 1548  Z " stroke-width="1" stroke-dasharray="9,4" stroke="#108ee9" fill="none" stroke-dashoffset="0.5" />
  </g>
</svg>