<?xml version="1.0" encoding="utf-8"?>
<svg version="1.1" xmlns:xlink="http://www.w3.org/1999/xlink" width="15px" height="15px" xmlns="http://www.w3.org/2000/svg">
  <defs>
    <mask fill="white" id="clip44">
      <path d="M 0 15  L 0 12.0967741935484  L 0 11.0483870967742  L 0 10.8064516129032  L 0 7.74193548387097  L 0 0  L 15 0  L 15 7.74193548387097  L 15 9.83870967741935  L 15 9.91935483870968  L 15 11.0483870967742  L 15 15  L 0 15  Z " fill-rule="evenodd" />
    </mask>
  </defs>
  <g transform="matrix(1 0 0 1 -497 -279 )">
    <path d="M 0 15  L 0 12.0967741935484  L 0 11.0483870967742  L 0 10.8064516129032  L 0 7.74193548387097  L 0 0  L 15 0  L 15 7.74193548387097  L 15 9.83870967741935  L 15 9.91935483870968  L 15 11.0483870967742  L 15 15  L 0 15  Z " fill-rule="nonzero" fill="#ffffff" stroke="none" transform="matrix(1 0 0 1 497 279 )" />
    <path d="M 0 15  L 0 12.0967741935484  L 0 11.0483870967742  L 0 10.8064516129032  L 0 7.74193548387097  L 0 0  L 15 0  L 15 7.74193548387097  L 15 9.83870967741935  L 15 9.91935483870968  L 15 11.0483870967742  L 15 15  L 0 15  Z " stroke-width="2" stroke="#797979" fill="none" transform="matrix(1 0 0 1 497 279 )" mask="url(#clip44)" />
  </g>
</svg>