<?xml version="1.0" encoding="utf-8"?>
<svg version="1.1" xmlns:xlink="http://www.w3.org/1999/xlink" width="1075px" height="195px" xmlns="http://www.w3.org/2000/svg">
  <g transform="matrix(1 0 0 1 -313 -277 )">
    <path d="M 0 46.9925925925927  L 39.7037037037037 151.822222222222  L 79.4074074074075 155.437037037038  L 119.111111111111 32.5333333333328  L 158.814814814815 61.4518518518526  L 198.518518518519 0  L 238.222222222222 32.5333333333328  L 277.925925925926 140.977777777778  L 317.62962962963 21.6888888888891  L 357.333333333333 104.829629629629  L 397.037037037037 3.6148148148146  L 436.740740740741 133.748148148149  L 476.444444444445 83.1407407407416  L 516.148148148148 25.3037037037036  L 555.851851851852 46.9925925925927  L 595.555555555555 104.829629629629  L 635.259259259259 115.674074074074  L 674.962962962963 151.822222222222  L 714.666666666666 83.1407407407416  L 754.37037037037 79.5259259259255  L 794.074074074074 108.444444444445  L 833.777777777778 83.1407407407416  L 873.481481481481 155.437037037038  L 913.185185185185 68.6814814814818  L 952.888888888889 177.125925925927  L 992.592592592593 155.437037037038  L 1032.2962962963 115.674074074074  L 1072 187.970370370371  " stroke-width="2" stroke="#ff745a" fill="none" transform="matrix(1 0 0 1 314 278 )" />
  </g>
</svg>