<?xml version="1.0" encoding="utf-8"?>
<svg version="1.1" xmlns:xlink="http://www.w3.org/1999/xlink" width="1075px" height="199px" xmlns="http://www.w3.org/2000/svg">
  <g transform="matrix(1 0 0 1 -313 -273 )">
    <path d="M 0 156.02366255144  L 39.7037037037037 66.845679012346  L 79.4074074074075 63.7705761316877  L 119.111111111111 168.324074074074  L 158.814814814815 143.723251028807  L 198.518518518519 196  L 238.222222222222 168.324074074074  L 277.925925925926 76.0709876543207  L 317.62962962963 177.549382716049  L 357.333333333333 106.822016460906  L 397.037037037037 192.924897119342  L 436.740740740741 82.2211934156385  L 476.444444444445 125.272633744856  L 516.148148148148 174.474279835391  L 555.851851851852 156.02366255144  L 595.555555555555 106.822016460906  L 635.259259259259 97.5967078189297  L 674.962962962963 5.34362139917719  L 714.666666666666 125.272633744856  L 754.37037037037 159.098765432099  L 794.074074074074 134.497942386831  L 833.777777777778 156.02366255144  L 873.481481481481 63.7705761316877  L 913.185185185185 137.57304526749  L 952.888888888889 45.319958847737  L 992.592592592593 63.7705761316877  L 1032.2962962963 97.5967078189297  L 1072 36.0946502057609  " stroke-width="2" stroke="#ffc328" fill="none" transform="matrix(1 0 0 1 314 274 )" />
  </g>
</svg>