<?xml version="1.0" encoding="utf-8"?>
<svg version="1.1" xmlns:xlink="http://www.w3.org/1999/xlink" width="201px" height="136px" xmlns="http://www.w3.org/2000/svg">
  <g transform="matrix(1 0 0 1 -273 -486 )">
    <path d="M 273 486  L 474 486  L 474 622  L 273 622  L 273 486  " fill-rule="nonzero" fill="#cccccc" stroke="none" />
    <path d="M 283 496  L 464 496  L 464 612  L 283 612  L 283 496  " fill-rule="nonzero" fill="#ffffff" stroke="none" />
    <path d="M 387.72 526.8  C 382.008 526.8  377.52 522.312  377.52 516.6  C 377.52 510.888  382.008 506.4  387.72 506.4  C 393.432 506.4  397.92 510.888  397.92 516.6  C 397.92 522.312  393.432 526.8  387.72 526.8  " fill-rule="nonzero" fill="#cccccc" stroke="none" />
    <path d="M 287 609  L 287 549.05  L 330.5 521.8  L 391.4 564.749253731343  L 426.2 538.15  L 461 564.749253731343  L 461 609  L 287 609  " fill-rule="nonzero" fill="#169bd5" stroke="none" />
  </g>
</svg>