<?xml version="1.0" encoding="utf-8"?>
<svg version="1.1" xmlns:xlink="http://www.w3.org/1999/xlink" width="255px" height="170px" xmlns="http://www.w3.org/2000/svg">
  <g transform="matrix(1 0 0 1 -306 -373 )">
    <path d="M 306 373  L 561 373  L 561 543  L 306 543  L 306 373  " fill-rule="nonzero" fill="#cccccc" stroke="none" />
    <path d="M 318 385  L 549 385  L 549 531  L 318 531  L 318 385  " fill-rule="nonzero" fill="#ffffff" stroke="none" />
    <path d="M 451.35 424  C 444.21 424  438.6 418.39  438.6 411.25  C 438.6 404.11  444.21 398.5  451.35 398.5  C 458.49 398.5  464.1 404.11  464.1 411.25  C 464.1 418.39  458.49 424  451.35 424  " fill-rule="nonzero" fill="#cccccc" stroke="none" />
    <path d="M 323 527  L 323 451.65  L 378.5 417.4  L 456.2 472.2  L 500.6 437.95  L 545 472.2  L 545 527  L 323 527  " fill-rule="nonzero" fill="#169bd5" stroke="none" />
  </g>
</svg>