<?xml version="1.0" encoding="utf-8"?>
<svg version="1.1" xmlns:xlink="http://www.w3.org/1999/xlink" width="27px" height="15px" xmlns="http://www.w3.org/2000/svg">
  <g transform="matrix(1 0 0 1 -1197 -131 )">
    <path d="M 10.7157190635451 4.27380952380952  L 10.7157190635451 10.2619047619048  L 18 7.28571428571429  L 10.7157190635451 4.27380952380952  Z M 4.06354515050167 0.214285714285714  C 6.5819397993311 0.0714285714285712  9.72742474916388 0  13.5 0  C 15.185618729097 0  16.8135451505017 0.0178571428571428  18.383779264214 0.0535714285714284  C 19.9540133779264 0.089285714285714  21.1053511705686 0.126984126984126  21.8377926421405 0.166666666666666  L 22.9364548494983 0.214285714285714  C 22.9464882943144 0.214285714285714  23.0317725752508 0.220238095238094  23.1923076923077 0.232142857142856  C 23.3528428093645 0.24404761904762  23.4682274247492 0.255952380952382  23.5384615384615 0.267857142857144  C 23.6086956521739 0.279761904761905  23.7265886287625 0.297619047619048  23.8921404682274 0.321428571428572  C 24.0576923076923 0.345238095238096  24.2006688963211 0.376984126984125  24.3210702341137 0.416666666666667  C 24.4414715719064 0.456349206349205  24.5819397993311 0.507936507936506  24.742474916388 0.571428571428571  C 24.9030100334448 0.634920634920633  25.0585284280936 0.712301587301587  25.2090301003344 0.803571428571429  C 25.3595317725753 0.894841269841268  25.505016722408 1  25.6454849498328 1.11904761904762  C 25.7056856187291 1.16666666666667  25.7834448160535 1.24007936507936  25.878762541806 1.33928571428571  C 25.9740802675585 1.43849206349206  26.1195652173913 1.67063492063492  26.3152173913043 2.03571428571429  C 26.5108695652174 2.40079365079365  26.6438127090301 2.8015873015873  26.7140468227425 3.23809523809524  C 26.7943143812709 3.74603174603175  26.8570234113712 4.28769841269841  26.9021739130435 4.86309523809524  C 26.9473244147157 5.43849206349206  26.9749163879599 5.88888888888889  26.9849498327759 6.21428571428571  L 26.9849498327759 6.69047619047619  L 26.9849498327759 8.30952380952381  C 26.994983277592 9.46031746031746  26.9046822742475 10.6111111111111  26.7140468227425 11.7619047619048  C 26.6438127090301 12.1984126984127  26.5183946488294 12.593253968254  26.3377926421405 12.9464285714286  C 26.1571906354515 13.2996031746032  25.9966555183947 13.5436507936508  25.8561872909699 13.6785714285714  L 25.6454849498328 13.8809523809524  C 25.505016722408 14  25.3595317725753 14.1051587301587  25.2090301003344 14.1964285714286  C 25.0585284280936 14.2876984126984  24.9030100334448 14.3630952380952  24.742474916388 14.422619047619  C 24.5819397993311 14.4821428571429  24.4414715719064 14.531746031746  24.3210702341137 14.5714285714286  C 24.2006688963211 14.6111111111111  24.0576923076923 14.6428571428571  23.8921404682274 14.6666666666667  C 23.7265886287625 14.6904761904762  23.6061872909699 14.7083333333333  23.5309364548495 14.7202380952381  C 23.4556856187291 14.7321428571429  23.3403010033445 14.7440476190476  23.1847826086957 14.7559523809524  C 23.0292642140468 14.7678571428571  22.9464882943144 14.7738095238095  22.9364548494983 14.7738095238095  C 20.4180602006689 14.9246031746032  17.2725752508361 15  13.5 15  C 11.4230769230769 14.984126984127  9.6195652173913 14.9583333333333  8.08946488294314 14.922619047619  C 6.55936454849498 14.8869047619048  5.55351170568562 14.8571428571429  5.07190635451505 14.8333333333333  L 4.33444816053512 14.7857142857143  L 3.79264214046823 14.7380952380952  C 3.4314381270903 14.6984126984127  3.15802675585284 14.6587301587302  2.97240802675585 14.6190476190476  C 2.78678929765886 14.5793650793651  2.5309364548495 14.4960317460317  2.20484949832776 14.3690476190476  C 1.87876254180602 14.2420634920635  1.59531772575251 14.0793650793651  1.35451505016722 13.8809523809524  C 1.2943143812709 13.8333333333333  1.21655518394649 13.7599206349206  1.12123745819398 13.6607142857143  C 1.02591973244147 13.5615079365079  0.880434782608696 13.3293650793651  0.684782608695652 12.9642857142857  C 0.489130434782609 12.5992063492063  0.3561872909699 12.1984126984127  0.285953177257525 11.7619047619048  C 0.205685618729097 11.2539682539683  0.142976588628763 10.7123015873016  0.0978260869565217 10.1369047619048  C 0.0526755852842809 9.56150793650793  0.0250836120401338 9.11111111111111  0.0150501672240803 8.78571428571428  L 0.0150501672240803 8.30952380952381  L 0.0150501672240803 6.69047619047619  C 0.00501672240802675 5.53968253968254  0.0953177257525084 4.38888888888889  0.285953177257525 3.23809523809524  C 0.3561872909699 2.8015873015873  0.481605351170569 2.40674603174603  0.662207357859532 2.05357142857143  C 0.842809364548495 1.70039682539682  1.00334448160535 1.45634920634921  1.1438127090301 1.32142857142857  L 1.35451505016722 1.11904761904762  C 1.49498327759197 1  1.64046822742475 0.894841269841268  1.79096989966555 0.803571428571429  C 1.94147157190635 0.712301587301587  2.09698996655518 0.634920634920633  2.25752508361204 0.571428571428571  C 2.4180602006689 0.507936507936506  2.55852842809365 0.456349206349205  2.67892976588629 0.416666666666667  C 2.79933110367893 0.376984126984125  2.94230769230769 0.345238095238096  3.10785953177258 0.321428571428572  C 3.27341137123746 0.297619047619048  3.39130434782609 0.279761904761905  3.46153846153846 0.267857142857144  C 3.53177257525084 0.255952380952382  3.64715719063545 0.24404761904762  3.80769230769231 0.232142857142856  C 3.96822742474916 0.220238095238094  4.05351170568562 0.214285714285714  4.06354515050167 0.214285714285714  Z " fill-rule="nonzero" fill="#212529" stroke="none" transform="matrix(1 0 0 1 1197 131 )" />
  </g>
</svg>