<?xml version="1.0" encoding="utf-8"?>
<svg version="1.1" xmlns:xlink="http://www.w3.org/1999/xlink" width="324px" height="432px" xmlns="http://www.w3.org/2000/svg">
  <defs>
    <filter x="1089px" y="221px" width="324px" height="432px" filterUnits="userSpaceOnUse" id="filter136">
      <feOffset dx="5" dy="5" in="SourceAlpha" result="shadowOffsetInner" />
      <feGaussianBlur stdDeviation="2.5" in="shadowOffsetInner" result="shadowGaussian" />
      <feComposite in2="shadowGaussian" operator="atop" in="SourceAlpha" result="shadowComposite" />
      <feColorMatrix type="matrix" values="0 0 0 0 0.250980392156863  0 0 0 0 0.619607843137255  0 0 0 0 1  0 0 0 0.0980392156862745 0  " in="shadowComposite" />
    </filter>
    <g id="widget137">
      <path d="M 1091 226  A 3 3 0 0 1 1094 223 L 1398 223  A 3 3 0 0 1 1401 226 L 1401 638  A 3 3 0 0 1 1398 641 L 1094 641  A 3 3 0 0 1 1091 638 L 1091 226  Z " fill-rule="nonzero" fill="#ffffff" stroke="none" fill-opacity="0.149019607843137" />
      <path d="M 1090 226  A 4 4 0 0 1 1094 222 L 1398 222  A 4 4 0 0 1 1402 226 L 1402 638  A 4 4 0 0 1 1398 642 L 1094 642  A 4 4 0 0 1 1090 638 L 1090 226  Z " stroke-width="2" stroke="#02a7f0" fill="none" stroke-opacity="0.149019607843137" />
    </g>
  </defs>
  <g transform="matrix(1 0 0 1 -1089 -221 )">
    <use xlink:href="#widget137" filter="url(#filter136)" />
    <use xlink:href="#widget137" />
  </g>
</svg>