<?xml version="1.0" encoding="utf-8"?>
<svg version="1.1" xmlns:xlink="http://www.w3.org/1999/xlink" width="489px" height="140px" xmlns="http://www.w3.org/2000/svg">
  <defs>
    <filter x="516px" y="708px" width="489px" height="140px" filterUnits="userSpaceOnUse" id="filter33">
      <feOffset dx="5" dy="5" in="SourceAlpha" result="shadowOffsetInner" />
      <feGaussianBlur stdDeviation="2.5" in="shadowOffsetInner" result="shadowGaussian" />
      <feComposite in2="shadowGaussian" operator="atop" in="SourceAlpha" result="shadowComposite" />
      <feColorMatrix type="matrix" values="0 0 0 0 0.250980392156863  0 0 0 0 0.619607843137255  0 0 0 0 1  0 0 0 0.0980392156862745 0  " in="shadowComposite" />
    </filter>
    <g id="widget34">
      <path d="M 518 713  A 3 3 0 0 1 521 710 L 990 710  A 3 3 0 0 1 993 713 L 993 833  A 3 3 0 0 1 990 836 L 521 836  A 3 3 0 0 1 518 833 L 518 713  Z " fill-rule="nonzero" fill="#ffffff" stroke="none" fill-opacity="0.149019607843137" />
      <path d="M 517 713  A 4 4 0 0 1 521 709 L 990 709  A 4 4 0 0 1 994 713 L 994 833  A 4 4 0 0 1 990 837 L 521 837  A 4 4 0 0 1 517 833 L 517 713  Z " stroke-width="2" stroke="#02a7f0" fill="none" stroke-opacity="0.149019607843137" />
    </g>
  </defs>
  <g transform="matrix(1 0 0 1 -516 -708 )">
    <use xlink:href="#widget34" filter="url(#filter33)" />
    <use xlink:href="#widget34" />
  </g>
</svg>