<?xml version="1.0" encoding="utf-8"?>
<svg version="1.1" xmlns:xlink="http://www.w3.org/1999/xlink" width="162px" height="112px" xmlns="http://www.w3.org/2000/svg">
  <g transform="matrix(1 0 0 1 -351 -579 )">
    <path d="M 351 579  L 513 579  L 513 691  L 351 691  L 351 579  " fill-rule="nonzero" fill="#cccccc" stroke="none" />
    <path d="M 359 587  L 505 587  L 505 683  L 359 683  L 359 587  " fill-rule="nonzero" fill="#ffffff" stroke="none" />
    <path d="M 443.64 612.6  C 438.936 612.6  435.24 608.904  435.24 604.2  C 435.24 599.496  438.936 595.8  443.64 595.8  C 448.344 595.8  452.04 599.496  452.04 604.2  C 452.04 608.904  448.344 612.6  443.64 612.6  " fill-rule="nonzero" fill="#cccccc" stroke="none" />
    <path d="M 362 680  L 362 630.5  L 397 608  L 446 642.666666666667  L 474 621.5  L 502 642.666666666667  L 502 680  L 362 680  " fill-rule="nonzero" fill="#169bd5" stroke="none" />
  </g>
</svg>