<?xml version="1.0" encoding="utf-8"?>
<svg version="1.1" xmlns:xlink="http://www.w3.org/1999/xlink" width="65px" height="37px" xmlns="http://www.w3.org/2000/svg">
  <g transform="matrix(1 0 0 1 -321 -396 )">
    <path d="M 321 396  L 386 396  L 386 433  L 321 433  L 321 396  " fill-rule="nonzero" fill="#cccccc" stroke="none" />
    <path d="M 324 399  L 383 399  L 383 430  L 324 430  L 324 399  " fill-rule="nonzero" fill="#ffffff" stroke="none" />
    <path d="M 357.575 407.1  C 356.021 407.1  354.8 405.879  354.8 404.325  C 354.8 402.771  356.021 401.55  357.575 401.55  C 359.129 401.55  360.35 402.771  360.35 404.325  C 360.35 405.879  359.129 407.1  357.575 407.1  " fill-rule="nonzero" fill="#cccccc" stroke="none" />
    <path d="M 325 429  L 325 413.05  L 339.25 405.8  L 359.2 419.095384615385  L 370.6 410.15  L 382 419.095384615385  L 382 429  L 325 429  " fill-rule="nonzero" fill="#169bd5" stroke="none" />
  </g>
</svg>