<?xml version="1.0" encoding="utf-8"?>
<svg version="1.1" xmlns:xlink="http://www.w3.org/1999/xlink" width="12px" height="24px" xmlns="http://www.w3.org/2000/svg">
  <g transform="matrix(1 0 0 1 -492 -51 )">
    <path d="M 11.7938144329897 1.44288577154308  C 11.9312714776632 1.60320641282565  12 1.7875751503006  12 1.99599198396794  C 12 2.20440881763527  11.9312714776632 2.38877755511022  11.7938144329897 2.54909819639279  L 3.69072164948454 12  L 11.7938144329897 21.4509018036072  C 11.9312714776632 21.6112224448898  12 21.7955911823647  12 22.0040080160321  C 12 22.2124248496994  11.9312714776632 22.3967935871743  11.7938144329897 22.5571142284569  L 10.7628865979381 23.7595190380762  C 10.6254295532646 23.9198396793587  10.46735395189 24  10.2886597938144 24  C 10.1099656357388 24  9.95189003436426 23.9198396793587  9.81443298969072 23.7595190380762  L 0.206185567010309 12.5531062124248  C 0.0687285223367698 12.3927855711423  0 12.2084168336673  0 12  C 0 11.7915831663327  0.0687285223367698 11.6072144288577  0.206185567010309 11.4468937875752  L 9.81443298969072 0.240480961923848  C 9.95189003436426 0.0801603206412818  10.1099656357388 0  10.2886597938144 0  C 10.46735395189 0  10.6254295532646 0.0801603206412818  10.7628865979381 0.240480961923848  L 11.7938144329897 1.44288577154308  Z " fill-rule="nonzero" fill="#000000" stroke="none" fill-opacity="0.298039215686275" transform="matrix(1 0 0 1 492 51 )" />
  </g>
</svg>