<?xml version="1.0" encoding="utf-8"?>
<svg version="1.1" xmlns:xlink="http://www.w3.org/1999/xlink" width="65px" height="37px" xmlns="http://www.w3.org/2000/svg">
  <g transform="matrix(1 0 0 1 -758 -428 )">
    <path d="M 758 428  L 823 428  L 823 465  L 758 465  L 758 428  " fill-rule="nonzero" fill="#cccccc" stroke="none" />
    <path d="M 761 431  L 820 431  L 820 462  L 761 462  L 761 431  " fill-rule="nonzero" fill="#ffffff" stroke="none" />
    <path d="M 794.575 439.1  C 793.021 439.1  791.8 437.879  791.8 436.325  C 791.8 434.771  793.021 433.55  794.575 433.55  C 796.129 433.55  797.35 434.771  797.35 436.325  C 797.35 437.879  796.129 439.1  794.575 439.1  " fill-rule="nonzero" fill="#cccccc" stroke="none" />
    <path d="M 762 461  L 762 445.05  L 776.25 437.8  L 796.2 451.095384615385  L 807.6 442.15  L 819 451.095384615385  L 819 461  L 762 461  " fill-rule="nonzero" fill="#169bd5" stroke="none" />
  </g>
</svg>