<?xml version="1.0" encoding="utf-8"?>
<svg version="1.1" xmlns:xlink="http://www.w3.org/1999/xlink" width="65px" height="37px" xmlns="http://www.w3.org/2000/svg">
  <g transform="matrix(1 0 0 1 -1134 -408 )">
    <path d="M 1134 408  L 1199 408  L 1199 445  L 1134 445  L 1134 408  " fill-rule="nonzero" fill="#cccccc" stroke="none" />
    <path d="M 1137 411  L 1196 411  L 1196 442  L 1137 442  L 1137 411  " fill-rule="nonzero" fill="#ffffff" stroke="none" />
    <path d="M 1170.575 419.1  C 1169.021 419.1  1167.8 417.879  1167.8 416.325  C 1167.8 414.771  1169.021 413.55  1170.575 413.55  C 1172.129 413.55  1173.35 414.771  1173.35 416.325  C 1173.35 417.879  1172.129 419.1  1170.575 419.1  " fill-rule="nonzero" fill="#cccccc" stroke="none" />
    <path d="M 1138 441  L 1138 425.05  L 1152.25 417.8  L 1172.2 431.095384615385  L 1183.6 422.15  L 1195 431.095384615385  L 1195 441  L 1138 441  " fill-rule="nonzero" fill="#169bd5" stroke="none" />
  </g>
</svg>