<?xml version="1.0" encoding="utf-8"?>
<svg version="1.1" xmlns:xlink="http://www.w3.org/1999/xlink" width="140px" height="181px" xmlns="http://www.w3.org/2000/svg">
  <g transform="matrix(1 0 0 1 -386 -198 )">
    <path d="M 386 198  L 526 198  L 526 379  L 386 379  L 386 198  " fill-rule="nonzero" fill="#cccccc" stroke="none" />
    <path d="M 396 208  L 516 208  L 516 369  L 396 369  L 396 208  " fill-rule="nonzero" fill="#ffffff" stroke="none" />
    <path d="M 469.3 246.15  C 463.42 246.15  458.8 241.53  458.8 235.65  C 458.8 229.77  463.42 225.15  469.3 225.15  C 475.18 225.15  479.8 229.77  479.8 235.65  C 479.8 241.53  475.18 246.15  469.3 246.15  " fill-rule="nonzero" fill="#cccccc" stroke="none" />
    <path d="M 400 366  L 400 281.3  L 428.25 242.8  L 467.8 273.6  L 490.4 265.9  L 513 273.6  L 513 366  L 400 366  " fill-rule="nonzero" fill="#169bd5" stroke="none" />
  </g>
</svg>