<?xml version="1.0" encoding="utf-8"?>
<svg version="1.1" xmlns:xlink="http://www.w3.org/1999/xlink" width="759px" height="242px" xmlns="http://www.w3.org/2000/svg">
  <g transform="matrix(1 0 0 1 -540 -85 )">
    <path d="M 541 91  A 5 5 0 0 1 546 86 L 1293 86  A 5 5 0 0 1 1298 91 L 1298 321  A 5 5 0 0 1 1293 326 L 546 326  A 5 5 0 0 1 541 321 L 541 91  Z " fill-rule="nonzero" fill="#000000" stroke="none" fill-opacity="0.0196078431372549" />
    <path d="M 540.5 91  A 5.5 5.5 0 0 1 546 85.5 L 1293 85.5  A 5.5 5.5 0 0 1 1298.5 91 L 1298.5 321  A 5.5 5.5 0 0 1 1293 326.5 L 546 326.5  A 5.5 5.5 0 0 1 540.5 321 L 540.5 91  Z " stroke-width="1" stroke-dasharray="9,4" stroke="#108ee9" fill="none" stroke-dashoffset="0.5" />
  </g>
</svg>