<?xml version="1.0" encoding="utf-8"?>
<svg version="1.1" xmlns:xlink="http://www.w3.org/1999/xlink" width="943px" height="85px" xmlns="http://www.w3.org/2000/svg">
  <defs>
    <filter x="330px" y="349px" width="943px" height="85px" filterUnits="userSpaceOnUse" id="filter89">
      <feOffset dx="5" dy="5" in="SourceAlpha" result="shadowOffsetInner" />
      <feGaussianBlur stdDeviation="2.5" in="shadowOffsetInner" result="shadowGaussian" />
      <feComposite in2="shadowGaussian" operator="atop" in="SourceAlpha" result="shadowComposite" />
      <feColorMatrix type="matrix" values="0 0 0 0 0.250980392156863  0 0 0 0 0.619607843137255  0 0 0 0 1  0 0 0 0.0980392156862745 0  " in="shadowComposite" />
    </filter>
    <g id="widget90">
      <path d="M 332 354  A 3 3 0 0 1 335 351 L 1258 351  A 3 3 0 0 1 1261 354 L 1261 419  A 3 3 0 0 1 1258 422 L 335 422  A 3 3 0 0 1 332 419 L 332 354  Z " fill-rule="nonzero" fill="#ffffff" stroke="none" fill-opacity="0.149019607843137" />
      <path d="M 331 354  A 4 4 0 0 1 335 350 L 1258 350  A 4 4 0 0 1 1262 354 L 1262 419  A 4 4 0 0 1 1258 423 L 335 423  A 4 4 0 0 1 331 419 L 331 354  Z " stroke-width="2" stroke="#02a7f0" fill="none" stroke-opacity="0.149019607843137" />
    </g>
  </defs>
  <g transform="matrix(1 0 0 1 -330 -349 )">
    <use xlink:href="#widget90" filter="url(#filter89)" />
    <use xlink:href="#widget90" />
  </g>
</svg>