<?xml version="1.0" encoding="utf-8"?>
<svg version="1.1" xmlns:xlink="http://www.w3.org/1999/xlink" width="25px" height="25px" xmlns="http://www.w3.org/2000/svg">
  <g transform="matrix(1 0 0 1 -1306 -315 )">
    <path d="M 24.4062901155327 10.3337828725556  C 24.8020967051776 10.7720836142953  25 11.2834344796584  25 11.8678354686446  C 25 12.4634749381884  24.8020967051776 12.9692065632726  24.4062901155327 13.3850303438975  L 13.9602053915276 24.3762643290627  C 13.5430038510911 24.7920881096876  13.0562687205819 25  12.5 25  C 11.9330338040223 25  11.451647411211 24.7920881096876  11.0558408215661 24.3762643290627  L 0.609756097560976 13.3850303438975  C 0.203252032520325 12.9804450438301  0 12.4747134187458  0 11.8678354686446  C 0 11.2721959991009  0.203252032520325 10.7608451337379  0.609756097560976 10.3337828725556  L 1.79717586649551 9.06945380984491  C 2.21437740693196 8.65363002922005  2.70111253744116 8.44571813890762  3.25738125802311 8.44571813890762  C 3.82434745400086 8.44571813890762  4.30573384681215 8.65363002922005  4.701540436457 9.06945380984491  L 9.4191270860077 14.0256237356709  L 9.4191270860077 2.1577882670263  C 9.4191270860077 1.57338727804001  9.62237911852803 1.06765565295572  10.0288831835687 0.640593391773434  C 10.4353872486093 0.213531130591141  10.9167736414206 0  11.4730423620026 0  L 13.5269576379974 0  C 14.0832263585794 0  14.5646127513907 0.213531130591141  14.9711168164313 0.640593391773434  C 15.377620881472 1.06765565295572  15.5808729139923 1.57338727804001  15.5808729139923 2.1577882670263  L 15.5808729139923 14.0256237356709  L 20.298459563543 9.06945380984491  C 20.6942661531878 8.65363002922005  21.1756525459991 8.44571813890762  21.7426187419769 8.44571813890762  C 22.2988874625588 8.44571813890762  22.785622593068 8.65363002922005  23.2028241335045 9.06945380984491  L 24.4062901155327 10.3337828725556  Z " fill-rule="nonzero" fill="#02a7f0" stroke="none" transform="matrix(1 0 0 1 1306 315 )" />
  </g>
</svg>