<?xml version="1.0" encoding="utf-8"?>
<svg version="1.1" xmlns:xlink="http://www.w3.org/1999/xlink" width="25px" height="25px" xmlns="http://www.w3.org/2000/svg">
  <g transform="matrix(1 0 0 1 -1306 -237 )">
    <path d="M 24.4062901155327 11.6847826086957  C 24.8020967051776 12.1263586956522  25 12.6415307971014  25 13.2302989130435  C 25 13.8077445652174  24.8020967051776 14.3172554347826  24.4062901155327 14.7588315217391  L 23.2028241335045 16.0326086956522  C 22.7963200684638 16.4628623188406  22.3095849379546 16.6779891304348  21.7426187419769 16.6779891304348  C 21.1649550706033 16.6779891304348  20.683568677792 16.4628623188406  20.298459563543 16.0326086956522  L 15.5808729139923 11.0563858695652  L 15.5808729139923 23.0129076086957  C 15.5808729139923 23.6016757246377  15.3802952503209 24.0800498188406  14.9791399229782 24.4480298913043  C 14.5779845956354 24.8160099637681  14.0939238339752 25  13.5269576379974 25  L 11.4730423620026 25  C 10.9060761660248 25  10.4220154043646 24.8160099637681  10.0208600770218 24.4480298913043  C 9.61970474967907 24.0800498188406  9.4191270860077 23.6016757246377  9.4191270860077 23.0129076086957  L 9.4191270860077 11.0563858695652  L 4.701540436457 16.0326086956522  C 4.31643132220796 16.4628623188406  3.83504492939666 16.6779891304348  3.25738125802311 16.6779891304348  C 2.67971758664955 16.6779891304348  2.19833119383825 16.4628623188406  1.81322207958922 16.0326086956522  L 0.609756097560976 14.7588315217391  C 0.203252032520325 14.3285778985507  0 13.8190670289855  0 13.2302989130435  C 0 12.6302083333333  0.203252032520325 12.1150362318841  0.609756097560976 11.6847826086957  L 11.0558408215661 0.628396739130435  C 11.4302524604193 0.209465579710144  11.9116388532306 0  12.5 0  C 13.0776636713736 0  13.5643988018828 0.209465579710144  13.9602053915276 0.628396739130435  L 24.4062901155327 11.6847826086957  Z " fill-rule="nonzero" fill="#02a7f0" stroke="none" transform="matrix(1 0 0 1 1306 237 )" />
  </g>
</svg>