<?xml version="1.0" encoding="utf-8"?>
<svg version="1.1" xmlns:xlink="http://www.w3.org/1999/xlink" width="124px" height="117px" xmlns="http://www.w3.org/2000/svg">
  <g transform="matrix(1 0 0 1 -1519 -871 )">
    <path d="M 23 85  L 34 85  L 34 95  L 23 95  L 23 85  Z M 23 22  L 33.8181818181818 22  L 33.8181818181818 32  L 23 32  L 23 22  Z M 90 22  L 101.454545454545 22  L 101.454545454545 32  L 90 32  L 90 22  Z M 12 74  L 12 106  L 45 106  L 45 74  L 12 74  Z M 12 11  L 12 43  L 45 43  L 45 11  L 12 11  Z M 79 11  L 79 43  L 112 43  L 112 11  L 79 11  Z M 0 63  L 57 63  L 57 117  L 0 117  L 0 63  Z M 90 106  L 101 106  L 101 117  L 90 117  L 90 106  Z M 112 106  L 124 106  L 124 117  L 112 117  L 112 106  Z M 112 63  L 124 63  L 124 95  L 90.1818181818182 95  L 90.1818181818182 85  L 79 85  L 79 117  L 67 117  L 67 63  L 101 63  L 101 74  L 112 74  L 112 63  Z M 0 0  L 57 0  L 57 54  L 0 54  L 0 0  Z M 67 0  L 124 0  L 124 54  L 67 54  L 67 0  Z " fill-rule="nonzero" fill="#000000" stroke="none" transform="matrix(1 0 0 1 1519 871 )" />
  </g>
</svg>