<?xml version="1.0" encoding="utf-8"?>
<svg version="1.1" xmlns:xlink="http://www.w3.org/1999/xlink" width="147px" height="96px" xmlns="http://www.w3.org/2000/svg">
  <g transform="matrix(1 0 0 1 -2770 -724 )">
    <path d="M 2770 724  L 2917 724  L 2917 820  L 2770 820  L 2770 724  " fill-rule="nonzero" fill="#cccccc" stroke="none" />
    <path d="M 2777 731  L 2910 731  L 2910 813  L 2777 813  L 2777 731  " fill-rule="nonzero" fill="#ffffff" stroke="none" />
    <path d="M 2853.64 752.8  C 2849.608 752.8  2846.44 749.632  2846.44 745.6  C 2846.44 741.568  2849.608 738.4  2853.64 738.4  C 2857.672 738.4  2860.84 741.568  2860.84 745.6  C 2860.84 749.632  2857.672 752.8  2853.64 752.8  " fill-rule="nonzero" fill="#cccccc" stroke="none" />
    <path d="M 2780 811  L 2780 768.65  L 2812 749.4  L 2856.8 780.828571428571  L 2882.4 760.95  L 2908 780.828571428571  L 2908 811  L 2780 811  " fill-rule="nonzero" fill="#169bd5" stroke="none" />
    <path d="M 2771 819  L 2771 725  L 2916 725  L 2916 819  L 2771 819  Z " stroke-width="2" stroke="#02a7f0" fill="none" />
  </g>
</svg>