<?xml version="1.0" encoding="utf-8"?>
<svg version="1.1" xmlns:xlink="http://www.w3.org/1999/xlink" width="429px" height="260px" xmlns="http://www.w3.org/2000/svg">
  <g transform="matrix(1 0 0 1 -2465 -204 )">
    <path d="M 2467 208  A 2 2 0 0 1 2469 206 L 2890 206  A 2 2 0 0 1 2892 208 L 2892 460  A 2 2 0 0 1 2890 462 L 2469 462  A 2 2 0 0 1 2467 460 L 2467 208  Z " fill-rule="nonzero" fill="#ffffff" stroke="none" />
    <path d="M 2466 208  A 3 3 0 0 1 2469 205 L 2890 205  A 3 3 0 0 1 2893 208 L 2893 460  A 3 3 0 0 1 2890 463 L 2469 463  A 3 3 0 0 1 2466 460 L 2466 208  Z " stroke-width="2" stroke-dasharray="34,16" stroke="#02a7f0" fill="none" />
  </g>
</svg>