<?xml version="1.0" encoding="utf-8"?>
<svg version="1.1" xmlns:xlink="http://www.w3.org/1999/xlink" width="300px" height="170px" xmlns="http://www.w3.org/2000/svg">
  <g transform="matrix(1 0 0 1 -1687 -256 )">
    <path d="M 1687 256  L 1987 256  L 1987 426  L 1687 426  L 1687 256  " fill-rule="nonzero" fill="#cccccc" stroke="none" />
    <path d="M 1699 268  L 1975 268  L 1975 414  L 1699 414  L 1699 268  " fill-rule="nonzero" fill="#ffffff" stroke="none" />
    <path d="M 1855.75 307  C 1848.61 307  1843 301.39  1843 294.25  C 1843 287.11  1848.61 281.5  1855.75 281.5  C 1862.89 281.5  1868.5 287.11  1868.5 294.25  C 1868.5 301.39  1862.89 307  1855.75 307  " fill-rule="nonzero" fill="#cccccc" stroke="none" />
    <path d="M 1704 410  L 1704 334.65  L 1770.75 300.4  L 1864.2 363.42  L 1917.6 320.95  L 1971 363.42  L 1971 410  L 1704 410  " fill-rule="nonzero" fill="#169bd5" stroke="none" />
  </g>
</svg>