<?xml version="1.0" encoding="utf-8"?>
<svg version="1.1" xmlns:xlink="http://www.w3.org/1999/xlink" width="147px" height="96px" xmlns="http://www.w3.org/2000/svg">
  <g transform="matrix(1 0 0 1 -434 -207 )">
    <path d="M 434 207  L 581 207  L 581 303  L 434 303  L 434 207  " fill-rule="nonzero" fill="#cccccc" stroke="none" />
    <path d="M 441 214  L 574 214  L 574 296  L 441 296  L 441 214  " fill-rule="nonzero" fill="#ffffff" stroke="none" />
    <path d="M 517.64 235.8  C 513.608 235.8  510.44 232.632  510.44 228.6  C 510.44 224.568  513.608 221.4  517.64 221.4  C 521.672 221.4  524.84 224.568  524.84 228.6  C 524.84 232.632  521.672 235.8  517.64 235.8  " fill-rule="nonzero" fill="#cccccc" stroke="none" />
    <path d="M 444 294  L 444 251.65  L 476 232.4  L 520.8 263.828571428571  L 546.4 243.95  L 572 263.828571428571  L 572 294  L 444 294  " fill-rule="nonzero" fill="#169bd5" stroke="none" />
  </g>
</svg>