<?xml version="1.0" encoding="utf-8"?>
<svg version="1.1" xmlns:xlink="http://www.w3.org/1999/xlink" width="147px" height="96px" xmlns="http://www.w3.org/2000/svg">
  <g transform="matrix(1 0 0 1 -760 -207 )">
    <path d="M 760 207  L 907 207  L 907 303  L 760 303  L 760 207  " fill-rule="nonzero" fill="#cccccc" stroke="none" />
    <path d="M 767 214  L 900 214  L 900 296  L 767 296  L 767 214  " fill-rule="nonzero" fill="#ffffff" stroke="none" />
    <path d="M 843.64 235.8  C 839.608 235.8  836.44 232.632  836.44 228.6  C 836.44 224.568  839.608 221.4  843.64 221.4  C 847.672 221.4  850.84 224.568  850.84 228.6  C 850.84 232.632  847.672 235.8  843.64 235.8  " fill-rule="nonzero" fill="#cccccc" stroke="none" />
    <path d="M 770 294  L 770 251.65  L 802 232.4  L 846.8 263.828571428571  L 872.4 243.95  L 898 263.828571428571  L 898 294  L 770 294  " fill-rule="nonzero" fill="#169bd5" stroke="none" />
  </g>
</svg>