<?xml version="1.0" encoding="utf-8"?>
<svg version="1.1" xmlns:xlink="http://www.w3.org/1999/xlink" width="33px" height="36px" xmlns="http://www.w3.org/2000/svg">
  <g transform="matrix(1 0 0 1 -1038 -212 )">
    <path d="M 25.56640625 15  C 25.56640625 15.40625  25.4303385416667 15.7578125  25.158203125 16.0546875  L 16.091796875 25.9453125  C 15.8196614583333 26.2421875  15.4973958333333 26.390625  15.125 26.390625  C 14.7526041666667 26.390625  14.4303385416667 26.2421875  14.158203125 25.9453125  L 7.841796875 19.0546875  C 7.56966145833333 18.7578125  7.43359375 18.40625  7.43359375 18  C 7.43359375 17.59375  7.56966145833333 17.2421875  7.841796875 16.9453125  L 10.033203125 14.5546875  C 10.3053385416667 14.2578125  10.6276041666667 14.109375  11 14.109375  C 11.3723958333333 14.109375  11.6946614583333 14.2578125  11.966796875 14.5546875  L 15.125 18  L 21.033203125 11.5546875  C 21.3053385416667 11.2578125  21.6276041666667 11.109375  22 11.109375  C 22.3723958333333 11.109375  22.6946614583333 11.2578125  22.966796875 11.5546875  L 25.158203125 13.9453125  C 25.4303385416667 14.2421875  25.56640625 14.59375  25.56640625 15  Z M 26.619140625 24.3984375  C 27.6647135416667 22.4453125  28.1875 20.3125  28.1875 18  C 28.1875 15.6875  27.6647135416667 13.5546875  26.619140625 11.6015625  C 25.5735677083333 9.6484375  24.1555989583333 8.1015625  22.365234375 6.9609375  C 20.5748697916667 5.8203125  18.6197916666667 5.25  16.5 5.25  C 14.3802083333333 5.25  12.4251302083333 5.8203125  10.634765625 6.9609375  C 8.84440104166667 8.1015625  7.42643229166667 9.6484375  6.380859375 11.6015625  C 5.33528645833333 13.5546875  4.8125 15.6875  4.8125 18  C 4.8125 20.3125  5.33528645833333 22.4453125  6.380859375 24.3984375  C 7.42643229166667 26.3515625  8.84440104166667 27.8984375  10.634765625 29.0390625  C 12.4251302083333 30.1796875  14.3802083333333 30.75  16.5 30.75  C 18.6197916666667 30.75  20.5748697916667 30.1796875  22.365234375 29.0390625  C 24.1555989583333 27.8984375  25.5735677083333 26.3515625  26.619140625 24.3984375  Z M 30.787109375 8.96484375  C 32.2623697916667 11.72265625  33 14.734375  33 18  C 33 21.265625  32.2623697916667 24.27734375  30.787109375 27.03515625  C 29.3118489583333 29.79296875  27.3102213541667 31.9765625  24.7822265625 33.5859375  C 22.2542317708333 35.1953125  19.4934895833333 36  16.5 36  C 13.5065104166667 36  10.7457682291667 35.1953125  8.2177734375 33.5859375  C 5.68977864583333 31.9765625  3.68815104166667 29.79296875  2.212890625 27.03515625  C 0.737630208333333 24.27734375  0 21.265625  0 18  C 0 14.734375  0.737630208333333 11.72265625  2.212890625 8.96484375  C 3.68815104166667 6.20703125  5.68977864583333 4.0234375  8.2177734375 2.4140625  C 10.7457682291667 0.804687499999997  13.5065104166667 0  16.5 0  C 19.4934895833333 0  22.2542317708333 0.804687499999997  24.7822265625 2.4140625  C 27.3102213541667 4.0234375  29.3118489583333 6.20703125  30.787109375 8.96484375  Z " fill-rule="nonzero" fill="#ffff00" stroke="none" transform="matrix(1 0 0 1 1038 212 )" />
  </g>
</svg>