<?xml version="1.0" encoding="utf-8"?>
<svg version="1.1" xmlns:xlink="http://www.w3.org/1999/xlink" width="147px" height="96px" xmlns="http://www.w3.org/2000/svg">
  <g transform="matrix(1 0 0 1 -929 -207 )">
    <path d="M 929 207  L 1076 207  L 1076 303  L 929 303  L 929 207  " fill-rule="nonzero" fill="#cccccc" stroke="none" />
    <path d="M 936 214  L 1069 214  L 1069 296  L 936 296  L 936 214  " fill-rule="nonzero" fill="#ffffff" stroke="none" />
    <path d="M 1012.64 235.8  C 1008.608 235.8  1005.44 232.632  1005.44 228.6  C 1005.44 224.568  1008.608 221.4  1012.64 221.4  C 1016.672 221.4  1019.84 224.568  1019.84 228.6  C 1019.84 232.632  1016.672 235.8  1012.64 235.8  " fill-rule="nonzero" fill="#cccccc" stroke="none" />
    <path d="M 939 294  L 939 251.65  L 971 232.4  L 1015.8 263.828571428571  L 1041.4 243.95  L 1067 263.828571428571  L 1067 294  L 939 294  " fill-rule="nonzero" fill="#169bd5" stroke="none" />
    <path d="M 931.5 300.5  L 931.5 209.5  L 1073.5 209.5  L 1073.5 300.5  L 931.5 300.5  Z " stroke-width="5" stroke="#02a7f0" fill="none" />
  </g>
</svg>