<?xml version="1.0" encoding="utf-8"?>
<svg version="1.1" xmlns:xlink="http://www.w3.org/1999/xlink" width="14px" height="14px" xmlns="http://www.w3.org/2000/svg">
  <g transform="matrix(1 0 0 1 -318 -263 )">
    <path d="M 325 263  C 328.92 263  332 266.08  332 270  C 332 273.92  328.92 277  325 277  C 321.08 277  318 273.92  318 270  C 318 266.08  321.08 263  325 263  Z " fill-rule="nonzero" fill="#2a82e4" stroke="none" />
    <path d="M 325 263.5  C 328.64 263.5  331.5 266.36  331.5 270  C 331.5 273.64  328.64 276.5  325 276.5  C 321.36 276.5  318.5 273.64  318.5 270  C 318.5 266.36  321.36 263.5  325 263.5  Z " stroke-width="1" stroke="#d9d9d9" fill="none" />
  </g>
</svg>