<?xml version="1.0" encoding="utf-8"?>
<svg version="1.1" xmlns:xlink="http://www.w3.org/1999/xlink" width="15px" height="14px" xmlns="http://www.w3.org/2000/svg">
  <g transform="matrix(1 0 0 1 -420 -263 )">
    <path d="M 427.5 263  C 431.7 263  435 266.08  435 270  C 435 273.92  431.7 277  427.5 277  C 423.3 277  420 273.92  420 270  C 420 266.08  423.3 263  427.5 263  Z " fill-rule="nonzero" fill="#fafafa" stroke="none" />
    <path d="M 427.5 263.5  C 431.42 263.5  434.5 266.36  434.5 270  C 434.5 273.64  431.42 276.5  427.5 276.5  C 423.58 276.5  420.5 273.64  420.5 270  C 420.5 266.36  423.58 263.5  427.5 263.5  Z " stroke-width="1" stroke="#cccccc" fill="none" />
  </g>
</svg>