<?xml version="1.0" encoding="utf-8"?>
<svg version="1.1" xmlns:xlink="http://www.w3.org/1999/xlink" width="20px" height="20px" xmlns="http://www.w3.org/2000/svg">
  <g transform="matrix(1 0 0 1 -328 -313 )">
    <path d="M 19.7879464285714 9.49776785714286  C 19.9293154761905 9.63913690476191  20 9.80654761904762  20 10  C 20 10.1934523809524  19.9293154761905 10.3608630952381  19.7879464285714 10.5022321428571  L 16.9308035714286 13.359375  C 16.7894345238095 13.500744047619  16.6220238095238 13.5714285714286  16.4285714285714 13.5714285714286  C 16.235119047619 13.5714285714286  16.0677083333333 13.500744047619  15.9263392857143 13.359375  C 15.7849702380952 13.218005952381  15.7142857142857 13.0505952380952  15.7142857142857 12.8571428571429  L 15.7142857142857 11.4285714285714  L 11.4285714285714 11.4285714285714  L 11.4285714285714 15.7142857142857  L 12.8571428571429 15.7142857142857  C 13.0505952380952 15.7142857142857  13.218005952381 15.7849702380952  13.359375 15.9263392857143  C 13.500744047619 16.0677083333333  13.5714285714286 16.235119047619  13.5714285714286 16.4285714285714  C 13.5714285714286 16.6220238095238  13.500744047619 16.7894345238095  13.359375 16.9308035714286  L 10.5022321428571 19.7879464285714  C 10.3608630952381 19.9293154761905  10.1934523809524 20  10 20  C 9.80654761904762 20  9.63913690476191 19.9293154761905  9.49776785714286 19.7879464285714  L 6.640625 16.9308035714286  C 6.49925595238095 16.7894345238095  6.42857142857143 16.6220238095238  6.42857142857143 16.4285714285714  C 6.42857142857143 16.235119047619  6.49925595238095 16.0677083333333  6.640625 15.9263392857143  C 6.78199404761905 15.7849702380952  6.94940476190476 15.7142857142857  7.14285714285714 15.7142857142857  L 8.57142857142857 15.7142857142857  L 8.57142857142857 11.4285714285714  L 4.28571428571429 11.4285714285714  L 4.28571428571429 12.8571428571429  C 4.28571428571429 13.0505952380952  4.21502976190476 13.218005952381  4.07366071428571 13.359375  C 3.93229166666667 13.500744047619  3.76488095238095 13.5714285714286  3.57142857142857 13.5714285714286  C 3.37797619047619 13.5714285714286  3.21056547619048 13.500744047619  3.06919642857143 13.359375  L 0.212053571428571 10.5022321428571  C 0.0706845238095238 10.3608630952381  0 10.1934523809524  0 10  C 0 9.80654761904762  0.0706845238095238 9.63913690476191  0.212053571428571 9.49776785714286  L 3.06919642857143 6.640625  C 3.21056547619048 6.49925595238095  3.37797619047619 6.42857142857143  3.57142857142857 6.42857142857143  C 3.76488095238095 6.42857142857143  3.93229166666667 6.49925595238095  4.07366071428571 6.640625  C 4.21502976190476 6.78199404761905  4.28571428571429 6.94940476190476  4.28571428571429 7.14285714285714  L 4.28571428571429 8.57142857142857  L 8.57142857142857 8.57142857142857  L 8.57142857142857 4.28571428571429  L 7.14285714285714 4.28571428571429  C 6.94940476190476 4.28571428571429  6.78199404761905 4.21502976190476  6.640625 4.07366071428571  C 6.49925595238095 3.93229166666667  6.42857142857143 3.76488095238095  6.42857142857143 3.57142857142857  C 6.42857142857143 3.37797619047619  6.49925595238095 3.21056547619047  6.640625 3.06919642857143  L 9.49776785714286 0.212053571428572  C 9.63913690476191 0.0706845238095255  9.80654761904762 0  10 0  C 10.1934523809524 0  10.3608630952381 0.0706845238095255  10.5022321428571 0.212053571428572  L 13.359375 3.06919642857143  C 13.500744047619 3.21056547619047  13.5714285714286 3.37797619047619  13.5714285714286 3.57142857142857  C 13.5714285714286 3.76488095238095  13.500744047619 3.93229166666667  13.359375 4.07366071428571  C 13.218005952381 4.21502976190476  13.0505952380952 4.28571428571429  12.8571428571429 4.28571428571429  L 11.4285714285714 4.28571428571429  L 11.4285714285714 8.57142857142857  L 15.7142857142857 8.57142857142857  L 15.7142857142857 7.14285714285714  C 15.7142857142857 6.94940476190476  15.7849702380952 6.78199404761905  15.9263392857143 6.640625  C 16.0677083333333 6.49925595238095  16.235119047619 6.42857142857143  16.4285714285714 6.42857142857143  C 16.6220238095238 6.42857142857143  16.7894345238095 6.49925595238095  16.9308035714286 6.640625  L 19.7879464285714 9.49776785714286  Z " fill-rule="nonzero" fill="#000000" stroke="none" transform="matrix(1 0 0 1 328 313 )" />
  </g>
</svg>