<?xml version="1.0" encoding="utf-8"?>
<svg version="1.1" xmlns:xlink="http://www.w3.org/1999/xlink" width="72px" height="47px" xmlns="http://www.w3.org/2000/svg">
  <g transform="matrix(1 0 0 1 -318 -314 )">
    <path d="M 318 314  L 390 314  L 390 361  L 318 361  L 318 314  " fill-rule="nonzero" fill="#cccccc" stroke="none" />
    <path d="M 321 317  L 387 317  L 387 358  L 321 358  L 321 317  " fill-rule="nonzero" fill="#ffffff" stroke="none" />
    <path d="M 358.965 328.1  C 356.991 328.1  355.44 326.549  355.44 324.575  C 355.44 322.601  356.991 321.05  358.965 321.05  C 360.939 321.05  362.49 322.601  362.49 324.575  C 362.49 326.549  360.939 328.1  358.965 328.1  " fill-rule="nonzero" fill="#cccccc" stroke="none" />
    <path d="M 322 357  L 322 335.55  L 338 325.8  L 360.4 341.725  L 373.2 331.65  L 386 341.725  L 386 357  L 322 357  " fill-rule="nonzero" fill="#169bd5" stroke="none" />
  </g>
</svg>