<?xml version="1.0" encoding="utf-8"?>
<svg version="1.1" xmlns:xlink="http://www.w3.org/1999/xlink" width="60px" height="60px" xmlns="http://www.w3.org/2000/svg">
  <g transform="matrix(1 0 0 1 -1109 -94 )">
    <path d="M 1139 94  C 1155.8 94  1169 107.2  1169 124  C 1169 140.8  1155.8 154  1139 154  C 1122.2 154  1109 140.8  1109 124  C 1109 107.2  1122.2 94  1139 94  Z " fill-rule="nonzero" fill="#1890ff" stroke="none" />
    <path d="M 1139 94.5  C 1155.52 94.5  1168.5 107.48  1168.5 124  C 1168.5 140.52  1155.52 153.5  1139 153.5  C 1122.48 153.5  1109.5 140.52  1109.5 124  C 1109.5 107.48  1122.48 94.5  1139 94.5  Z " stroke-width="1" stroke="#797979" fill="none" />
  </g>
</svg>