<?xml version="1.0" encoding="utf-8"?>
<svg version="1.1" xmlns:xlink="http://www.w3.org/1999/xlink" width="65px" height="37px" xmlns="http://www.w3.org/2000/svg">
  <g transform="matrix(1 0 0 1 -329 -247 )">
    <path d="M 329 247  L 394 247  L 394 284  L 329 284  L 329 247  " fill-rule="nonzero" fill="#cccccc" stroke="none" />
    <path d="M 332 250  L 391 250  L 391 281  L 332 281  L 332 250  " fill-rule="nonzero" fill="#ffffff" stroke="none" />
    <path d="M 365.575 258.1  C 364.021 258.1  362.8 256.879  362.8 255.325  C 362.8 253.771  364.021 252.55  365.575 252.55  C 367.129 252.55  368.35 253.771  368.35 255.325  C 368.35 256.879  367.129 258.1  365.575 258.1  " fill-rule="nonzero" fill="#cccccc" stroke="none" />
    <path d="M 333 280  L 333 264.05  L 347.25 256.8  L 367.2 270.095384615385  L 378.6 261.15  L 390 270.095384615385  L 390 280  L 333 280  " fill-rule="nonzero" fill="#169bd5" stroke="none" />
  </g>
</svg>