<?xml version="1.0" encoding="utf-8"?>
<svg version="1.1" xmlns:xlink="http://www.w3.org/1999/xlink" width="14px" height="14px" viewBox="48 541  14 14" xmlns="http://www.w3.org/2000/svg">
  <path d="M 55 541  C 58.92 541  62 544.08  62 548  C 62 551.92  58.92 555  55 555  C 51.08 555  48 551.92  48 548  C 48 544.08  51.08 541  55 541  Z " fill-rule="nonzero" fill="#ffffff" stroke="none" />
  <path d="M 55 541.5  C 58.64 541.5  61.5 544.36  61.5 548  C 61.5 551.64  58.64 554.5  55 554.5  C 51.36 554.5  48.5 551.64  48.5 548  C 48.5 544.36  51.36 541.5  55 541.5  Z " stroke-width="1" stroke="#797979" fill="none" />
  <path d="M 55 551.5  C 53.04 551.5  51.5 549.96  51.5 548  C 51.5 546.04  53.04 544.5  55 544.5  C 56.96 544.5  58.5 546.04  58.5 548  C 58.5 549.96  56.96 551.5  55 551.5  " fill-rule="nonzero" fill="#797979" stroke="none" />
</svg>