<?xml version="1.0" encoding="utf-8"?>
<svg version="1.1" xmlns:xlink="http://www.w3.org/1999/xlink" width="39px" height="22px" xmlns="http://www.w3.org/2000/svg">
  <g transform="matrix(1 0 0 1 -273 -509 )">
    <path d="M 15.4782608695652 6.26825396825397  L 15.4782608695652 15.0507936507937  L 26 10.6857142857143  L 15.4782608695652 6.26825396825397  Z M 5.8695652173913 0.314285714285713  C 9.5072463768116 0.104761904761904  14.0507246376812 0  19.5 0  C 21.9347826086957 0  24.286231884058 0.0261904761904761  26.554347826087 0.0785714285714283  C 28.8224637681159 0.13095238095238  30.4855072463768 0.186243386243385  31.5434782608696 0.244444444444444  L 33.1304347826087 0.314285714285713  C 33.1449275362319 0.314285714285713  33.268115942029 0.323015873015872  33.5 0.340476190476189  C 33.731884057971 0.357936507936509  33.8985507246377 0.375396825396827  34 0.392857142857144  C 34.1014492753623 0.410317460317461  34.2717391304348 0.436507936507937  34.5108695652174 0.471428571428572  C 34.75 0.506349206349207  34.9565217391304 0.55291005291005  35.1304347826087 0.611111111111111  C 35.304347826087 0.669312169312168  35.5072463768116 0.744973544973542  35.7391304347826 0.838095238095238  C 35.9710144927536 0.931216931216929  36.195652173913 1.04470899470899  36.4130434782609 1.17857142857143  C 36.6304347826087 1.31243386243386  36.8405797101449 1.46666666666667  37.0434782608696 1.64126984126984  C 37.1304347826087 1.71111111111111  37.2427536231884 1.81878306878307  37.3804347826087 1.96428571428571  C 37.518115942029 2.10978835978836  37.7282608695652 2.45026455026455  38.0108695652174 2.98571428571428  C 38.2934782608696 3.52116402116402  38.4855072463768 4.10899470899471  38.5869565217391 4.74920634920635  C 38.7028985507246 5.49417989417989  38.7934782608696 6.28862433862434  38.8586956521739 7.13253968253968  C 38.9239130434783 7.97645502645503  38.963768115942 8.63703703703703  38.9782608695652 9.11428571428571  L 38.9782608695652 9.81269841269841  L 38.9782608695652 12.1873015873016  C 38.9927536231884 13.8751322751323  38.8623188405797 15.562962962963  38.5869565217391 17.2507936507937  C 38.4855072463768 17.8910052910053  38.304347826087 18.4701058201058  38.0434782608696 18.9880952380952  C 37.7826086956522 19.5060846560847  37.5507246376812 19.8640211640212  37.3478260869565 20.0619047619048  L 37.0434782608696 20.3587301587302  C 36.8405797101449 20.5333333333333  36.6304347826087 20.6875661375661  36.4130434782609 20.8214285714286  C 36.195652173913 20.955291005291  35.9710144927536 21.065873015873  35.7391304347826 21.1531746031746  C 35.5072463768116 21.2404761904762  35.304347826087 21.3132275132275  35.1304347826087 21.3714285714286  C 34.9565217391304 21.4296296296296  34.75 21.4761904761905  34.5108695652174 21.5111111111111  C 34.2717391304348 21.5460317460317  34.0978260869565 21.5722222222222  33.9891304347826 21.5896825396825  C 33.8804347826087 21.6071428571429  33.713768115942 21.6246031746032  33.4891304347826 21.6420634920635  C 33.2644927536232 21.6595238095238  33.1449275362319 21.668253968254  33.1304347826087 21.668253968254  C 29.4927536231884 21.889417989418  24.9492753623188 22  19.5 22  C 16.5 21.9767195767196  13.8949275362319 21.9388888888889  11.6847826086957 21.8865079365079  C 9.47463768115942 21.834126984127  8.02173913043478 21.7904761904762  7.32608695652174 21.7555555555556  L 6.26086956521739 21.6857142857143  L 5.47826086956522 21.615873015873  C 4.95652173913043 21.557671957672  4.56159420289855 21.4994708994709  4.29347826086957 21.4412698412698  C 4.02536231884058 21.3830687830688  3.65579710144928 21.2608465608466  3.18478260869565 21.0746031746032  C 2.71376811594203 20.8883597883598  2.30434782608696 20.6497354497355  1.95652173913043 20.3587301587302  C 1.8695652173913 20.2888888888889  1.75724637681159 20.1812169312169  1.6195652173913 20.0357142857143  C 1.48188405797101 19.8902116402116  1.27173913043478 19.5497354497355  0.989130434782609 19.0142857142857  C 0.706521739130435 18.478835978836  0.514492753623188 17.8910052910053  0.41304347826087 17.2507936507937  C 0.297101449275362 16.5058201058201  0.206521739130435 15.7113756613757  0.141304347826087 14.8674603174603  C 0.0760869565217391 14.023544973545  0.036231884057971 13.362962962963  0.0217391304347826 12.8857142857143  L 0.0217391304347826 12.1873015873016  L 0.0217391304347826 9.81269841269841  C 0.0072463768115942 8.12486772486772  0.13768115942029 6.43703703703703  0.41304347826087 4.74920634920635  C 0.514492753623188 4.10899470899471  0.695652173913043 3.52989417989418  0.956521739130435 3.01190476190476  C 1.21739130434783 2.49391534391534  1.44927536231884 2.13597883597883  1.65217391304348 1.93809523809524  L 1.95652173913043 1.64126984126984  C 2.15942028985507 1.46666666666667  2.3695652173913 1.31243386243386  2.58695652173913 1.17857142857143  C 2.80434782608696 1.04470899470899  3.02898550724638 0.931216931216929  3.26086956521739 0.838095238095238  C 3.49275362318841 0.744973544973542  3.69565217391304 0.669312169312168  3.8695652173913 0.611111111111111  C 4.04347826086957 0.55291005291005  4.25 0.506349206349207  4.48913043478261 0.471428571428572  C 4.72826086956522 0.436507936507937  4.89855072463768 0.410317460317461  5 0.392857142857144  C 5.10144927536232 0.375396825396827  5.26811594202899 0.357936507936509  5.5 0.340476190476189  C 5.73188405797101 0.323015873015872  5.85507246376812 0.314285714285713  5.8695652173913 0.314285714285713  Z " fill-rule="nonzero" fill="#02a7f0" stroke="none" transform="matrix(1 0 0 1 273 509 )" />
  </g>
</svg>