<?xml version="1.0" encoding="utf-8"?>
<svg version="1.1" xmlns:xlink="http://www.w3.org/1999/xlink" width="15px" height="14px" xmlns="http://www.w3.org/2000/svg">
  <g transform="matrix(1 0 0 1 -272 59 )">
    <path d="M 279.5 -59  C 283.7 -59  287 -55.92  287 -52  C 287 -48.08  283.7 -45  279.5 -45  C 275.3 -45  272 -48.08  272 -52  C 272 -55.92  275.3 -59  279.5 -59  Z " fill-rule="nonzero" fill="#ffffff" stroke="none" fill-opacity="0" />
    <path d="M 279.5 -58.5  C 283.42 -58.5  286.5 -55.64  286.5 -52  C 286.5 -48.36  283.42 -45.5  279.5 -45.5  C 275.58 -45.5  272.5 -48.36  272.5 -52  C 272.5 -55.64  275.58 -58.5  279.5 -58.5  Z " stroke-width="1" stroke="#1890ff" fill="none" />
  </g>
</svg>