<?xml version="1.0" encoding="utf-8"?>
<svg version="1.1" xmlns:xlink="http://www.w3.org/1999/xlink" width="280px" height="30px" xmlns="http://www.w3.org/2000/svg">
  <defs>
    <mask fill="white" id="clip25">
      <path d="M 0 30  L 0 0  L 205 0  L 280 0  L 280 30  L 196 30  L 0 30  Z " fill-rule="evenodd" />
    </mask>
  </defs>
  <g transform="matrix(1 0 0 1 -1420 -323 )">
    <path d="M 0 30  L 0 0  L 205 0  L 280 0  L 280 30  L 196 30  L 0 30  Z " fill-rule="nonzero" fill="#ffffff" stroke="none" fill-opacity="0" transform="matrix(1 0 0 1 1420 323 )" />
    <path d="M 0 30  L 0 0  L 205 0  L 280 0  L 280 30  L 196 30  L 0 30  Z " stroke-width="2" stroke="#797979" fill="none" transform="matrix(1 0 0 1 1420 323 )" mask="url(#clip25)" />
  </g>
</svg>