<?xml version="1.0" encoding="utf-8"?>
<svg version="1.1" xmlns:xlink="http://www.w3.org/1999/xlink" width="75px" height="34px" xmlns="http://www.w3.org/2000/svg">
  <g transform="matrix(1 0 0 1 -41 -912 )">
    <path d="M 42 929  A 16 16 0 0 1 58 913 L 99 913  A 16 16 0 0 1 115 929 A 16 16 0 0 1 99 945 L 58 945  A 16 16 0 0 1 42 929 Z " fill-rule="nonzero" fill="#ffffff" stroke="none" />
    <path d="M 41.5 929  A 16.5 16.5 0 0 1 58 912.5 L 99 912.5  A 16.5 16.5 0 0 1 115.5 929 A 16.5 16.5 0 0 1 99 945.5 L 58 945.5  A 16.5 16.5 0 0 1 41.5 929 Z " stroke-width="1" stroke="#000000" fill="none" stroke-opacity="0.247058823529412" />
  </g>
</svg>