<?xml version="1.0" encoding="utf-8"?>
<svg version="1.1" xmlns:xlink="http://www.w3.org/1999/xlink" width="291px" height="42px" xmlns="http://www.w3.org/2000/svg">
  <g transform="matrix(1 0 0 1 -36 -801 )">
    <path d="M 37 817  A 15 15 0 0 1 52 802 L 311 802  A 15 15 0 0 1 326 817 L 326 827  A 15 15 0 0 1 311 842 L 52 842  A 15 15 0 0 1 37 827 L 37 817  Z " fill-rule="nonzero" fill="#ffffff" stroke="none" />
    <path d="M 36.5 817  A 15.5 15.5 0 0 1 52 801.5 L 311 801.5  A 15.5 15.5 0 0 1 326.5 817 L 326.5 827  A 15.5 15.5 0 0 1 311 842.5 L 52 842.5  A 15.5 15.5 0 0 1 36.5 827 L 36.5 817  Z " stroke-width="1" stroke="#000000" fill="none" stroke-opacity="0.247058823529412" />
  </g>
</svg>