<?xml version="1.0" encoding="utf-8"?>
<svg version="1.1" xmlns:xlink="http://www.w3.org/1999/xlink" width="179px" height="34px" xmlns="http://www.w3.org/2000/svg">
  <g transform="matrix(1 0 0 1 -217 -912 )">
    <path d="M 218 929  A 16 16 0 0 1 234 913 L 379 913  A 16 16 0 0 1 395 929 A 16 16 0 0 1 379 945 L 234 945  A 16 16 0 0 1 218 929 Z " fill-rule="nonzero" fill="#ffffff" stroke="none" />
    <path d="M 217.5 929  A 16.5 16.5 0 0 1 234 912.5 L 379 912.5  A 16.5 16.5 0 0 1 395.5 929 A 16.5 16.5 0 0 1 379 945.5 L 234 945.5  A 16.5 16.5 0 0 1 217.5 929 Z " stroke-width="1" stroke="#000000" fill="none" stroke-opacity="0.247058823529412" />
  </g>
</svg>