<?xml version="1.0" encoding="utf-8"?>
<svg version="1.1" xmlns:xlink="http://www.w3.org/1999/xlink" width="120px" height="34px" xmlns="http://www.w3.org/2000/svg">
  <g transform="matrix(1 0 0 1 -41 -960 )">
    <path d="M 42 977  A 16 16 0 0 1 58 961 L 144 961  A 16 16 0 0 1 160 977 A 16 16 0 0 1 144 993 L 58 993  A 16 16 0 0 1 42 977 Z " fill-rule="nonzero" fill="#ffffff" stroke="none" />
    <path d="M 41.5 977  A 16.5 16.5 0 0 1 58 960.5 L 144 960.5  A 16.5 16.5 0 0 1 160.5 977 A 16.5 16.5 0 0 1 144 993.5 L 58 993.5  A 16.5 16.5 0 0 1 41.5 977 Z " stroke-width="1" stroke="#000000" fill="none" stroke-opacity="0.247058823529412" />
  </g>
</svg>