<?xml version="1.0" encoding="utf-8"?>
<svg version="1.1" xmlns:xlink="http://www.w3.org/1999/xlink" width="255px" height="170px" xmlns="http://www.w3.org/2000/svg">
  <g transform="matrix(1 0 0 1 -305 -447 )">
    <path d="M 305 447  L 560 447  L 560 617  L 305 617  L 305 447  " fill-rule="nonzero" fill="#cccccc" stroke="none" />
    <path d="M 317 459  L 548 459  L 548 605  L 317 605  L 317 459  " fill-rule="nonzero" fill="#ffffff" stroke="none" />
    <path d="M 450.35 498  C 443.21 498  437.6 492.39  437.6 485.25  C 437.6 478.11  443.21 472.5  450.35 472.5  C 457.49 472.5  463.1 478.11  463.1 485.25  C 463.1 492.39  457.49 498  450.35 498  " fill-rule="nonzero" fill="#cccccc" stroke="none" />
    <path d="M 322 601  L 322 525.65  L 377.5 491.4  L 455.2 546.2  L 499.6 511.95  L 544 546.2  L 544 601  L 322 601  " fill-rule="nonzero" fill="#169bd5" stroke="none" />
  </g>
</svg>