<?xml version="1.0" encoding="utf-8"?>
<svg version="1.1" xmlns:xlink="http://www.w3.org/1999/xlink" width="23px" height="25px" xmlns="http://www.w3.org/2000/svg">
  <g transform="matrix(1 0 0 1 -994 -458 )">
    <path d="M 8.21661931818182 9.521484375  C 8.31463068181818 9.619140625  8.36363636363636 9.74392361111111  8.36363636363636 9.89583333333333  L 8.36363636363636 19.2708333333333  C 8.36363636363636 19.4227430555556  8.31463068181818 19.5475260416667  8.21661931818182 19.6451822916667  C 8.11860795454546 19.7428385416667  7.99337121212121 19.7916666666667  7.84090909090909 19.7916666666667  L 6.79545454545455 19.7916666666667  C 6.64299242424243 19.7916666666667  6.51775568181818 19.7428385416667  6.41974431818182 19.6451822916667  C 6.32173295454545 19.5475260416667  6.27272727272727 19.4227430555556  6.27272727272727 19.2708333333333  L 6.27272727272727 9.89583333333333  C 6.27272727272727 9.74392361111111  6.32173295454545 9.619140625  6.41974431818182 9.521484375  C 6.51775568181818 9.423828125  6.64299242424243 9.375  6.79545454545455 9.375  L 7.84090909090909 9.375  C 7.99337121212121 9.375  8.11860795454546 9.423828125  8.21661931818182 9.521484375  Z M 12.3984375 9.521484375  C 12.4964488636364 9.619140625  12.5454545454545 9.74392361111111  12.5454545454545 9.89583333333333  L 12.5454545454545 19.2708333333333  C 12.5454545454545 19.4227430555556  12.4964488636364 19.5475260416667  12.3984375 19.6451822916667  C 12.3004261363636 19.7428385416667  12.1751893939394 19.7916666666667  12.0227272727273 19.7916666666667  L 10.9772727272727 19.7916666666667  C 10.8248106060606 19.7916666666667  10.6995738636364 19.7428385416667  10.6015625 19.6451822916667  C 10.5035511363636 19.5475260416667  10.4545454545455 19.4227430555556  10.4545454545455 19.2708333333333  L 10.4545454545455 9.89583333333333  C 10.4545454545455 9.74392361111111  10.5035511363636 9.619140625  10.6015625 9.521484375  C 10.6995738636364 9.423828125  10.8248106060606 9.375  10.9772727272727 9.375  L 12.0227272727273 9.375  C 12.1751893939394 9.375  12.3004261363636 9.423828125  12.3984375 9.521484375  Z M 16.5802556818182 9.521484375  C 16.6782670454545 9.619140625  16.7272727272727 9.74392361111111  16.7272727272727 9.89583333333333  L 16.7272727272727 19.2708333333333  C 16.7272727272727 19.4227430555556  16.6782670454545 19.5475260416667  16.5802556818182 19.6451822916667  C 16.4822443181818 19.7428385416667  16.3570075757576 19.7916666666667  16.2045454545455 19.7916666666667  L 15.1590909090909 19.7916666666667  C 15.0066287878788 19.7916666666667  14.8813920454545 19.7428385416667  14.7833806818182 19.6451822916667  C 14.6853693181818 19.5475260416667  14.6363636363636 19.4227430555556  14.6363636363636 19.2708333333333  L 14.6363636363636 9.89583333333333  C 14.6363636363636 9.74392361111111  14.6853693181818 9.619140625  14.7833806818182 9.521484375  C 14.8813920454545 9.423828125  15.0066287878788 9.375  15.1590909090909 9.375  L 16.2045454545455 9.375  C 16.3570075757576 9.375  16.4822443181818 9.423828125  16.5802556818182 9.521484375  Z M 18.7038352272727 22.3388671875  C 18.7800662878788 22.1381293402778  18.8181818181818 21.9184027777778  18.8181818181818 21.6796875  L 18.8181818181818 6.25  L 4.18181818181818 6.25  L 4.18181818181818 21.6796875  C 4.18181818181818 21.9184027777778  4.21993371212121 22.1381293402778  4.29616477272727 22.3388671875  C 4.37239583333333 22.5396050347222  4.45134943181818 22.6860894097222  4.53302556818182 22.7783203125  C 4.61470170454546 22.8705512152778  4.671875 22.9166666666667  4.70454545454546 23  L 18.2954545454545 23  C 18.328125 22.9166666666667  18.3852982954545 22.8705512152778  18.4669744318182 22.7783203125  C 18.5486505681818 22.6860894097222  18.6276041666667 22.5396050347222  18.7038352272727 22.3388671875  Z M 8.64133522727273 2.26236979166667  L 7.84090909090909 4.16666666666667  L 15.1590909090909 4.16666666666667  L 14.375 2.26236979166667  C 14.2987689393939 2.16471354166667  14.2062026515152 2.10503472222222  14.0973011363636 2.08333333333333  L 8.91903409090909 2.08333333333333  C 8.81013257575758 2.10503472222222  8.71756628787879 2.16471354166667  8.64133522727273 2.26236979166667  Z M 22.8529829545455 4.31315104166667  C 22.9509943181818 4.41080729166667  23 4.53559027777778  23 4.6875  L 23 5.72916666666667  C 23 5.88107638888889  22.9509943181818 6.005859375  22.8529829545455 6.103515625  C 22.7549715909091 6.201171875  22.6297348484849 6.25  22.4772727272727 6.25  L 21 6.25  L 21 21.6796875  C 20.9090909090909 22.5802951388889  20.6531723484849 23.3588324652778  20.1413352272727 24.0152994791667  C 19.6294981060606 24.6717664930556  19.0142045454545 25  18.2954545454545 25  L 4.70454545454546 25  C 3.98579545454546 25  3.37050189393939 24.6826171875  2.85866477272727 24.0478515625  C 2.34682765151515 23.4130859375  2.09090909090909 22.6453993055556  2 21.7447916666667  L 2 6.25  L 0.522727272727273 6.25  C 0.370265151515151 6.25  0.245028409090909 6.201171875  0.147017045454545 6.103515625  C 0.0490056818181818 6.005859375  0 5.88107638888889  0 5.72916666666667  L 0 4.6875  C 0 4.53559027777778  0.0490056818181818 4.41080729166667  0.147017045454545 4.31315104166667  C 0.245028409090909 4.21549479166667  0.370265151515151 4.16666666666667  0.522727272727273 4.16666666666667  L 5.5703125 4.16666666666667  L 6.71377840909091 1.44856770833333  C 6.87713068181818 1.04709201388889  7.17116477272727 0.705295138888887  7.59588068181818 0.423177083333334  C 8.02059659090909 0.141059027777776  8.45075757575758 0  8.88636363636364 0  L 14.1136363636364 0  C 14.5492424242424 0  14.9794034090909 0.141059027777776  15.4041193181818 0.423177083333334  C 15.8288352272727 0.705295138888887  16.1228693181818 1.04709201388889  16.2862215909091 1.44856770833333  L 17.4296875 4.16666666666667  L 22.4772727272727 4.16666666666667  C 22.6297348484849 4.16666666666667  22.7549715909091 4.21549479166667  22.8529829545455 4.31315104166667  Z " fill-rule="nonzero" fill="#333333" stroke="none" transform="matrix(1 0 0 1 994 458 )" />
  </g>
</svg>