<?xml version="1.0" encoding="utf-8"?>
<svg version="1.1" xmlns:xlink="http://www.w3.org/1999/xlink" width="24px" height="26px" xmlns="http://www.w3.org/2000/svg">
  <g transform="matrix(1 0 0 1 -57 -45 )">
    <path d="M 16.5625 0.986607142857144  L 22.9375 6.90625  C 23.0833333333333 7.04166666666666  23.2291666666667 7.21577380952381  23.375 7.42857142857143  L 16 7.42857142857143  L 16 0.580357142857144  C 16.2291666666667 0.715773809523808  16.4166666666667 0.851190476190473  16.5625 0.986607142857144  Z M 14.4375 8.87946428571428  C 14.7291666666667 9.15029761904762  15.0833333333333 9.28571428571428  15.5 9.28571428571428  L 24 9.28571428571428  L 24 24.6071428571429  C 24 24.9940476190476  23.8541666666667 25.3229166666667  23.5625 25.59375  C 23.2708333333333 25.8645833333333  22.9166666666667 26  22.5 26  L 1.5 26  C 1.08333333333333 26  0.729166666666667 25.8645833333333  0.4375 25.59375  C 0.145833333333333 25.3229166666667  0 24.9940476190476  0 24.6071428571429  L 0 1.39285714285714  C 0 1.00595238095238  0.145833333333333 0.677083333333332  0.4375 0.40625  C 0.729166666666667 0.135416666666668  1.08333333333333 0  1.5 0  L 14 0  L 14 7.89285714285714  C 14 8.2797619047619  14.1458333333333 8.60863095238095  14.4375 8.87946428571428  Z M 17.859375 20.2979910714286  C 17.953125 20.2109375  18 20.0997023809524  18 19.9642857142857  L 18 19.0357142857143  C 18 18.9002976190476  17.953125 18.7890625  17.859375 18.7020089285714  C 17.765625 18.6149553571429  17.6458333333333 18.5714285714286  17.5 18.5714285714286  L 6.5 18.5714285714286  C 6.35416666666667 18.5714285714286  6.234375 18.6149553571429  6.140625 18.7020089285714  C 6.046875 18.7890625  6 18.9002976190476  6 19.0357142857143  L 6 19.9642857142857  C 6 20.0997023809524  6.046875 20.2109375  6.140625 20.2979910714286  C 6.234375 20.3850446428571  6.35416666666667 20.4285714285714  6.5 20  L 17.5 20  C 17.6458333333333 20.4285714285714  17.765625 20.3850446428571  17.859375 20.2979910714286  Z M 17.859375 16.5837053571429  C 17.953125 16.4966517857143  18 16.3854166666667  18 16.25  L 18 15.3214285714286  C 18 15.1860119047619  17.953125 15.0747767857143  17.859375 14.9877232142857  C 17.765625 14.9006696428571  17.6458333333333 14.8571428571429  17.5 14.8571428571429  L 6.5 14.8571428571429  C 6.35416666666667 14.8571428571429  6.234375 14.9006696428571  6.140625 14.9877232142857  C 6.046875 15.0747767857143  6 15.1860119047619  6 15.3214285714286  L 6 16.25  C 6 16.3854166666667  6.046875 16.4966517857143  6.140625 16.5837053571429  C 6.234375 16.6707589285714  6.35416666666667 16.7142857142857  6.5 16.7142857142857  L 17.5 16.7142857142857  C 17.6458333333333 16.7142857142857  17.765625 16.6707589285714  17.859375 16.5837053571429  Z M 17.859375 12.8694196428571  C 17.953125 12.7823660714286  18 12.671130952381  18 12.5357142857143  L 18 11.6071428571429  C 18 11.4717261904762  17.953125 11.3604910714286  17.859375 11.2734375  C 17.765625 11.1863839285714  17.6458333333333 11.1428571428571  17.5 11.1428571428571  L 6.5 11.1428571428571  C 6.35416666666667 11.1428571428571  6.234375 11.1863839285714  6.140625 11.2734375  C 6.046875 11.3604910714286  6 11.4717261904762  6 11.6071428571429  L 6 12.5357142857143  C 6 12.671130952381  6.046875 12.7823660714286  6.140625 12.8694196428571  C 6.234375 12.9564732142857  6.35416666666667 13  6.5 13  L 17.5 13  C 17.6458333333333 13  17.765625 12.9564732142857  17.859375 12.8694196428571  Z " fill-rule="nonzero" fill="#096dd9" stroke="none" transform="matrix(1 0 0 1 57 45 )" />
  </g>
</svg>