<?xml version="1.0" encoding="utf-8"?>
<svg version="1.1" xmlns:xlink="http://www.w3.org/1999/xlink" width="36px" height="23px" xmlns="http://www.w3.org/2000/svg">
  <g transform="matrix(1 0 0 1 -57 -49 )">
    <path d="M 14.2876254180602 6.5531746031746  L 14.2876254180602 15.7349206349206  L 24 11.1714285714286  L 14.2876254180602 6.5531746031746  Z M 5.4180602006689 0.328571428571427  C 8.77591973244147 0.109523809523809  12.9698996655518 0  18 0  C 20.247491638796 0  22.4180602006689 0.0273809523809523  24.5117056856187 0.0821428571428569  C 26.6053511705686 0.136904761904761  28.1404682274248 0.194708994708993  29.1170568561873 0.255555555555555  L 30.5819397993311 0.328571428571427  C 30.5953177257525 0.328571428571427  30.7090301003345 0.337698412698412  30.9230769230769 0.35595238095238  C 31.1371237458194 0.37420634920635  31.2909698996656 0.392460317460319  31.3846153846154 0.410714285714287  C 31.4782608695652 0.428968253968255  31.6354515050167 0.456349206349207  31.8561872909699 0.492857142857144  C 32.0769230769231 0.52936507936508  32.2675585284281 0.578042328042325  32.428093645485 0.638888888888889  C 32.5886287625418 0.699735449735448  32.7759197324415 0.778835978835975  32.9899665551839 0.876190476190476  C 33.2040133779264 0.973544973544971  33.4113712374582 1.09219576719577  33.6120401337793 1.23214285714286  C 33.8127090301003 1.37208994708994  34.0066889632107 1.53333333333333  34.1939799331104 1.71587301587301  C 34.2742474916388 1.78888888888889  34.3779264214047 1.90145502645502  34.505016722408 2.05357142857143  C 34.6321070234114 2.20568783068783  34.8260869565217 2.56164021164021  35.0869565217391 3.12142857142857  C 35.3478260869565 3.68121693121693  35.5250836120401 4.29576719576719  35.61872909699 4.96507936507937  C 35.7257525083612 5.74391534391534  35.809364548495 6.5744708994709  35.8695652173913 7.45674603174603  C 35.9297658862876 8.33902116402116  35.9665551839465 9.02962962962963  35.9799331103679 9.52857142857143  L 35.9799331103679 10.2587301587302  L 35.9799331103679 12.7412698412698  C 35.9933110367893 14.5058201058201  35.8729096989967 16.2703703703704  35.61872909699 18.0349206349206  C 35.5250836120401 18.7042328042328  35.3578595317726 19.3096560846561  35.1170568561873 19.8511904761905  C 34.876254180602 20.3927248677249  34.6622073578595 20.7669312169312  34.4749163879599 20.9738095238095  L 34.1939799331104 21.284126984127  C 34.0066889632107 21.4666666666667  33.8127090301003 21.6279100529101  33.6120401337793 21.7678571428571  C 33.4113712374582 21.9078042328042  33.2040133779264 22.0234126984127  32.9899665551839 22.1146825396825  C 32.7759197324415 22.2059523809524  32.5886287625418 22.2820105820106  32.428093645485 22.3428571428571  C 32.2675585284281 22.4037037037037  32.0769230769231 22.452380952381  31.8561872909699 22.4888888888889  C 31.6354515050167 22.5253968253968  31.4749163879599 22.5527777777778  31.3745819397993 22.5710317460317  C 31.2742474916388 22.5892857142857  31.1204013377926 22.6075396825397  30.9130434782609 22.6257936507937  C 30.7056856187291 22.6440476190476  30.5953177257525 22.6531746031746  30.5819397993311 22.6531746031746  C 27.2240802675585 22.8843915343915  23.0301003344482 23  18 23  C 15.2307692307692 22.9756613756614  12.8260869565217 22.9361111111111  10.7859531772575 22.8813492063492  C 8.74581939799331 22.8265873015873  7.40468227424749 22.7809523809524  6.76254180602007 22.7444444444444  L 5.77926421404682 22.6714285714286  L 5.05685618729097 22.5984126984127  C 4.5752508361204 22.5375661375661  4.21070234113712 22.4767195767196  3.96321070234114 22.415873015873  C 3.71571906354515 22.3550264550265  3.37458193979933 22.2272486772487  2.93979933110368 22.0325396825397  C 2.50501672240803 21.8378306878307  2.12709030100334 21.5883597883598  1.80602006688963 21.284126984127  C 1.7257525083612 21.2111111111111  1.62207357859532 21.098544973545  1.49498327759197 20.9464285714286  C 1.36789297658863 20.7943121693122  1.17391304347826 20.4383597883598  0.91304347826087 19.8785714285714  C 0.652173913043478 19.3187830687831  0.474916387959866 18.7042328042328  0.381270903010033 18.0349206349206  C 0.274247491638796 17.2560846560847  0.190635451505017 16.4255291005291  0.130434782608696 15.543253968254  C 0.0702341137123746 14.6609788359788  0.0334448160535117 13.9703703703704  0.020066889632107 13.4714285714286  L 0.020066889632107 12.7412698412698  L 0.020066889632107 10.2587301587302  C 0.00668896321070234 8.49417989417989  0.127090301003344 6.72962962962963  0.381270903010033 4.96507936507937  C 0.474916387959866 4.29576719576719  0.642140468227425 3.69034391534391  0.882943143812709 3.14880952380952  C 1.12374581939799 2.60727513227513  1.33779264214047 2.23306878306878  1.52508361204013 2.02619047619048  L 1.80602006688963 1.71587301587301  C 1.9933110367893 1.53333333333333  2.18729096989967 1.37208994708994  2.38795986622074 1.23214285714286  C 2.58862876254181 1.09219576719577  2.79598662207358 0.973544973544971  3.01003344481605 0.876190476190476  C 3.22408026755853 0.778835978835975  3.41137123745819 0.699735449735448  3.57190635451505 0.638888888888889  C 3.73244147157191 0.578042328042325  3.92307692307692 0.52936507936508  4.1438127090301 0.492857142857144  C 4.36454849498328 0.456349206349207  4.52173913043478 0.428968253968255  4.61538461538462 0.410714285714287  C 4.70903010033445 0.392460317460319  4.8628762541806 0.37420634920635  5.07692307692308 0.35595238095238  C 5.29096989966555 0.337698412698412  5.40468227424749 0.328571428571427  5.4180602006689 0.328571428571427  Z " fill-rule="nonzero" fill="#096dd9" stroke="none" transform="matrix(1 0 0 1 57 49 )" />
  </g>
</svg>