<?xml version="1.0" encoding="utf-8"?>
<svg version="1.1" xmlns:xlink="http://www.w3.org/1999/xlink" width="40px" height="40px" xmlns="http://www.w3.org/2000/svg">
  <g transform="matrix(1 0 0 1 -731 -72 )">
    <path d="M 751 72  C 762.2 72  771 80.8  771 92  C 771 103.2  762.2 112  751 112  C 739.8 112  731 103.2  731 92  C 731 80.8  739.8 72  751 72  Z " fill-rule="nonzero" fill="#ffffff" stroke="none" />
    <path d="M 751 72.5  C 761.92 72.5  770.5 81.08  770.5 92  C 770.5 102.92  761.92 111.5  751 111.5  C 740.08 111.5  731.5 102.92  731.5 92  C 731.5 81.08  740.08 72.5  751 72.5  Z " stroke-width="1" stroke="#aaaaaa" fill="none" />
  </g>
</svg>