<?xml version="1.0" encoding="utf-8"?>
<svg version="1.1" xmlns:xlink="http://www.w3.org/1999/xlink" width="195px" height="179px" xmlns="http://www.w3.org/2000/svg">
  <g transform="matrix(1 0 0 1 -317 -231 )">
    <path d="M 317 231  L 512 231  L 512 410  L 317 410  L 317 231  " fill-rule="nonzero" fill="#cccccc" stroke="none" />
    <path d="M 330 244  L 499 244  L 499 397  L 330 397  L 330 244  " fill-rule="nonzero" fill="#ffffff" stroke="none" />
    <path d="M 431.825 284.7  C 424.307 284.7  418.4 278.793  418.4 271.275  C 418.4 263.757  424.307 257.85  431.825 257.85  C 439.343 257.85  445.25 263.757  445.25 271.275  C 445.25 278.793  439.343 284.7  431.825 284.7  " fill-rule="nonzero" fill="#cccccc" stroke="none" />
    <path d="M 335 393  L 335 313.8  L 375 277.8  L 431 313.689230769231  L 463 299.4  L 495 313.689230769231  L 495 393  L 335 393  " fill-rule="nonzero" fill="#169bd5" stroke="none" />
  </g>
</svg>