<?xml version="1.0" encoding="utf-8"?>
<svg version="1.1" xmlns:xlink="http://www.w3.org/1999/xlink" width="760px" height="192px" xmlns="http://www.w3.org/2000/svg">
  <g transform="matrix(1 0 0 1 -1600 -210 )">
    <path d="M 1601 216  A 5 5 0 0 1 1606 211 L 2354 211  A 5 5 0 0 1 2359 216 L 2359 396  A 5 5 0 0 1 2354 401 L 1606 401  A 5 5 0 0 1 1601 396 L 1601 216  Z " fill-rule="nonzero" fill="#000000" stroke="none" fill-opacity="0.0196078431372549" />
    <path d="M 1600.5 216  A 5.5 5.5 0 0 1 1606 210.5 L 2354 210.5  A 5.5 5.5 0 0 1 2359.5 216 L 2359.5 396  A 5.5 5.5 0 0 1 2354 401.5 L 1606 401.5  A 5.5 5.5 0 0 1 1600.5 396 L 1600.5 216  Z " stroke-width="1" stroke-dasharray="9,4" stroke="#108ee9" fill="none" stroke-dashoffset="0.5" />
  </g>
</svg>