<?xml version="1.0" encoding="utf-8"?>
<svg version="1.1" xmlns:xlink="http://www.w3.org/1999/xlink" width="108px" height="52px" xmlns="http://www.w3.org/2000/svg">
  <defs>
    <filter x="735px" y="816px" width="108px" height="52px" filterUnits="userSpaceOnUse" id="filter128">
      <feOffset dx="5" dy="5" in="SourceAlpha" result="shadowOffsetInner" />
      <feGaussianBlur stdDeviation="2.5" in="shadowOffsetInner" result="shadowGaussian" />
      <feComposite in2="shadowGaussian" operator="atop" in="SourceAlpha" result="shadowComposite" />
      <feColorMatrix type="matrix" values="0 0 0 0 0.250980392156863  0 0 0 0 0.619607843137255  0 0 0 0 1  0 0 0 0.0980392156862745 0  " in="shadowComposite" />
    </filter>
    <g id="widget129">
      <path d="M 737 821  A 3 3 0 0 1 740 818 L 828 818  A 3 3 0 0 1 831 821 L 831 853  A 3 3 0 0 1 828 856 L 740 856  A 3 3 0 0 1 737 853 L 737 821  Z " fill-rule="nonzero" fill="#ffffff" stroke="none" />
      <path d="M 736 821  A 4 4 0 0 1 740 817 L 828 817  A 4 4 0 0 1 832 821 L 832 853  A 4 4 0 0 1 828 857 L 740 857  A 4 4 0 0 1 736 853 L 736 821  Z " stroke-width="2" stroke="#02a7f0" fill="none" stroke-opacity="0.149019607843137" />
    </g>
  </defs>
  <g transform="matrix(1 0 0 1 -735 -816 )">
    <use xlink:href="#widget129" filter="url(#filter128)" />
    <use xlink:href="#widget129" />
  </g>
</svg>