<?xml version="1.0" encoding="utf-8"?>
<svg version="1.1" xmlns:xlink="http://www.w3.org/1999/xlink" width="14px" height="14px" viewBox="748 585  14 14" xmlns="http://www.w3.org/2000/svg">
  <path d="M 755 585  C 758.92 585  762 588.08  762 592  C 762 595.92  758.92 599  755 599  C 751.08 599  748 595.92  748 592  C 748 588.08  751.08 585  755 585  Z " fill-rule="nonzero" fill="#ffffff" stroke="none" />
  <path d="M 755 585.5  C 758.64 585.5  761.5 588.36  761.5 592  C 761.5 595.64  758.64 598.5  755 598.5  C 751.36 598.5  748.5 595.64  748.5 592  C 748.5 588.36  751.36 585.5  755 585.5  Z " stroke-width="1" stroke="#797979" fill="none" />
  <path d="M 755 595.5  C 753.04 595.5  751.5 593.96  751.5 592  C 751.5 590.04  753.04 588.5  755 588.5  C 756.96 588.5  758.5 590.04  758.5 592  C 758.5 593.96  756.96 595.5  755 595.5  " fill-rule="nonzero" fill="#797979" stroke="none" />
</svg>