<?xml version="1.0" encoding="utf-8"?>
<svg version="1.1" xmlns:xlink="http://www.w3.org/1999/xlink" width="280px" height="179px" xmlns="http://www.w3.org/2000/svg">
  <g transform="matrix(1 0 0 1 -309 -332 )">
    <path d="M 309 332  L 589 332  L 589 511  L 309 511  L 309 332  " fill-rule="nonzero" fill="#cccccc" stroke="none" />
    <path d="M 322 345  L 576 345  L 576 498  L 322 498  L 322 345  " fill-rule="nonzero" fill="#ffffff" stroke="none" />
    <path d="M 468.025 385.7  C 460.507 385.7  454.6 379.793  454.6 372.275  C 454.6 364.757  460.507 358.85  468.025 358.85  C 475.543 358.85  481.45 364.757  481.45 372.275  C 481.45 379.793  475.543 385.7  468.025 385.7  " fill-rule="nonzero" fill="#cccccc" stroke="none" />
    <path d="M 327 494  L 327 414.8  L 388.25 378.8  L 474 438.765714285714  L 523 400.4  L 572 438.765714285714  L 572 494  L 327 494  " fill-rule="nonzero" fill="#169bd5" stroke="none" />
  </g>
</svg>