<?xml version="1.0" encoding="utf-8"?>
<svg version="1.1" xmlns:xlink="http://www.w3.org/1999/xlink" width="176px" height="114px" xmlns="http://www.w3.org/2000/svg">
  <g transform="matrix(1 0 0 1 -818 -308 )">
    <path d="M 818 308  L 994 308  L 994 422  L 818 422  L 818 308  " fill-rule="nonzero" fill="#cccccc" stroke="none" />
    <path d="M 826 316  L 986 316  L 986 414  L 826 414  L 826 316  " fill-rule="nonzero" fill="#ffffff" stroke="none" />
    <path d="M 918.07 342.2  C 913.282 342.2  909.52 338.438  909.52 333.65  C 909.52 328.862  913.282 325.1  918.07 325.1  C 922.858 325.1  926.62 328.862  926.62 333.65  C 926.62 338.438  922.858 342.2  918.07 342.2  " fill-rule="nonzero" fill="#cccccc" stroke="none" />
    <path d="M 829 411  L 829 360.4  L 867.5 337.4  L 921.4 375.245454545455  L 952.2 351.2  L 983 375.245454545455  L 983 411  L 829 411  " fill-rule="nonzero" fill="#169bd5" stroke="none" />
  </g>
</svg>