<?xml version="1.0" encoding="utf-8"?>
<svg version="1.1" xmlns:xlink="http://www.w3.org/1999/xlink" width="20px" height="20px" xmlns="http://www.w3.org/2000/svg">
  <g transform="matrix(1 0 0 1 -901 -152 )">
    <path d="M 911 152  C 916.6 152  921 156.4  921 162  C 921 167.6  916.6 172  911 172  C 905.4 172  901 167.6  901 162  C 901 156.4  905.4 152  911 152  Z " fill-rule="nonzero" fill="#ffffff" stroke="none" fill-opacity="0" />
    <path d="M 911 152.5  C 916.32 152.5  920.5 156.68  920.5 162  C 920.5 167.32  916.32 171.5  911 171.5  C 905.68 171.5  901.5 167.32  901.5 162  C 901.5 156.68  905.68 152.5  911 152.5  Z " stroke-width="1" stroke="#d9d9d9" fill="none" />
  </g>
</svg>