<?xml version="1.0" encoding="utf-8"?>
<svg version="1.1" xmlns:xlink="http://www.w3.org/1999/xlink" width="21px" height="25px" xmlns="http://www.w3.org/2000/svg">
  <g transform="matrix(1 0 0 1 -1080 -248 )">
    <path d="M 15.8046875 0.948660714285715  L 20.0703125 5.30133928571428  C 20.3255208333333 5.56175595238095  20.5442708333333 5.91517857142857  20.7265625 6.36160714285714  C 20.9088541666667 6.80803571428572  21 7.2172619047619  21 7.58928571428572  L 21 23.6607142857143  C 21 24.0327380952381  20.8723958333333 24.3489583333333  20.6171875 24.609375  C 20.3619791666667 24.8697916666667  20.0520833333333 25  19.6875 25  L 1.3125 25  C 0.947916666666667 25  0.638020833333333 24.8697916666667  0.3828125 24.609375  C 0.127604166666667 24.3489583333333  0 24.0327380952381  0 23.6607142857143  L 0 1.33928571428572  C 0 0.967261904761904  0.127604166666667 0.651041666666666  0.3828125 0.390625  C 0.638020833333333 0.130208333333334  0.947916666666667 0  1.3125 0  L 13.5625 0  C 13.9270833333333 0  14.328125 0.0930059523809534  14.765625 0.279017857142858  C 15.203125 0.465029761904762  15.5494791666667 0.688244047619047  15.8046875 0.948660714285715  Z M 14.560546875 2.20424107142857  C 14.451171875 2.09263392857143  14.2643229166667 1.99032738095238  14 1.89732142857143  L 14 7.14285714285714  L 19.140625 7.14285714285714  C 19.0494791666667 6.87313988095238  18.94921875 6.68247767857143  18.83984375 6.57087053571428  L 14.560546875 2.20424107142857  Z M 2 23  L 19 23  L 19 8.92857142857143  L 13.5625 8.92857142857143  C 13.1979166666667 8.92857142857143  12.8880208333333 8.79836309523809  12.6328125 8.53794642857143  C 12.3776041666667 8.27752976190476  12.25 7.96130952380952  12.25 7.58928571428572  L 12.25 2  L 2 2  L 2 23  Z M 10.2265625 11.62109375  C 10.7278645833333 13.1463913690476  11.3932291666667 14.253162202381  12.22265625 14.94140625  C 12.5234375 15.1832217261905  12.90625 15.4436383928571  13.37109375 15.72265625  C 13.9088541666667 15.6575520833333  14.4420572916667 15.625  14.970703125 15.625  C 16.310546875 15.625  17.1171875 15.8528645833333  17.390625 16.30859375  C 17.5364583333333 16.5132068452381  17.5455729166667 16.7550223214286  17.41796875 17.0340401785714  C 17.41796875 17.0433407738095  17.4134114583333 17.0526413690476  17.404296875 17.0619419642857  L 17.376953125 17.08984375  L 17.376953125 17.1037946428571  C 17.322265625 17.4572172619048  16.9986979166667 17.6339285714286  16.40625 17.6339285714286  C 15.96875 17.6339285714286  15.4446614583333 17.5409226190476  14.833984375 17.3549107142857  C 14.2233072916667 17.1688988095238  13.630859375 16.9224330357143  13.056640625 16.6155133928571  C 11.0423177083333 16.8387276785714  9.255859375 17.2247023809524  7.697265625 17.7734375  C 6.302734375 20.210193452381  5.19986979166667 21.4285714285714  4.388671875 21.4285714285714  C 4.251953125 21.4285714285714  4.12434895833333 21.3960193452381  4.005859375 21.3309151785714  L 3.677734375 21.1635044642857  C 3.66861979166667 21.1542038690476  3.64127604166667 21.1309523809524  3.595703125 21.09375  C 3.50455729166667 21.000744047619  3.47721354166667 20.8333333333333  3.513671875 20.5915178571429  C 3.595703125 20.219494047619  3.85091145833333 19.7939918154762  4.279296875 19.3150111607143  C 4.70768229166667 18.8360305059524  5.30924479166667 18.3872767857143  6.083984375 17.96875  C 6.21158854166667 17.8850446428571  6.31640625 17.9129464285714  6.3984375 18.0524553571429  C 6.41666666666667 18.071056547619  6.42578125 18.0896577380952  6.42578125 18.1082589285714  C 6.89973958333333 17.3177083333333  7.38736979166667 16.4015997023809  7.888671875 15.3599330357143  C 8.50846354166667 14.0950520833333  8.982421875 12.8766741071429  9.310546875 11.7047991071429  C 9.091796875 10.942150297619  8.95279947916667 10.200427827381  8.8935546875 9.47963169642857  C 8.83430989583333 8.75883556547619  8.86393229166667 8.16592261904762  8.982421875 7.70089285714286  C 9.08268229166667 7.32886904761905  9.27408854166667 7.14285714285714  9.556640625 7.14285714285714  L 9.84375 7.14285714285714  L 9.857421875 7.14285714285714  C 10.0670572916667 7.14285714285714  10.2265625 7.21261160714286  10.3359375 7.35212053571428  C 10.5 7.54743303571428  10.541015625 7.86365327380952  10.458984375 8.30078125  C 10.4407552083333 8.35658482142857  10.4225260416667 8.39378720238095  10.404296875 8.41238839285714  C 10.4134114583333 8.44029017857143  10.41796875 8.47749255952381  10.41796875 8.52399553571428  L 10.41796875 8.94252232142857  C 10.3997395833333 10.0864955357143  10.3359375 10.9793526785714  10.2265625 11.62109375  Z M 5.0244140625 19.6428571428571  C 4.69173177083333 20.0520833333333  4.46614583333333 20.3962053571429  4.34765625 20.6752232142857  C 4.82161458333333 20.4520089285714  5.44596354166667 19.7172619047619  6.220703125 18.4709821428571  C 5.755859375 18.843005952381  5.35709635416667 19.233630952381  5.0244140625 19.6428571428571  Z M 9.7890625 7.8125  L 9.7890625 7.84040178571428  C 9.65234375 8.23102678571428  9.64322916666667 8.84486607142857  9.76171875 9.68191964285714  C 9.77083333333333 9.61681547619047  9.802734375 9.41220238095238  9.857421875 9.06808035714286  C 9.857421875 9.04017857142857  9.88932291666667 8.84021577380952  9.953125 8.46819196428572  C 9.96223958333333 8.43098958333333  9.98046875 8.39378720238095  10.0078125 8.35658482142857  C 9.99869791666667 8.34728422619047  9.994140625 8.33798363095238  9.994140625 8.32868303571428  C 9.98502604166667 8.31008184523809  9.98046875 8.29613095238095  9.98046875 8.28683035714286  C 9.97135416666667 8.08221726190476  9.912109375 7.91480654761905  9.802734375 7.78459821428572  C 9.802734375 7.79389880952381  9.79817708333333 7.8031994047619  9.7890625 7.8125  Z M 8.708984375 15.9040178571429  C 8.435546875 16.4248511904762  8.23046875 16.8108258928571  8.09375 17.0619419642857  C 9.32421875 16.5597098214286  10.6184895833333 16.1830357142857  11.9765625 15.9319196428571  C 11.9583333333333 15.922619047619  11.8990885416667 15.8784412202381  11.798828125 15.7993861607143  C 11.6985677083333 15.7203311011905  11.6256510416667 15.6575520833333  11.580078125 15.6110491071429  C 10.8873697916667 14.9879092261905  10.30859375 14.1694568452381  9.84375 13.1556919642857  C 9.59765625 13.9555431547619  9.21940104166667 14.8716517857143  8.708984375 15.9040178571429  Z M 16.953125 16.8805803571429  C 16.953125 16.8712797619048  16.9440104166667 16.8573288690476  16.92578125 16.8387276785714  C 16.70703125 16.6155133928571  16.0690104166667 16.50390625  15.01171875 16.50390625  C 15.7044270833333 16.7643229166667  16.26953125 16.89453125  16.70703125 16.89453125  C 16.8346354166667 16.89453125  16.9166666666667 16.8898809523809  16.953125 16.8805803571429  Z " fill-rule="nonzero" fill="#999999" stroke="none" transform="matrix(1 0 0 1 1080 248 )" />
  </g>
</svg>