<?xml version="1.0" encoding="utf-8"?>
<svg version="1.1" xmlns:xlink="http://www.w3.org/1999/xlink" width="25px" height="19px" xmlns="http://www.w3.org/2000/svg">
  <g transform="matrix(1 0 0 1 -453 -220 )">
    <path d="M 16.5364583333333 11.1193181818182  C 16.6232638888889 11.0113636363636  16.6666666666667 10.9034090909091  16.6666666666667 10.7954545454545  C 16.6666666666667 10.6695075757576  16.6276041666667 10.5660511363636  16.5494791666667 10.4850852272727  C 16.4713541666667 10.4041193181818  16.3715277777778 10.3636363636364  16.25 10.3636363636364  L 13.3333333333333 10.3636363636364  L 13.3333333333333 5.61363636363636  C 13.3333333333333 5.4966856060606  13.2921006944444 5.39547821969697  13.2096354166667 5.31001420454545  C 13.1271701388889 5.22455018939394  13.0295138888889 5.18181818181818  12.9166666666667 5.18181818181818  L 10.4166666666667 5.18181818181818  C 10.3038194444444 5.18181818181818  10.2061631944444 5.22455018939394  10.1236979166667 5.31001420454545  C 10.0412326388889 5.39547821969697  10 5.4966856060606  10 5.61363636363636  L 10 10.3636363636364  L 7.08333333333333 10.3636363636364  C 6.97048611111111 10.3636363636364  6.87282986111111 10.4063683712121  6.79036458333333 10.4918323863636  C 6.70789930555556 10.5772964015152  6.66666666666667 10.6785037878788  6.66666666666667 10.7954545454545  C 6.66666666666667 10.9214015151515  6.70572916666667 11.0248579545455  6.78385416666667 11.1058238636364  L 11.3671875 15.8558238636364  C 11.4453125 15.9367897727273  11.5451388888889 15.9772727272727  11.6666666666667 15.9772727272727  C 11.7881944444444 15.9772727272727  11.8880208333333 15.9367897727273  11.9661458333333 15.8558238636364  L 16.5364583333333 11.1193181818182  Z M 23.9127604166667 10.5997869318182  C 24.6375868055556 11.5398910984848  25 12.6126893939394  25 13.8181818181818  C 25 15.2485795454545  24.51171875 16.4698153409091  23.53515625 17.4818892045455  C 22.55859375 18.4939630681818  21.3802083333333 19  20 19  L 5.83333333333333 19  C 4.22743055555556 19  2.85373263888889 18.4084990530303  1.71223958333333 17.2254971590909  C 0.570746527777778 16.0424952651515  0 14.6188446969697  0 12.9545454545455  C 0 11.7850378787879  0.303819444444444 10.7054924242424  0.911458333333333 9.71590909090909  C 1.51909722222222 8.72632575757575  2.33506944444444 7.98413825757575  3.359375 7.48934659090909  C 3.34201388888889 7.21946022727273  3.33333333333333 7.02604166666667  3.33333333333333 6.90909090909091  C 3.33333333333333 5.00189393939394  3.984375 3.37357954545455  5.28645833333333 2.02414772727273  C 6.58854166666667 0.674715909090909  8.15972222222222 0  10 0  C 11.3541666666667 0  12.5933159722222 0.391335227272728  13.7174479166667 1.17400568181818  C 14.8415798611111 1.95667613636364  15.6597222222222 2.99573863636364  16.171875 4.29119318181818  C 16.7881944444444 3.73342803030303  17.5086805555556 3.45454545454545  18.3333333333333 3.45454545454545  C 19.2534722222222 3.45454545454545  20.0390625 3.79190340909091  20.6901041666667 4.46661931818182  C 21.3411458333333 5.14133522727273  21.6666666666667 5.95549242424242  21.6666666666667 6.90909090909091  C 21.6666666666667 7.59280303030303  21.4887152777778 8.21354166666667  21.1328125 8.77130681818182  C 22.2612847222222 9.05018939393939  23.1879340277778 9.65968276515151  23.9127604166667 10.5997869318182  Z " fill-rule="nonzero" fill="#ffffff" stroke="none" transform="matrix(1 0 0 1 453 220 )" />
  </g>
</svg>