<?xml version="1.0" encoding="utf-8"?>
<svg version="1.1" xmlns:xlink="http://www.w3.org/1999/xlink" width="183px" height="124px" xmlns="http://www.w3.org/2000/svg">
  <g transform="matrix(1 0 0 1 -208 -335 )">
    <path d="M 208 335  L 391 335  L 391 459  L 208 459  L 208 335  " fill-rule="nonzero" fill="#cccccc" stroke="none" />
    <path d="M 217 344  L 382 344  L 382 450  L 217 450  L 217 344  " fill-rule="nonzero" fill="#ffffff" stroke="none" />
    <path d="M 312.46 372.2  C 307.252 372.2  303.16 368.108  303.16 362.9  C 303.16 357.692  307.252 353.6  312.46 353.6  C 317.668 353.6  321.76 357.692  321.76 362.9  C 321.76 368.108  317.668 372.2  312.46 372.2  " fill-rule="nonzero" fill="#cccccc" stroke="none" />
    <path d="M 220 447  L 220 392  L 259.75 367  L 315.4 406.344262295082  L 347.2 382  L 379 406.344262295082  L 379 447  L 220 447  " fill-rule="nonzero" fill="#169bd5" stroke="none" />
  </g>
</svg>