<?xml version="1.0" encoding="utf-8"?>
<svg version="1.1" xmlns:xlink="http://www.w3.org/1999/xlink" width="22px" height="25px" xmlns="http://www.w3.org/2000/svg">
  <g transform="matrix(1 0 0 1 -1012 -387 )">
    <path d="M 16.5572916666667 0.948660714285715  L 21.0260416666667 5.30133928571428  C 21.2934027777778 5.56175595238095  21.5225694444444 5.91517857142857  21.7135416666667 6.36160714285714  C 21.9045138888889 6.80803571428572  22 7.2172619047619  22 7.58928571428572  L 22 23.6607142857143  C 22 24.0327380952381  21.8663194444444 24.3489583333333  21.5989583333333 24.609375  C 21.3315972222222 24.8697916666667  21.0069444444444 25  20.625 25  L 1.375 25  C 0.993055555555556 25  0.668402777777778 24.8697916666667  0.401041666666667 24.609375  C 0.133680555555556 24.3489583333333  0 24.0327380952381  0 23.6607142857143  L 0 1.33928571428572  C 0 0.967261904761904  0.133680555555556 0.651041666666666  0.401041666666667 0.390625  C 0.668402777777778 0.130208333333334  0.993055555555556 0  1.375 0  L 14.2083333333333 0  C 14.5902777777778 0  15.0104166666667 0.0930059523809534  15.46875 0.279017857142858  C 15.9270833333333 0.465029761904762  16.2899305555556 0.688244047619047  16.5572916666667 0.948660714285715  Z M 15.25390625 2.20424107142857  C 15.1393229166667 2.09263392857143  14.9435763888889 1.99032738095238  14.6666666666667 1.89732142857143  L 14.6666666666667 7.14285714285714  L 20.0520833333333 7.14285714285714  C 19.9565972222222 6.87313988095238  19.8515625 6.68247767857143  19.7369791666667 6.57087053571428  L 15.25390625 2.20424107142857  Z M 2 23  L 20 23  L 20 8.92857142857143  L 14.2083333333333 8.92857142857143  C 13.8263888888889 8.92857142857143  13.5017361111111 8.79836309523809  13.234375 8.53794642857143  C 12.9670138888889 8.27752976190476  12.8333333333333 7.96130952380952  12.8333333333333 7.58928571428572  L 12.8333333333333 2  L 2 2  L 2 23  Z M 10.7135416666667 11.62109375  C 11.2387152777778 13.1463913690476  11.9357638888889 14.253162202381  12.8046875 14.94140625  C 13.1197916666667 15.1832217261905  13.5208333333333 15.4436383928571  14.0078125 15.72265625  C 14.5711805555556 15.6575520833333  15.1297743055556 15.625  15.68359375 15.625  C 17.0872395833333 15.625  17.9322916666667 15.8528645833333  18.21875 16.30859375  C 18.3715277777778 16.5132068452381  18.3810763888889 16.7550223214286  18.2473958333333 17.0340401785714  C 18.2473958333333 17.0433407738095  18.2426215277778 17.0526413690476  18.2330729166667 17.0619419642857  L 18.2044270833333 17.08984375  L 18.2044270833333 17.1037946428571  C 18.1471354166667 17.4572172619048  17.8081597222222 17.6339285714286  17.1875 17.6339285714286  C 16.7291666666667 17.6339285714286  16.1801215277778 17.5409226190476  15.5403645833333 17.3549107142857  C 14.9006076388889 17.1688988095238  14.2799479166667 16.9224330357143  13.6783854166667 16.6155133928571  C 11.5681423611111 16.8387276785714  9.69661458333333 17.2247023809524  8.06380208333333 17.7734375  C 6.60286458333333 20.210193452381  5.44748263888889 21.4285714285714  4.59765625 21.4285714285714  C 4.45442708333333 21.4285714285714  4.32074652777778 21.3960193452381  4.19661458333333 21.3309151785714  L 3.85286458333333 21.1635044642857  C 3.84331597222222 21.1542038690476  3.81467013888889 21.1309523809524  3.76692708333333 21.09375  C 3.67144097222222 21.000744047619  3.64279513888889 20.8333333333333  3.68098958333333 20.5915178571429  C 3.76692708333333 20.219494047619  4.03428819444444 19.7939918154762  4.48307291666667 19.3150111607143  C 4.93185763888889 18.8360305059524  5.56206597222222 18.3872767857143  6.37369791666667 17.96875  C 6.50737847222222 17.8850446428571  6.6171875 17.9129464285714  6.703125 18.0524553571429  C 6.72222222222222 18.071056547619  6.73177083333333 18.0896577380952  6.73177083333333 18.1082589285714  C 7.22829861111111 17.3177083333333  7.73914930555556 16.4015997023809  8.26432291666667 15.3599330357143  C 8.91362847222222 14.0950520833333  9.41015625 12.8766741071429  9.75390625 11.7047991071429  C 9.52473958333333 10.942150297619  9.37912326388889 10.200427827381  9.31705729166667 9.47963169642857  C 9.25499131944445 8.75883556547619  9.28602430555556 8.16592261904762  9.41015625 7.70089285714286  C 9.51519097222222 7.32886904761905  9.71571180555556 7.14285714285714  10.01171875 7.14285714285714  L 10.3125 7.14285714285714  L 10.3268229166667 7.14285714285714  C 10.5464409722222 7.14285714285714  10.7135416666667 7.21261160714286  10.828125 7.35212053571428  C 11 7.54743303571428  11.04296875 7.86365327380952  10.95703125 8.30078125  C 10.9379340277778 8.35658482142857  10.9188368055556 8.39378720238095  10.8997395833333 8.41238839285714  C 10.9092881944444 8.44029017857143  10.9140625 8.47749255952381  10.9140625 8.52399553571428  L 10.9140625 8.94252232142857  C 10.8949652777778 10.0864955357143  10.828125 10.9793526785714  10.7135416666667 11.62109375  Z M 5.263671875 19.6428571428571  C 4.91514756944444 20.0520833333333  4.67881944444444 20.3962053571429  4.5546875 20.6752232142857  C 5.05121527777778 20.4520089285714  5.70529513888889 19.7172619047619  6.51692708333333 18.4709821428571  C 6.02994791666667 18.843005952381  5.61219618055556 19.233630952381  5.263671875 19.6428571428571  Z M 10.2552083333333 7.8125  L 10.2552083333333 7.84040178571428  C 10.1119791666667 8.23102678571428  10.1024305555556 8.84486607142857  10.2265625 9.68191964285714  C 10.2361111111111 9.61681547619047  10.26953125 9.41220238095238  10.3268229166667 9.06808035714286  C 10.3268229166667 9.04017857142857  10.3602430555556 8.84021577380952  10.4270833333333 8.46819196428572  C 10.4366319444444 8.43098958333333  10.4557291666667 8.39378720238095  10.484375 8.35658482142857  C 10.4748263888889 8.34728422619047  10.4700520833333 8.33798363095238  10.4700520833333 8.32868303571428  C 10.4605034722222 8.31008184523809  10.4557291666667 8.29613095238095  10.4557291666667 8.28683035714286  C 10.4461805555556 8.08221726190476  10.3841145833333 7.91480654761905  10.26953125 7.78459821428572  C 10.26953125 7.79389880952381  10.2647569444444 7.8031994047619  10.2552083333333 7.8125  Z M 9.12369791666667 15.9040178571429  C 8.83723958333333 16.4248511904762  8.62239583333333 16.8108258928571  8.47916666666667 17.0619419642857  C 9.76822916666667 16.5597098214286  11.1241319444444 16.1830357142857  12.546875 15.9319196428571  C 12.5277777777778 15.922619047619  12.4657118055556 15.8784412202381  12.3606770833333 15.7993861607143  C 12.2556423611111 15.7203311011905  12.1792534722222 15.6575520833333  12.1315104166667 15.6110491071429  C 11.4058159722222 14.9879092261905  10.7994791666667 14.1694568452381  10.3125 13.1556919642857  C 10.0546875 13.9555431547619  9.65842013888889 14.8716517857143  9.12369791666667 15.9040178571429  Z M 17.7604166666667 16.8805803571429  C 17.7604166666667 16.8712797619048  17.7508680555556 16.8573288690476  17.7317708333333 16.8387276785714  C 17.5026041666667 16.6155133928571  16.8342013888889 16.50390625  15.7265625 16.50390625  C 16.4522569444444 16.7643229166667  17.0442708333333 16.89453125  17.5026041666667 16.89453125  C 17.6362847222222 16.89453125  17.7222222222222 16.8898809523809  17.7604166666667 16.8805803571429  Z " fill-rule="nonzero" fill="#000000" stroke="none" transform="matrix(1 0 0 1 1012 387 )" />
  </g>
</svg>