<?xml version="1.0" encoding="utf-8"?>
<svg version="1.1" xmlns:xlink="http://www.w3.org/1999/xlink" width="300px" height="118px" xmlns="http://www.w3.org/2000/svg">
  <g transform="matrix(1 0 0 1 -237 -212 )">
    <path d="M 237 212  L 537 212  L 537 330  L 237 330  L 237 212  " fill-rule="nonzero" fill="#cccccc" stroke="none" />
    <path d="M 245 220  L 529 220  L 529 322  L 245 322  L 245 220  " fill-rule="nonzero" fill="#ffffff" stroke="none" />
    <path d="M 401.85 247.4  C 396.894 247.4  393 243.506  393 238.55  C 393 233.594  396.894 229.7  401.85 229.7  C 406.806 229.7  410.7 233.594  410.7 238.55  C 410.7 243.506  406.806 247.4  401.85 247.4  " fill-rule="nonzero" fill="#cccccc" stroke="none" />
    <path d="M 248 319  L 248 266.2  L 317.5 242.2  L 414.8 296.344  L 470.4 256.6  L 526 296.344  L 526 319  L 248 319  " fill-rule="nonzero" fill="#169bd5" stroke="none" />
  </g>
</svg>