<?xml version="1.0" encoding="utf-8"?>
<svg version="1.1" xmlns:xlink="http://www.w3.org/1999/xlink" width="72px" height="47px" xmlns="http://www.w3.org/2000/svg">
  <g transform="matrix(1 0 0 1 -521 -309 )">
    <path d="M 521 309  L 593 309  L 593 356  L 521 356  L 521 309  " fill-rule="nonzero" fill="#cccccc" stroke="none" />
    <path d="M 524 312  L 590 312  L 590 353  L 524 353  L 524 312  " fill-rule="nonzero" fill="#ffffff" stroke="none" />
    <path d="M 561.965 323.1  C 559.991 323.1  558.44 321.549  558.44 319.575  C 558.44 317.601  559.991 316.05  561.965 316.05  C 563.939 316.05  565.49 317.601  565.49 319.575  C 565.49 321.549  563.939 323.1  561.965 323.1  " fill-rule="nonzero" fill="#cccccc" stroke="none" />
    <path d="M 525 352  L 525 330.55  L 541 320.8  L 563.4 336.725  L 576.2 326.65  L 589 336.725  L 589 352  L 525 352  " fill-rule="nonzero" fill="#169bd5" stroke="none" />
  </g>
</svg>