<?xml version="1.0" encoding="utf-8"?>
<svg version="1.1" xmlns:xlink="http://www.w3.org/1999/xlink" width="280px" height="179px" xmlns="http://www.w3.org/2000/svg">
  <g transform="matrix(1 0 0 1 -323 -768 )">
    <path d="M 323 768  L 603 768  L 603 947  L 323 947  L 323 768  " fill-rule="nonzero" fill="#cccccc" stroke="none" />
    <path d="M 336 781  L 590 781  L 590 934  L 336 934  L 336 781  " fill-rule="nonzero" fill="#ffffff" stroke="none" />
    <path d="M 482.025 821.7  C 474.507 821.7  468.6 815.793  468.6 808.275  C 468.6 800.757  474.507 794.85  482.025 794.85  C 489.543 794.85  495.45 800.757  495.45 808.275  C 495.45 815.793  489.543 821.7  482.025 821.7  " fill-rule="nonzero" fill="#cccccc" stroke="none" />
    <path d="M 341 930  L 341 850.8  L 402.25 814.8  L 488 874.765714285714  L 537 836.4  L 586 874.765714285714  L 586 930  L 341 930  " fill-rule="nonzero" fill="#169bd5" stroke="none" />
  </g>
</svg>