<?xml version="1.0" encoding="utf-8"?>
<svg version="1.1" xmlns:xlink="http://www.w3.org/1999/xlink" width="14px" height="14px" xmlns="http://www.w3.org/2000/svg">
  <g transform="matrix(1 0 0 1 -324 -611 )">
    <path d="M 331 611  C 334.92 611  338 614.08  338 618  C 338 621.92  334.92 625  331 625  C 327.08 625  324 621.92  324 618  C 324 614.08  327.08 611  331 611  Z " fill-rule="nonzero" fill="#2a82e4" stroke="none" />
    <path d="M 331 611.5  C 334.64 611.5  337.5 614.36  337.5 618  C 337.5 621.64  334.64 624.5  331 624.5  C 327.36 624.5  324.5 621.64  324.5 618  C 324.5 614.36  327.36 611.5  331 611.5  Z " stroke-width="1" stroke="#d9d9d9" fill="none" />
  </g>
</svg>