<?xml version="1.0" encoding="utf-8"?>
<svg version="1.1" xmlns:xlink="http://www.w3.org/1999/xlink" width="15px" height="14px" xmlns="http://www.w3.org/2000/svg">
  <g transform="matrix(1 0 0 1 -426 -613 )">
    <path d="M 433.5 613  C 437.7 613  441 616.08  441 620  C 441 623.92  437.7 627  433.5 627  C 429.3 627  426 623.92  426 620  C 426 616.08  429.3 613  433.5 613  Z " fill-rule="nonzero" fill="#fafafa" stroke="none" />
    <path d="M 433.5 613.5  C 437.42 613.5  440.5 616.36  440.5 620  C 440.5 623.64  437.42 626.5  433.5 626.5  C 429.58 626.5  426.5 623.64  426.5 620  C 426.5 616.36  429.58 613.5  433.5 613.5  Z " stroke-width="1" stroke="#cccccc" fill="none" />
  </g>
</svg>