<?xml version="1.0" encoding="utf-8"?>
<svg version="1.1" xmlns:xlink="http://www.w3.org/1999/xlink" width="25px" height="25px" xmlns="http://www.w3.org/2000/svg">
  <g transform="matrix(1 0 0 1 -215 -287 )">
    <path d="M 10.172193877551 22.861328125  C 10.1615646258503 22.9329427083333  10.172193877551 23.0208333333333  10.2040816326531 23.125  C 10.2040816326531 23.1770833333333  10.2093962585034 23.3072916666667  10.2200255102041 23.515625  C 10.2306547619048 23.7239583333333  10.2333120748299 23.896484375  10.2279974489796 24.033203125  C 10.2226828231293 24.169921875  10.2067389455782 24.3229166666667  10.1801658163265 24.4921875  C 10.1535926870748 24.6614583333333  10.1004464285714 24.7884114583333  10.0207270408163 24.873046875  C 9.94100765306123 24.9576822916667  9.83205782312925 25  9.69387755102041 25  L 4.59183673469388 25  C 3.32695578231293 25  2.24542942176871 24.4498697916667  1.34725765306122 23.349609375  C 0.449085884353741 22.2493489583333  0 20.9244791666667  0 19.375  L 0 5.625  C 0 4.07552083333333  0.449085884353741 2.75065104166667  1.34725765306122 1.650390625  C 2.24542942176871 0.55013020833333  3.32695578231293 0  4.59183673469388 0  L 9.69387755102041 0  C 9.83205782312925 0  9.95163690476191 0.0618489583333298  10.0526147959184 0.185546875000001  C 10.1535926870748 0.309244791666666  10.2040816326531 0.455729166666666  10.2040816326531 0.625000000000001  C 10.2040816326531 0.677083333333331  10.2093962585034 0.807291666666665  10.2200255102041 1.015625  C 10.2306547619048 1.22395833333333  10.2333120748299 1.396484375  10.2279974489796 1.533203125  C 10.2226828231293 1.669921875  10.2067389455782 1.82291666666667  10.1801658163265 1.9921875  C 10.1535926870748 2.16145833333333  10.1004464285714 2.28841145833333  10.0207270408163 2.373046875  C 9.94100765306123 2.45768229166667  9.83205782312925 2.5  9.69387755102041 2.5  L 4.59183673469388 2.5  C 3.89030612244898 2.5  3.28975340136054 2.80598958333333  2.79017857142857 3.41796875  C 2.2906037414966 4.02994791666667  2.04081632653061 4.765625  2 5.625  L 2 19.375  C 2.04081632653061 20.234375  2.2906037414966 20.9700520833333  2.79017857142857 21.58203125  C 3.28975340136054 22.1940104166667  3.89030612244898 22.5  4.59183673469388 22.5  L 9.18367346938776 22.5  L 9.35905612244898 22.5  L 9.56632653061224 22.5  C 9.56632653061224 22.5  9.62744472789116 22.5065104166667  9.74968112244898 22.51953125  C 9.8719175170068 22.5325520833333  9.93303571428571 22.5520833333333  9.93303571428571 22.578125  C 9.93303571428571 22.6041666666667  9.97555272108844 22.6399739583333  10.0605867346939 22.685546875  C 10.1456207482993 22.7311197916667  10.1828231292517 22.7897135416667  10.172193877551 22.861328125  Z M 24.6970663265306 11.62109375  C 24.8990221088435 11.8684895833333  25 12.1614583333333  25 12.5  C 25 12.8385416666667  24.8990221088435 13.1315104166667  24.6970663265306 13.37890625  L 16.0235969387755 24.00390625  C 15.8216411564626 24.2513020833333  15.5824829931973 24.375  15.3061224489796 24.375  C 15.0297619047619 24.375  14.7906037414966 24.2513020833333  14.5886479591837 24.00390625  C 14.3866921768707 23.7565104166667  14.2857142857143 23.4635416666667  14.2857142857143 23.125  L 14.2857142857143 17.5  L 7.14285714285714 17.5  C 6.86649659863946 17.5  6.62733843537415 17.3763020833333  6.42538265306122 17.12890625  C 6.2234268707483 16.8815104166667  6.12244897959184 16.5885416666667  6.12244897959184 16.25  L 6.12244897959184 8.75  C 6.12244897959184 8.41145833333333  6.2234268707483 8.11848958333333  6.42538265306122 7.87109375  C 6.62733843537415 7.62369791666667  6.86649659863946 7.5  7.14285714285714 7.5  L 14.2857142857143 7.5  L 14.2857142857143 1.875  C 14.2857142857143 1.53645833333333  14.3866921768707 1.24348958333333  14.5886479591837 0.996093749999999  C 14.7906037414966 0.748697916666666  15.0297619047619 0.625000000000001  15.3061224489796 0.625000000000001  C 15.5824829931973 0.625000000000001  15.8216411564626 0.748697916666666  16.0235969387755 0.996093749999999  L 24.6970663265306 11.62109375  Z " fill-rule="nonzero" fill="#ffffff" stroke="none" transform="matrix(1 0 0 1 215 287 )" />
  </g>
</svg>