<?xml version="1.0" encoding="utf-8"?>
<svg version="1.1" xmlns:xlink="http://www.w3.org/1999/xlink" width="116px" height="41px" xmlns="http://www.w3.org/2000/svg">
  <g transform="matrix(1 0 0 1 -861 -605 )">
    <path d="M 861 605  L 977 605  L 977 646  L 861 646  L 861 605  " fill-rule="nonzero" fill="#cccccc" stroke="none" />
    <path d="M 864 608  L 974 608  L 974 643  L 864 643  L 864 608  " fill-rule="nonzero" fill="#ffffff" stroke="none" />
    <path d="M 924.395 617.3  C 922.673 617.3  921.32 615.947  921.32 614.225  C 921.32 612.503  922.673 611.15  924.395 611.15  C 926.117 611.15  927.47 612.503  927.47 614.225  C 927.47 615.947  926.117 617.3  924.395 617.3  " fill-rule="nonzero" fill="#cccccc" stroke="none" />
    <path d="M 865 642  L 865 623.85  L 892 615.6  L 929.8 635.001724137931  L 951.4 620.55  L 973 635.001724137931  L 973 642  L 865 642  " fill-rule="nonzero" fill="#169bd5" stroke="none" />
  </g>
</svg>