<?xml version="1.0" encoding="utf-8"?>
<svg version="1.1" xmlns:xlink="http://www.w3.org/1999/xlink" width="443px" height="346px" xmlns="http://www.w3.org/2000/svg">
  <defs>
    <filter x="1174px" y="1240px" width="443px" height="346px" filterUnits="userSpaceOnUse" id="filter86">
      <feOffset dx="5" dy="5" in="SourceAlpha" result="shadowOffsetInner" />
      <feGaussianBlur stdDeviation="2.5" in="shadowOffsetInner" result="shadowGaussian" />
      <feComposite in2="shadowGaussian" operator="atop" in="SourceAlpha" result="shadowComposite" />
      <feColorMatrix type="matrix" values="0 0 0 0 0.250980392156863  0 0 0 0 0.619607843137255  0 0 0 0 1  0 0 0 0.0980392156862745 0  " in="shadowComposite" />
    </filter>
    <g id="widget87">
      <path d="M 1176 1245  A 3 3 0 0 1 1179 1242 L 1602 1242  A 3 3 0 0 1 1605 1245 L 1605 1571  A 3 3 0 0 1 1602 1574 L 1179 1574  A 3 3 0 0 1 1176 1571 L 1176 1245  Z " fill-rule="nonzero" fill="#ffffff" stroke="none" />
      <path d="M 1175 1245  A 4 4 0 0 1 1179 1241 L 1602 1241  A 4 4 0 0 1 1606 1245 L 1606 1571  A 4 4 0 0 1 1602 1575 L 1179 1575  A 4 4 0 0 1 1175 1571 L 1175 1245  Z " stroke-width="2" stroke="#02a7f0" fill="none" stroke-opacity="0.149019607843137" />
    </g>
  </defs>
  <g transform="matrix(1 0 0 1 -1174 -1240 )">
    <use xlink:href="#widget87" filter="url(#filter86)" />
    <use xlink:href="#widget87" />
  </g>
</svg>