<?xml version="1.0" encoding="utf-8"?>
<svg version="1.1" xmlns:xlink="http://www.w3.org/1999/xlink" width="25px" height="25px" xmlns="http://www.w3.org/2000/svg">
  <g transform="matrix(1 0 0 1 -270 -879 )">
    <path d="M 24.7349330357143 11.8722098214286  C 24.9116443452381 12.0489211309524  25 12.2581845238095  25 12.5  C 25 12.7418154761905  24.9116443452381 12.9510788690476  24.7349330357143 13.1277901785714  L 21.1635044642857 16.69921875  C 20.9867931547619 16.8759300595238  20.7775297619048 16.9642857142857  20.5357142857143 16.9642857142857  C 20.2938988095238 16.9642857142857  20.0846354166667 16.8759300595238  19.9079241071429 16.69921875  C 19.7312127976191 16.5225074404762  19.6428571428571 16.313244047619  19.6428571428571 16.0714285714286  L 19.6428571428571 14.2857142857143  L 14.2857142857143 14.2857142857143  L 14.2857142857143 19.6428571428571  L 16.0714285714286 19.6428571428571  C 16.3132440476191 19.6428571428571  16.5225074404762 19.731212797619  16.69921875 19.9079241071429  C 16.8759300595238 20.0846354166667  16.9642857142857 20.2938988095238  16.9642857142857 20.5357142857143  C 16.9642857142857 20.7775297619048  16.8759300595238 20.9867931547619  16.69921875 21.1635044642857  L 13.1277901785714 24.7349330357143  C 12.9510788690476 24.9116443452381  12.7418154761905 25  12.5 25  C 12.2581845238095 25  12.0489211309524 24.9116443452381  11.8722098214286 24.7349330357143  L 8.30078125 21.1635044642857  C 8.12406994047619 20.9867931547619  8.03571428571429 20.7775297619048  8.03571428571429 20.5357142857143  C 8.03571428571429 20.2938988095238  8.12406994047619 20.0846354166667  8.30078125 19.9079241071429  C 8.47749255952381 19.731212797619  8.68675595238095 19.6428571428571  8.92857142857143 19.6428571428571  L 10.7142857142857 19.6428571428571  L 10.7142857142857 14.2857142857143  L 5.35714285714286 14.2857142857143  L 5.35714285714286 16.0714285714286  C 5.35714285714286 16.313244047619  5.26878720238095 16.5225074404762  5.09207589285714 16.69921875  C 4.91536458333333 16.8759300595238  4.70610119047619 16.9642857142857  4.46428571428571 16.9642857142857  C 4.22247023809524 16.9642857142857  4.01320684523809 16.8759300595238  3.83649553571429 16.69921875  L 0.265066964285714 13.1277901785714  C 0.0883556547619048 12.9510788690476  0 12.7418154761905  0 12.5  C 0 12.2581845238095  0.0883556547619048 12.0489211309524  0.265066964285714 11.8722098214286  L 3.83649553571429 8.30078125  C 4.01320684523809 8.12406994047619  4.22247023809524 8.03571428571428  4.46428571428571 8.03571428571428  C 4.70610119047619 8.03571428571428  4.91536458333333 8.12406994047619  5.09207589285714 8.30078125  C 5.26878720238095 8.47749255952381  5.35714285714286 8.68675595238095  5.35714285714286 8.92857142857143  L 5.35714285714286 10.7142857142857  L 10.7142857142857 10.7142857142857  L 10.7142857142857 5.35714285714286  L 8.92857142857143 5.35714285714286  C 8.68675595238095 5.35714285714286  8.47749255952381 5.26878720238095  8.30078125 5.09207589285714  C 8.12406994047619 4.91536458333333  8.03571428571429 4.70610119047619  8.03571428571429 4.46428571428572  C 8.03571428571429 4.22247023809524  8.12406994047619 4.01320684523809  8.30078125 3.83649553571428  L 11.8722098214286 0.265066964285715  C 12.0489211309524 0.0883556547619069  12.2581845238095 0  12.5 0  C 12.7418154761905 0  12.9510788690476 0.0883556547619069  13.1277901785714 0.265066964285715  L 16.69921875 3.83649553571428  C 16.8759300595238 4.01320684523809  16.9642857142857 4.22247023809524  16.9642857142857 4.46428571428572  C 16.9642857142857 4.70610119047619  16.8759300595238 4.91536458333333  16.69921875 5.09207589285714  C 16.5225074404762 5.26878720238095  16.3132440476191 5.35714285714286  16.0714285714286 5.35714285714286  L 14.2857142857143 5.35714285714286  L 14.2857142857143 10.7142857142857  L 19.6428571428571 10.7142857142857  L 19.6428571428571 8.92857142857143  C 19.6428571428571 8.68675595238095  19.7312127976191 8.47749255952381  19.9079241071429 8.30078125  C 20.0846354166667 8.12406994047619  20.2938988095238 8.03571428571428  20.5357142857143 8.03571428571428  C 20.7775297619048 8.03571428571428  20.9867931547619 8.12406994047619  21.1635044642857 8.30078125  L 24.7349330357143 11.8722098214286  Z " fill-rule="nonzero" fill="#aaaaaa" stroke="none" transform="matrix(1 0 0 1 270 879 )" />
  </g>
</svg>