<?xml version="1.0" encoding="utf-8"?>
<svg version="1.1" xmlns:xlink="http://www.w3.org/1999/xlink" width="176px" height="114px" xmlns="http://www.w3.org/2000/svg">
  <g transform="matrix(1 0 0 1 -1009 -435 )">
    <path d="M 1009 435  L 1185 435  L 1185 549  L 1009 549  L 1009 435  " fill-rule="nonzero" fill="#cccccc" stroke="none" />
    <path d="M 1017 443  L 1177 443  L 1177 541  L 1017 541  L 1017 443  " fill-rule="nonzero" fill="#ffffff" stroke="none" />
    <path d="M 1109.07 469.2  C 1104.282 469.2  1100.52 465.438  1100.52 460.65  C 1100.52 455.862  1104.282 452.1  1109.07 452.1  C 1113.858 452.1  1117.62 455.862  1117.62 460.65  C 1117.62 465.438  1113.858 469.2  1109.07 469.2  " fill-rule="nonzero" fill="#cccccc" stroke="none" />
    <path d="M 1020 538  L 1020 487.4  L 1058.5 464.4  L 1112.4 502.245454545455  L 1143.2 478.2  L 1174 502.245454545455  L 1174 538  L 1020 538  " fill-rule="nonzero" fill="#169bd5" stroke="none" />
    <path d="M 1011.5 546.5  L 1011.5 437.5  L 1182.5 437.5  L 1182.5 546.5  L 1011.5 546.5  Z " stroke-width="5" stroke="#1890ff" fill="none" />
  </g>
</svg>