<?xml version="1.0" encoding="utf-8"?>
<svg version="1.1" xmlns:xlink="http://www.w3.org/1999/xlink" width="15px" height="12px" xmlns="http://www.w3.org/2000/svg">
  <g transform="matrix(1 0 0 1 -231 -309 )">
    <path d="M 14.7290322580645 1.65656565656566  C 14.9096774193548 1.84511784511784  15 2.07407407407407  15 2.34343434343434  C 15 2.61279461279461  14.9096774193548 2.84175084175084  14.7290322580645 3.03030303030303  L 7.72258064516129 10.3434343434343  L 6.40645161290323 11.7171717171717  C 6.2258064516129 11.9057239057239  6.00645161290323 12  5.74838709677419 12  C 5.49032258064516 12  5.27096774193548 11.9057239057239  5.09032258064516 11.7171717171717  L 3.7741935483871 10.3434343434343  L 0.270967741935484 6.68686868686869  C 0.0903225806451614 6.4983164983165  0 6.26936026936027  0 6  C 0 5.73063973063973  0.0903225806451614 5.5016835016835  0.270967741935484 5.31313131313131  L 1.58709677419355 3.93939393939394  C 1.76774193548387 3.75084175084175  1.98709677419355 3.65656565656566  2.24516129032258 3.65656565656566  C 2.50322580645161 3.65656565656566  2.72258064516129 3.75084175084175  2.90322580645161 3.93939393939394  L 5.74838709677419 6.91919191919192  L 12.0967741935484 0.282828282828283  C 12.2774193548387 0.0942760942760938  12.4967741935484 0  12.7548387096774 0  C 13.0129032258065 0  13.2322580645161 0.0942760942760938  13.4129032258065 0.282828282828283  L 14.7290322580645 1.65656565656566  Z " fill-rule="nonzero" fill="#02a7f0" stroke="none" transform="matrix(1 0 0 1 231 309 )" />
  </g>
</svg>