<?xml version="1.0" encoding="utf-8"?>
<svg version="1.1" xmlns:xlink="http://www.w3.org/1999/xlink" width="60px" height="20px" xmlns="http://www.w3.org/2000/svg">
  <g transform="matrix(1 0 0 1 -453 403 )">
    <path d="M 454 -399  A 3 3 0 0 1 457 -402 L 509 -402  A 3 3 0 0 1 512 -399 L 512 -387  A 3 3 0 0 1 509 -384 L 457 -384  A 3 3 0 0 1 454 -387 L 454 -399  Z " fill-rule="nonzero" fill="#f5f5f5" stroke="none" fill-opacity="0" />
    <path d="M 453.5 -399  A 3.5 3.5 0 0 1 457 -402.5 L 509 -402.5  A 3.5 3.5 0 0 1 512.5 -399 L 512.5 -387  A 3.5 3.5 0 0 1 509 -383.5 L 457 -383.5  A 3.5 3.5 0 0 1 453.5 -387 L 453.5 -399  Z " stroke-width="1" stroke-dasharray="3,1" stroke="#d9d9d9" fill="none" stroke-dashoffset="0.5" />
  </g>
</svg>