<?xml version="1.0" encoding="utf-8"?>
<svg version="1.1" xmlns:xlink="http://www.w3.org/1999/xlink" width="60px" height="60px" xmlns="http://www.w3.org/2000/svg">
  <g transform="matrix(1 0 0 1 -299 -214 )">
    <path d="M 329 214  C 345.8 214  359 227.2  359 244  C 359 260.8  345.8 274  329 274  C 312.2 274  299 260.8  299 244  C 299 227.2  312.2 214  329 214  Z " fill-rule="nonzero" fill="#ffffff" stroke="none" />
    <path d="M 329 214.5  C 345.52 214.5  358.5 227.48  358.5 244  C 358.5 260.52  345.52 273.5  329 273.5  C 312.48 273.5  299.5 260.52  299.5 244  C 299.5 227.48  312.48 214.5  329 214.5  Z " stroke-width="1" stroke="#797979" fill="none" />
  </g>
</svg>