<?xml version="1.0" encoding="utf-8"?>
<svg version="1.1" xmlns:xlink="http://www.w3.org/1999/xlink" width="300px" height="118px" xmlns="http://www.w3.org/2000/svg">
  <g transform="matrix(1 0 0 1 -247 -653 )">
    <path d="M 247 653  L 547 653  L 547 771  L 247 771  L 247 653  " fill-rule="nonzero" fill="#cccccc" stroke="none" />
    <path d="M 255 661  L 539 661  L 539 763  L 255 763  L 255 661  " fill-rule="nonzero" fill="#ffffff" stroke="none" />
    <path d="M 411.85 688.4  C 406.894 688.4  403 684.506  403 679.55  C 403 674.594  406.894 670.7  411.85 670.7  C 416.806 670.7  420.7 674.594  420.7 679.55  C 420.7 684.506  416.806 688.4  411.85 688.4  " fill-rule="nonzero" fill="#cccccc" stroke="none" />
    <path d="M 258 760  L 258 707.2  L 327.5 683.2  L 424.8 737.344  L 480.4 697.6  L 536 737.344  L 536 760  L 258 760  " fill-rule="nonzero" fill="#169bd5" stroke="none" />
  </g>
</svg>