<?xml version="1.0" encoding="utf-8"?>
<svg version="1.1" xmlns:xlink="http://www.w3.org/1999/xlink" width="155px" height="152px" xmlns="http://www.w3.org/2000/svg">
  <g transform="matrix(1 0 0 1 -1503 -766 )">
    <path d="M 29 110  L 43 110  L 43 124  L 29 124  L 29 110  Z M 29 28  L 43 28  L 43 42  L 29 42  L 29 28  Z M 112 28  L 126 28  L 126 42  L 112 42  L 112 28  Z M 14 96  L 14 138  L 57 138  L 57 96  L 14 96  Z M 14 14  L 14 56  L 57 56  L 57 14  L 14 14  Z M 98 14  L 98 56  L 141 56  L 141 14  L 98 14  Z M 0 83  L 71 83  L 71 152  L 0 152  L 0 83  Z M 112 138  L 126 138  L 126 152  L 112 152  L 112 138  Z M 141 138  L 155 138  L 155 152  L 141 152  L 141 138  Z M 141 83  L 155 83  L 155 124  L 112 124  L 112 110  L 98 110  L 98 152  L 84 152  L 84 83  L 126 83  L 126 96  L 141 96  L 141 83  Z M 0 0  L 71 0  L 71 69  L 0 69  L 0 0  Z M 84 0  L 155 0  L 155 69  L 84 69  L 84 0  Z " fill-rule="nonzero" fill="#02a7f0" stroke="none" transform="matrix(1 0 0 1 1503 766 )" />
  </g>
</svg>