<?xml version="1.0" encoding="utf-8"?>
<svg version="1.1" xmlns:xlink="http://www.w3.org/1999/xlink" width="310px" height="129px" xmlns="http://www.w3.org/2000/svg">
  <defs>
    <filter x="1465px" y="380px" width="310px" height="129px" filterUnits="userSpaceOnUse" id="filter80">
      <feOffset dx="5" dy="5" in="SourceAlpha" result="shadowOffsetInner" />
      <feGaussianBlur stdDeviation="2.5" in="shadowOffsetInner" result="shadowGaussian" />
      <feComposite in2="shadowGaussian" operator="atop" in="SourceAlpha" result="shadowComposite" />
      <feColorMatrix type="matrix" values="0 0 0 0 0.250980392156863  0 0 0 0 0.619607843137255  0 0 0 0 1  0 0 0 0.0980392156862745 0  " in="shadowComposite" />
    </filter>
    <g id="widget81">
      <path d="M 1467 385  A 3 3 0 0 1 1470 382 L 1760 382  A 3 3 0 0 1 1763 385 L 1763 494  A 3 3 0 0 1 1760 497 L 1470 497  A 3 3 0 0 1 1467 494 L 1467 385  Z " fill-rule="nonzero" fill="#ffffff" stroke="none" />
      <path d="M 1466 385  A 4 4 0 0 1 1470 381 L 1760 381  A 4 4 0 0 1 1764 385 L 1764 494  A 4 4 0 0 1 1760 498 L 1470 498  A 4 4 0 0 1 1466 494 L 1466 385  Z " stroke-width="2" stroke="#02a7f0" fill="none" stroke-opacity="0.149019607843137" />
    </g>
  </defs>
  <g transform="matrix(1 0 0 1 -1465 -380 )">
    <use xlink:href="#widget81" filter="url(#filter80)" />
    <use xlink:href="#widget81" />
  </g>
</svg>