<?xml version="1.0" encoding="utf-8"?>
<svg version="1.1" xmlns:xlink="http://www.w3.org/1999/xlink" width="326px" height="129px" xmlns="http://www.w3.org/2000/svg">
  <defs>
    <filter x="1465px" y="85px" width="326px" height="129px" filterUnits="userSpaceOnUse" id="filter21">
      <feOffset dx="5" dy="5" in="SourceAlpha" result="shadowOffsetInner" />
      <feGaussianBlur stdDeviation="2.5" in="shadowOffsetInner" result="shadowGaussian" />
      <feComposite in2="shadowGaussian" operator="atop" in="SourceAlpha" result="shadowComposite" />
      <feColorMatrix type="matrix" values="0 0 0 0 0.250980392156863  0 0 0 0 0.619607843137255  0 0 0 0 1  0 0 0 0.0980392156862745 0  " in="shadowComposite" />
    </filter>
    <g id="widget22">
      <path d="M 1467 90  A 3 3 0 0 1 1470 87 L 1776 87  A 3 3 0 0 1 1779 90 L 1779 199  A 3 3 0 0 1 1776 202 L 1470 202  A 3 3 0 0 1 1467 199 L 1467 90  Z " fill-rule="nonzero" fill="#ffffff" stroke="none" />
      <path d="M 1466 90  A 4 4 0 0 1 1470 86 L 1776 86  A 4 4 0 0 1 1780 90 L 1780 199  A 4 4 0 0 1 1776 203 L 1470 203  A 4 4 0 0 1 1466 199 L 1466 90  Z " stroke-width="2" stroke="#02a7f0" fill="none" stroke-opacity="0.149019607843137" />
    </g>
  </defs>
  <g transform="matrix(1 0 0 1 -1465 -85 )">
    <use xlink:href="#widget22" filter="url(#filter21)" />
    <use xlink:href="#widget22" />
  </g>
</svg>